{
.appVersion = "911";
DisplayStrings = (
"l/d.ss01/n.fina \U00A1n!\U00A1!/o.fina !/o.fina \U00A1/o.fina",
"\U00A1\U00BF\U00A1!\U00BF!?\U00A1/I.ss01  ?/I.ss01 \U00BF/I.ss01  ? C"
);
classes = (
{
automatic = 1;
code = "A Aacute Acircumflex Adieresis Aogonek Aring AE B C Ccedilla D DZcaron Eth Dcaron Dzcaron E F G H Hbar I IJ J K L LJ Lj Lslash M N NJ Eng Nj O Ohorn Oslash OE P Thorn Q R S Germandbls Schwa T U Uhorn V W X Y Z Zcaron A.ss01 Aacute.ss01 Acircumflex.ss01 Adieresis.ss01 Aogonek.ss01 Aring.ss01 AE.ss01 B.ss01 C.ss01 Ccedilla.ss01 D.ss01 E.ss01 F.ss01 G.ss01 H.ss01 I.ss01 J.ss01 K.ss01 L.ss01 LJ.ss01 Lj.ss01 Lslash.ss01 M.ss01 N.ss01 NJ.ss01 Nj.ss01 OE.ss01 P.ss01 Thorn.ss01 Q.ss01 R.ss01 T.ss01 U.ss01 Uhorn.ss01 V.ss01 W.ss01 X.ss01 Y.ss01 Z.ss01";
name = Uppercase;
},
{
code = "";
name = DevaIMatras;
}
);
copyright = "Copyright (c) 2011 by Vernon Adams. All rights reserved.";
customParameters = (
{
name = description;
value = "Copyright (c) 2011 by vernon adams. All rights reserved.";
},
{
name = license;
value = "SIL Open Font License, Version 1.1\012\012This Font Software is licensed under the SIL Open Font License, Version 1.1.\012\012This license is available with a FAQ at: http://scripts.sil.org/OFL";
},
{
name = licenseURL;
value = "http://scripts.sil.org/OFL";
},
{
name = vendorID;
value = newt;
}
);
date = "2016-07-26 07:59:01 +0000";
designer = "Vernon Adams";
familyName = Pacifico;
featurePrefixes = (
{
automatic = 1;
code = "languagesystem DFLT dflt;\012languagesystem latn dflt;\012";
name = Languagesystems;
}
);
features = (
{
automatic = 1;
code = "feature ccmp;\012feature sups;\012feature calt;\012feature frac;\012feature ordn;\012feature case;\012feature fina;\012feature zero;\012feature ss01;\012";
name = aalt;
},
{
automatic = 1;

glyphs = (
{
color = 3;
glyphname = A;
lastChange = "2016-07-30 21:02:34 +0000";
layers = (
{
anchors = (
{
name = bottom;
position = "{397, 0}";
},
{
name = ogonek;
position = "{735, 10}";
},
{
name = top;
position = "{605, 840}";
}
);
background = {
paths = (
{
closed = 1;
nodes = (
"817 142 OFFCURVE",
"783 114 OFFCURVE",
"739 114 CURVE SMOOTH",
"696 114 OFFCURVE",
"674 144 OFFCURVE",
"674 217 CURVE SMOOTH",
"674 305 OFFCURVE",
"713 496 OFFCURVE",
"743 610 CURVE SMOOTH",
"757 663 OFFCURVE",
"719 680 OFFCURVE",
"675 680 CURVE SMOOTH",
"640 680 OFFCURVE",
"611 669 OFFCURVE",
"603 628 CURVE SMOOTH",
"529 247 OFFCURVE",
"458 112 OFFCURVE",
"337 112 CURVE SMOOTH",
"267 112 OFFCURVE",
"216 173 OFFCURVE",
"216 290 CURVE SMOOTH",
"216 516 OFFCURVE",
"343 732 OFFCURVE",
"609 732 CURVE SMOOTH",
"666 732 OFFCURVE",
"712 724 OFFCURVE",
"776 709 CURVE SMOOTH",
"849 692 OFFCURVE",
"894 800 OFFCURVE",
"825 820 CURVE SMOOTH",
"764 838 OFFCURVE",
"698 848 OFFCURVE",
"631 848 CURVE SMOOTH",
"260 848 OFFCURVE",
"69 576 OFFCURVE",
"69 280 CURVE SMOOTH",
"69 100 OFFCURVE",
"175 -5 OFFCURVE",
"313 -5 CURVE SMOOTH",
"411 -5 OFFCURVE",
"483 49 OFFCURVE",
"531 150 CURVE",
"546 53 OFFCURVE",
"603 -5 OFFCURVE",
"698 -5 CURVE SMOOTH",
"797 -5 OFFCURVE",
"854 49 OFFCURVE",
"909 116 CURVE SMOOTH",
"926 137 OFFCURVE",
"928 159 OFFCURVE",
"928 178 CURVE SMOOTH",
"928 205 OFFCURVE",
"918 223 OFFCURVE",
"900 223 CURVE SMOOTH",
"892 223 OFFCURVE",
"883 221 OFFCURVE",
"873 209 CURVE SMOOTH"
);
}
);
};
layerId = "ECEFE970-1BBB-4E0A-A452-CEB55884B4A3";
paths = (
{
closed = 1;
nodes = (
"817 142 OFFCURVE",
"783 114 OFFCURVE",
"739 114 CURVE SMOOTH",
"696 114 OFFCURVE",
"674 144 OFFCURVE",
"674 217 CURVE SMOOTH",
"674 305 OFFCURVE",
"713 496 OFFCURVE",
"743 610 CURVE SMOOTH",
"757 663 OFFCURVE",
"719 676 OFFCURVE",
"675 676 CURVE SMOOTH",
"640 676 OFFCURVE",
"611 669 OFFCURVE",
"603 628 CURVE SMOOTH",
"529 247 OFFCURVE",
"458 112 OFFCURVE",
"337 112 CURVE SMOOTH",
"267 112 OFFCURVE",
"216 173 OFFCURVE",
"216 290 CURVE SMOOTH",
"216 516 OFFCURVE",
"343 732 OFFCURVE",
"609 732 CURVE SMOOTH",
"666 732 OFFCURVE",
"712 724 OFFCURVE",
"776 709 CURVE SMOOTH",
"818 699 OFFCURVE",
"853 744 OFFCURVE",
"853 780 CURVE SMOOTH",
"853 798 OFFCURVE",
"845 814 OFFCURVE",
"825 820 CURVE SMOOTH",
"765 839 OFFCURVE",
"688 848 OFFCURVE",
"631 848 CURVE SMOOTH",
"260 848 OFFCURVE",
"69 576 OFFCURVE",
"69 280 CURVE SMOOTH",
"69 100 OFFCURVE",
"175 -5 OFFCURVE",
"313 -5 CURVE SMOOTH",
"411 -5 OFFCURVE",
"483 49 OFFCURVE",
"531 150 CURVE",
"546 53 OFFCURVE",
"603 -5 OFFCURVE",
"698 -5 CURVE SMOOTH",
"797 -5 OFFCURVE",
"854 49 OFFCURVE",
"909 116 CURVE SMOOTH",
"926 137 OFFCURVE",
"928 159 OFFCURVE",
"928 178 CURVE SMOOTH",
"928 205 OFFCURVE",
"918 223 OFFCURVE",
"900 223 CURVE SMOOTH",
"892 223 OFFCURVE",
"883 221 OFFCURVE",
"873 209 CURVE SMOOTH"
);
}
);
width = 794;
}
);
leftKerningGroup = A;
note = A;
rightKerningGroup = N;
unicode = 0041;
},
{
color = 3;
glyphname = Aogonek;
lastChange = "2016-07-30 21:02:34 +0000";
layers = (
{
anchors = (
{
name = _ogonek;
position = "{735, 10}";
},
{
name = bottom;
position = "{397, 0}";
},
{
name = ogonek;
position = "{735, 10}";
},
{
name = top;
position = "{605, 840}";
}
);
background = {
paths = (
{
closed = 1;
nodes = (
"892 223 OFFCURVE",
"883 221 OFFCURVE",
"873 209 CURVE SMOOTH",
"817 142 OFFCURVE",
"781 105 OFFCURVE",
"754 105 CURVE SMOOTH",
"738 105 OFFCURVE",
"727 118 OFFCURVE",
"727 138 CURVE SMOOTH",
"727 214 OFFCURVE",
"765 352 OFFCURVE",
"765 398 CURVE SMOOTH",
"765 416 OFFCURVE",
"754 433 OFFCURVE",
"716 433 CURVE SMOOTH",
"702 433 OFFCURVE",
"688 432 OFFCURVE",
"672 429 CURVE",
"666 455 OFFCURVE",
"662 468 OFFCURVE",
"630 468 CURVE SMOOTH",
"489 468 OFFCURVE",
"364 320 OFFCURVE",
"364 158 CURVE SMOOTH",
"364 61 OFFCURVE",
"416 -5 OFFCURVE",
"500 -5 CURVE SMOOTH",
"563 -5 OFFCURVE",
"605 37 OFFCURVE",
"631 79 CURVE",
"637 62 OFFCURVE",
"647 44 OFFCURVE",
"662 27 CURVE",
"613 -6 OFFCURVE",
"579 -60 OFFCURVE",
"579 -118 CURVE SMOOTH",
"579 -199 OFFCURVE",
"637 -250 OFFCURVE",
"729 -250 CURVE SMOOTH",
"750 -250 OFFCURVE",
"779 -246 OFFCURVE",
"796 -240 CURVE SMOOTH",
"833 -227 OFFCURVE",
"844 -206 OFFCURVE",
"843 -181 CURVE SMOOTH",
"842 -150 OFFCURVE",
"829 -140 OFFCURVE",
"790 -153 CURVE SMOOTH",
"772 -159 OFFCURVE",
"757 -160 OFFCURVE",
"743 -160 CURVE SMOOTH",
"712 -160 OFFCURVE",
"681 -142 OFFCURVE",
"681 -101 CURVE SMOOTH",
"681 -65 OFFCURVE",
"707 -35 OFFCURVE",
"768 0 CURVE SMOOTH",
"813 26 OFFCURVE",
"860 59 OFFCURVE",
"909 116 CURVE SMOOTH",
"926 136 OFFCURVE",
"928 159 OFFCURVE",
"928 178 CURVE SMOOTH",
"928 205 OFFCURVE",
"918 223 OFFCURVE",
"900 223 CURVE SMOOTH"
);
},
{
closed = 1;
nodes = (
"595 131 OFFCURVE",
"564 96 OFFCURVE",
"536 96 CURVE SMOOTH",
"507 96 OFFCURVE",
"489 115 OFFCURVE",
"489 157 CURVE SMOOTH",
"489 270 OFFCURVE",
"559 373 OFFCURVE",
"644 375 CURVE",
"607 191 LINE SMOOTH"
);
}
);
};
layerId = "ECEFE970-1BBB-4E0A-A452-CEB55884B4A3";
paths = (
{
closed = 1;
nodes = (
"892 223 OFFCURVE",
"883 221 OFFCURVE",
"873 209 CURVE SMOOTH",
"817 142 OFFCURVE",
"783 114 OFFCURVE",
"739 114 CURVE SMOOTH",
"696 114 OFFCURVE",
"674 144 OFFCURVE",
"674 217 CURVE SMOOTH",
"674 305 OFFCURVE",
"713 496 OFFCURVE",
"743 610 CURVE SMOOTH",
"757 663 OFFCURVE",
"719 676 OFFCURVE",
"675 676 CURVE SMOOTH",
"640 676 OFFCURVE",
"611 669 OFFCURVE",
"603 628 CURVE SMOOTH",
"529 247 OFFCURVE",
"458 112 OFFCURVE",
"337 112 CURVE SMOOTH",
"267 112 OFFCURVE",
"216 173 OFFCURVE",
"216 290 CURVE SMOOTH",
"216 516 OFFCURVE",
"343 732 OFFCURVE",
"609 732 CURVE SMOOTH",
"666 732 OFFCURVE",
"712 724 OFFCURVE",
"776 709 CURVE SMOOTH",
"818 699 OFFCURVE",
"853 744 OFFCURVE",
"853 780 CURVE SMOOTH",
"853 798 OFFCURVE",
"845 814 OFFCURVE",
"825 820 CURVE SMOOTH",
"765 839 OFFCURVE",
"688 848 OFFCURVE",
"631 848 CURVE SMOOTH",
"260 848 OFFCURVE",
"69 576 OFFCURVE",
"69 280 CURVE SMOOTH",
"69 100 OFFCURVE",
"175 -5 OFFCURVE",
"313 -5 CURVE SMOOTH",
"411 -5 OFFCURVE",
"483 49 OFFCURVE",
"531 150 CURVE",
"542 77 OFFCURVE",
"578 26 OFFCURVE",
"635 5 CURVE",
"594 -29 OFFCURVE",
"575 -69 OFFCURVE",
"575 -118 CURVE SMOOTH",
"575 -199 OFFCURVE",
"637 -254 OFFCURVE",
"729 -254 CURVE SMOOTH",
"750 -254 OFFCURVE",
"779 -250 OFFCURVE",
"796 -244 CURVE SMOOTH",
"833 -231 OFFCURVE",
"844 -210 OFFCURVE",
"843 -181 CURVE SMOOTH",
"842 -150 OFFCURVE",
"829 -140 OFFCURVE",
"790 -153 CURVE SMOOTH",
"772 -159 OFFCURVE",
"757 -160 OFFCURVE",
"743 -160 CURVE SMOOTH",
"712 -160 OFFCURVE",
"681 -142 OFFCURVE",
"681 -101 CURVE SMOOTH",
"681 -65 OFFCURVE",
"707 -35 OFFCURVE",
"768 0 CURVE SMOOTH",
"813 26 OFFCURVE",
"860 59 OFFCURVE",
"909 116 CURVE SMOOTH",
"927 136 OFFCURVE",
"928 159 OFFCURVE",
"928 178 CURVE SMOOTH",
"928 205 OFFCURVE",
"918 223 OFFCURVE",
"900 223 CURVE SMOOTH"
);
}
);
width = 794;
}
);
leftKerningGroup = A;
rightKerningGroup = N;
unicode = 0104;
},
{
color = 3;
glyphname = AE;
lastChange = "2016-07-29 22:36:56 +0000";
layers = (
{
anchors = (
{
name = bottom;
position = "{589, 0}";
},
{
name = top;
position = "{716, 840}";
}
);
background = {
paths = (
{
closed = 1;
nodes = (
"1638 -5 OFFCURVE",
"1733 64 OFFCURVE",
"1787 237 CURVE",
"1883 626 LINE",
"1763 431 LINE",
"1715 257 OFFCURVE",
"1658 112 OFFCURVE",
"1537 112 CURVE SMOOTH",
"1467 112 OFFCURVE",
"1416 174 OFFCURVE",
"1416 290 CURVE SMOOTH",
"1416 514 OFFCURVE",
"1536 704 OFFCURVE",
"1772 730 CURVE SMOOTH",
"1799 733 OFFCURVE",
"1810 754 OFFCURVE",
"1810 780 CURVE SMOOTH",
"1810 821 OFFCURVE",
"1791 850 OFFCURVE",
"1724 842 CURVE SMOOTH",
"1460 810 OFFCURVE",
"1269 576 OFFCURVE",
"1269 280 CURVE SMOOTH",
"1269 100 OFFCURVE",
"1375 -5 OFFCURVE",
"1525 -5 CURVE SMOOTH"
);
},
{
closed = 1;
nodes = (
"2143 -5 OFFCURVE",
"2253 27 OFFCURVE",
"2312 69 CURVE",
"2304 182 LINE",
"2217 139 OFFCURVE",
"2147 115 OFFCURVE",
"2075 115 CURVE SMOOTH",
"1906 115 OFFCURVE",
"1865 212 OFFCURVE",
"1899 361 CURVE",
"2008 363 OFFCURVE",
"2062 366 OFFCURVE",
"2157 368 CURVE SMOOTH",
"2200 369 OFFCURVE",
"2223 401 OFFCURVE",
"2223 441 CURVE SMOOTH",
"2223 471 OFFCURVE",
"2212 490 OFFCURVE",
"2170 490 CURVE SMOOTH",
"2092 490 OFFCURVE",
"2012 486 OFFCURVE",
"1923 483 CURVE",
"1939 556 OFFCURVE",
"1961 650 OFFCURVE",
"1981 710 CURVE",
"2022 715 OFFCURVE",
"2129 720 OFFCURVE",
"2221 720 CURVE SMOOTH",
"2273 720 OFFCURVE",
"2293 759 OFFCURVE",
"2293 795 CURVE SMOOTH",
"2293 832 OFFCURVE",
"2278 849 OFFCURVE",
"2229 849 CURVE SMOOTH",
"2133 849 OFFCURVE",
"2063 844 OFFCURVE",
"1979 840 CURVE SMOOTH",
"1912 837 OFFCURVE",
"1864 801 OFFCURVE",
"1844 727 CURVE SMOOTH",
"1763 431 LINE",
"1754 264 LINE",
"1748 121 OFFCURVE",
"1830 -5 OFFCURVE",
"2052 -5 CURVE SMOOTH"
);
},
{
closed = 1;
nodes = (
"870 -5 OFFCURVE",
"1010 18 OFFCURVE",
"1090 56 CURVE SMOOTH",
"1139 79 OFFCURVE",
"1154 107 OFFCURVE",
"1154 145 CURVE SMOOTH",
"1154 177 OFFCURVE",
"1137 199 OFFCURVE",
"1097 182 CURVE SMOOTH",
"1016 148 OFFCURVE",
"880 115 OFFCURVE",
"763 115 CURVE SMOOTH",
"590 115 OFFCURVE",
"521 160 OFFCURVE",
"521 240 CURVE SMOOTH",
"521 309 OFFCURVE",
"586 382 OFFCURVE",
"762 386 CURVE SMOOTH",
"810 387 OFFCURVE",
"821 417 OFFCURVE",
"822 449 CURVE SMOOTH",
"823 480 OFFCURVE",
"813 492 OFFCURVE",
"782 493 CURVE SMOOTH",
"657 497 OFFCURVE",
"618 548 OFFCURVE",
"618 604 CURVE SMOOTH",
"618 685 OFFCURVE",
"692 737 OFFCURVE",
"805 737 CURVE SMOOTH",
"895 737 OFFCURVE",
"922 698 OFFCURVE",
"922 656 CURVE SMOOTH",
"922 621 OFFCURVE",
"912 603 OFFCURVE",
"912 574 CURVE SMOOTH",
"912 540 OFFCURVE",
"936 524 OFFCURVE",
"972 524 CURVE SMOOTH",
"1026 524 OFFCURVE",
"1055 579 OFFCURVE",
"1055 656 CURVE SMOOTH",
"1055 762 OFFCURVE",
"980 848 OFFCURVE",
"807 848 CURVE SMOOTH",
"624 848 OFFCURVE",
"470 753 OFFCURVE",
"470 605 CURVE SMOOTH",
"470 527 OFFCURVE",
"525 450 OFFCURVE",
"636 441 CURVE",
"647 460 LINE",
"464 432 OFFCURVE",
"373 341 OFFCURVE",
"373 215 CURVE SMOOTH",
"373 92 OFFCURVE",
"492 -5 OFFCURVE",
"752 -5 CURVE SMOOTH"
);
}
);
};
guideLines = (
{
angle = 254.6088;
position = "{607, 602}";
}
);
layerId = "ECEFE970-1BBB-4E0A-A452-CEB55884B4A3";
paths = (
{
closed = 1;
nodes = (
"438 -5 OFFCURVE",
"533 64 OFFCURVE",
"587 237 CURVE",
"683 626 LINE",
"563 431 LINE",
"515 257 OFFCURVE",
"458 112 OFFCURVE",
"337 112 CURVE SMOOTH",
"267 112 OFFCURVE",
"216 174 OFFCURVE",
"216 290 CURVE SMOOTH",
"216 514 OFFCURVE",
"336 704 OFFCURVE",
"572 730 CURVE SMOOTH",
"599 733 OFFCURVE",
"610 754 OFFCURVE",
"610 780 CURVE SMOOTH",
"610 821 OFFCURVE",
"591 850 OFFCURVE",
"524 842 CURVE SMOOTH",
"260 810 OFFCURVE",
"69 576 OFFCURVE",
"69 280 CURVE SMOOTH",
"69 100 OFFCURVE",
"175 -5 OFFCURVE",
"325 -5 CURVE SMOOTH"
);
},
{
closed = 1;
nodes = (
"943 -5 OFFCURVE",
"1053 27 OFFCURVE",
"1112 69 CURVE SMOOTH",
"1145 93 OFFCURVE",
"1154 118 OFFCURVE",
"1154 146 CURVE SMOOTH",
"1154 176 OFFCURVE",
"1135 198 OFFCURVE",
"1104 182 CURVE SMOOTH",
"1017 139 OFFCURVE",
"947 115 OFFCURVE",
"875 115 CURVE SMOOTH",
"706 115 OFFCURVE",
"665 212 OFFCURVE",
"699 361 CURVE",
"808 363 OFFCURVE",
"862 366 OFFCURVE",
"957 368 CURVE SMOOTH",
"1000 369 OFFCURVE",
"1023 401 OFFCURVE",
"1023 441 CURVE SMOOTH",
"1023 471 OFFCURVE",
"1012 490 OFFCURVE",
"970 490 CURVE SMOOTH",
"892 490 OFFCURVE",
"812 486 OFFCURVE",
"723 483 CURVE",
"739 556 OFFCURVE",
"761 650 OFFCURVE",
"781 710 CURVE",
"822 715 OFFCURVE",
"929 720 OFFCURVE",
"1021 720 CURVE SMOOTH",
"1073 720 OFFCURVE",
"1093 759 OFFCURVE",
"1093 795 CURVE SMOOTH",
"1093 832 OFFCURVE",
"1078 849 OFFCURVE",
"1029 849 CURVE SMOOTH",
"933 849 OFFCURVE",
"863 844 OFFCURVE",
"779 840 CURVE SMOOTH",
"712 837 OFFCURVE",
"664 801 OFFCURVE",
"644 727 CURVE SMOOTH",
"563 431 LINE",
"554 264 LINE",
"548 121 OFFCURVE",
"630 -5 OFFCURVE",
"852 -5 CURVE SMOOTH"
);
}
);
width = 1033;
}
);
leftMetricsKey = A;
note = AE;
unicode = 00C6;
},
{
color = 3;
glyphname = B;
lastChange = "2016-07-29 13:46:07 +0000";
layers = (
{
background = {
paths = (
{
closed = 1;
nodes = (
"612 3 OFFCURVE",
"764 104 OFFCURVE",
"764 261 CURVE SMOOTH",
"764 338 OFFCURVE",
"707 402 OFFCURVE",
"587 414 CURVE",
"586 395 LINE",
"775 423 OFFCURVE",
"873 516 OFFCURVE",
"873 640 CURVE SMOOTH",
"873 765 OFFCURVE",
"767 862 OFFCURVE",
"514 862 CURVE SMOOTH",
"357 862 OFFCURVE",
"198 825 OFFCURVE",
"93 764 CURVE SMOOTH",
"28 726 OFFCURVE",
"25 704 OFFCURVE",
"25 676 CURVE SMOOTH",
"25 642 OFFCURVE",
"49 611 OFFCURVE",
"123 655 CURVE SMOOTH",
"202 702 OFFCURVE",
"341 748 OFFCURVE",
"493 748 CURVE SMOOTH",
"657 748 OFFCURVE",
"725 696 OFFCURVE",
"725 623 CURVE SMOOTH",
"725 529 OFFCURVE",
"614 471 OFFCURVE",
"473 468 CURVE SMOOTH",
"428 467 OFFCURVE",
"418 438 OFFCURVE",
"417 406 CURVE SMOOTH",
"416 377 OFFCURVE",
"425 364 OFFCURVE",
"453 363 CURVE SMOOTH",
"581 359 OFFCURVE",
"616 307 OFFCURVE",
"616 256 CURVE SMOOTH",
"616 179 OFFCURVE",
"544 112 OFFCURVE",
"345 112 CURVE SMOOTH",
"301 112 OFFCURVE",
"253 117 OFFCURVE",
"228 119 CURVE",
"226 9 LINE",
"244 7 OFFCURVE",
"282 3 OFFCURVE",
"341 3 CURVE SMOOTH"
);
},
{
closed = 1;
nodes = (
"224 -50 OFFCURVE",
"261 -33 OFFCURVE",
"261 8 CURVE SMOOTH",
"261 15 OFFCURVE",
"263 39 OFFCURVE",
"263 47 CURVE SMOOTH",
"270 227 OFFCURVE",
"319 472 OFFCURVE",
"356 582 CURVE SMOOTH",
"361 597 OFFCURVE",
"362 603 OFFCURVE",
"362 614 CURVE SMOOTH",
"362 641 OFFCURVE",
"335 650 OFFCURVE",
"301 650 CURVE SMOOTH",
"260 650 OFFCURVE",
"228 639 OFFCURVE",
"218 603 CURVE SMOOTH",
"165 411 OFFCURVE",
"129 199 OFFCURVE",
"117 13 CURVE SMOOTH",
"114 -26 OFFCURVE",
"127 -50 OFFCURVE",
"178 -50 CURVE SMOOTH"
);
}
);
};
layerId = "ECEFE970-1BBB-4E0A-A452-CEB55884B4A3";
paths = (
{
closed = 1;
nodes = (
"612 3 OFFCURVE",
"764 104 OFFCURVE",
"764 261 CURVE SMOOTH",
"764 338 OFFCURVE",
"707 402 OFFCURVE",
"587 414 CURVE",
"586 395 LINE",
"775 423 OFFCURVE",
"873 516 OFFCURVE",
"873 640 CURVE SMOOTH",
"873 765 OFFCURVE",
"767 862 OFFCURVE",
"514 862 CURVE SMOOTH",
"357 862 OFFCURVE",
"198 825 OFFCURVE",
"86 760 CURVE SMOOTH",
"28 726 OFFCURVE",
"25 704 OFFCURVE",
"25 676 CURVE SMOOTH",
"25 642 OFFCURVE",
"49 611 OFFCURVE",
"116 651 CURVE SMOOTH",
"202 702 OFFCURVE",
"341 748 OFFCURVE",
"493 748 CURVE SMOOTH",
"657 748 OFFCURVE",
"725 696 OFFCURVE",
"725 623 CURVE SMOOTH",
"725 529 OFFCURVE",
"614 471 OFFCURVE",
"473 468 CURVE SMOOTH",
"428 467 OFFCURVE",
"418 438 OFFCURVE",
"417 406 CURVE SMOOTH",
"416 377 OFFCURVE",
"425 364 OFFCURVE",
"453 363 CURVE SMOOTH",
"581 359 OFFCURVE",
"616 307 OFFCURVE",
"616 256 CURVE SMOOTH",
"616 179 OFFCURVE",
"544 112 OFFCURVE",
"345 112 CURVE SMOOTH",
"301 112 OFFCURVE",
"253 117 OFFCURVE",
"228 119 CURVE",
"226 9 LINE",
"244 7 OFFCURVE",
"282 3 OFFCURVE",
"341 3 CURVE SMOOTH"
);
},
{
closed = 1;
nodes = (
"224 -50 OFFCURVE",
"261 -33 OFFCURVE",
"261 8 CURVE SMOOTH",
"261 15 OFFCURVE",
"263 39 OFFCURVE",
"263 47 CURVE SMOOTH",
"270 227 OFFCURVE",
"319 472 OFFCURVE",
"356 582 CURVE SMOOTH",
"361 597 OFFCURVE",
"362 603 OFFCURVE",
"362 614 CURVE SMOOTH",
"362 641 OFFCURVE",
"335 648 OFFCURVE",
"301 648 CURVE SMOOTH",
"260 648 OFFCURVE",
"228 639 OFFCURVE",
"218 603 CURVE SMOOTH",
"165 411 OFFCURVE",
"129 199 OFFCURVE",
"117 13 CURVE SMOOTH",
"114 -26 OFFCURVE",
"127 -50 OFFCURVE",
"178 -50 CURVE SMOOTH"
);
}
);
width = 827;
}
);
note = B;
unicode = 0042;
},
{
color = 3;
glyphname = C;
lastChange = "2016-07-29 22:37:43 +0000";
layers = (
{
anchors = (
{
name = bottom;
position = "{389, 0}";
},
{
name = top;
position = "{485, 840}";
}
);
background = {
paths = (
{
closed = 1;
nodes = (
"1561 -5 OFFCURVE",
"1669 15 OFFCURVE",
"1781 69 CURVE",
"1772 190 LINE",
"1669 142 OFFCURVE",
"1571 115 OFFCURVE",
"1481 115 CURVE SMOOTH",
"1304 115 OFFCURVE",
"1216 208 OFFCURVE",
"1216 366 CURVE SMOOTH",
"1216 606 OFFCURVE",
"1348 734 OFFCURVE",
"1476 734 CURVE SMOOTH",
"1546 734 OFFCURVE",
"1573 698 OFFCURVE",
"1573 643 CURVE SMOOTH",
"1573 611 OFFCURVE",
"1563 584 OFFCURVE",
"1563 562 CURVE SMOOTH",
"1563 528 OFFCURVE",
"1587 510 OFFCURVE",
"1623 510 CURVE SMOOTH",
"1677 510 OFFCURVE",
"1706 567 OFFCURVE",
"1706 646 CURVE SMOOTH",
"1706 762 OFFCURVE",
"1635 848 OFFCURVE",
"1486 848 CURVE SMOOTH",
"1254 848 OFFCURVE",
"1069 649 OFFCURVE",
"1069 348 CURVE SMOOTH",
"1069 134 OFFCURVE",
"1217 -5 OFFCURVE",
"1458 -5 CURVE SMOOTH"
);
},
{
closed = 1;
nodes = (
"533 -5 OFFCURVE",
"673 18 OFFCURVE",
"753 56 CURVE SMOOTH",
"802 79 OFFCURVE",
"817 107 OFFCURVE",
"817 145 CURVE SMOOTH",
"817 177 OFFCURVE",
"800 199 OFFCURVE",
"760 182 CURVE SMOOTH",
"679 148 OFFCURVE",
"543 115 OFFCURVE",
"426 115 CURVE SMOOTH",
"253 115 OFFCURVE",
"184 160 OFFCURVE",
"184 240 CURVE SMOOTH",
"184 309 OFFCURVE",
"249 382 OFFCURVE",
"425 386 CURVE SMOOTH",
"473 387 OFFCURVE",
"484 417 OFFCURVE",
"485 449 CURVE SMOOTH",
"486 480 OFFCURVE",
"476 492 OFFCURVE",
"445 493 CURVE SMOOTH",
"320 497 OFFCURVE",
"281 548 OFFCURVE",
"281 604 CURVE SMOOTH",
"281 685 OFFCURVE",
"355 737 OFFCURVE",
"468 737 CURVE SMOOTH",
"558 737 OFFCURVE",
"585 698 OFFCURVE",
"585 656 CURVE SMOOTH",
"585 621 OFFCURVE",
"575 603 OFFCURVE",
"575 574 CURVE SMOOTH",
"575 540 OFFCURVE",
"599 524 OFFCURVE",
"635 524 CURVE SMOOTH",
"689 524 OFFCURVE",
"718 579 OFFCURVE",
"718 656 CURVE SMOOTH",
"718 762 OFFCURVE",
"643 848 OFFCURVE",
"470 848 CURVE SMOOTH",
"287 848 OFFCURVE",
"133 753 OFFCURVE",
"133 605 CURVE SMOOTH",
"133 527 OFFCURVE",
"188 450 OFFCURVE",
"299 441 CURVE",
"310 460 LINE",
"127 432 OFFCURVE",
"36 341 OFFCURVE",
"36 215 CURVE SMOOTH",
"36 92 OFFCURVE",
"155 -5 OFFCURVE",
"415 -5 CURVE SMOOTH"
);
}
);
};
layerId = "ECEFE970-1BBB-4E0A-A452-CEB55884B4A3";
paths = (
{
closed = 1;
nodes = (
"543 -5 OFFCURVE",
"650 11 OFFCURVE",
"751 55 CURVE SMOOTH",
"799 76 OFFCURVE",
"817 107 OFFCURVE",
"817 145 CURVE SMOOTH",
"817 177 OFFCURVE",
"800 199 OFFCURVE",
"760 182 CURVE SMOOTH",
"656 138 OFFCURVE",
"571 115 OFFCURVE",
"481 115 CURVE SMOOTH",
"304 115 OFFCURVE",
"216 208 OFFCURVE",
"216 366 CURVE SMOOTH",
"216 606 OFFCURVE",
"348 734 OFFCURVE",
"476 734 CURVE SMOOTH",
"546 734 OFFCURVE",
"573 698 OFFCURVE",
"573 643 CURVE SMOOTH",
"573 611 OFFCURVE",
"563 584 OFFCURVE",
"563 562 CURVE SMOOTH",
"563 528 OFFCURVE",
"587 511 OFFCURVE",
"623 511 CURVE SMOOTH",
"677 511 OFFCURVE",
"706 567 OFFCURVE",
"706 646 CURVE SMOOTH",
"706 762 OFFCURVE",
"635 848 OFFCURVE",
"486 848 CURVE SMOOTH",
"254 848 OFFCURVE",
"69 649 OFFCURVE",
"69 348 CURVE SMOOTH",
"69 134 OFFCURVE",
"217 -5 OFFCURVE",
"458 -5 CURVE SMOOTH"
);
}
);
width = 671;
}
);
leftKerningGroup = C;
note = C;
rightKerningGroup = C;
unicode = 0043;
},
{
color = 3;
glyphname = D;
lastChange = "2016-07-30 21:04:23 +0000";
layers = (
{
anchors = (
{
name = bottom;
position = "{345, 0}";
},
{
name = center;
position = "{432, 420}";
},
{
name = top;
position = "{455, 840}";
}
);
background = {
paths = (
{
closed = 1;
nodes = (
"644 -5 OFFCURVE",
"830 194 OFFCURVE",
"830 495 CURVE SMOOTH",
"830 729 OFFCURVE",
"678 860 OFFCURVE",
"434 860 CURVE SMOOTH",
"327 860 OFFCURVE",
"190 830 OFFCURVE",
"93 764 CURVE SMOOTH",
"26 718 OFFCURVE",
"45 604 OFFCURVE",
"123 655 CURVE SMOOTH",
"202 706 OFFCURVE",
"311 746 OFFCURVE",
"423 746 CURVE SMOOTH",
"589 746 OFFCURVE",
"683 655 OFFCURVE",
"683 497 CURVE SMOOTH",
"683 273 OFFCURVE",
"579 108 OFFCURVE",
"335 108 CURVE SMOOTH",
"319 108 OFFCURVE",
"287 109 OFFCURVE",
"267 111 CURVE",
"282 279 OFFCURVE",
"322 479 OFFCURVE",
"356 582 CURVE SMOOTH",
"361 597 OFFCURVE",
"362 603 OFFCURVE",
"362 614 CURVE SMOOTH",
"362 641 OFFCURVE",
"335 650 OFFCURVE",
"301 650 CURVE SMOOTH",
"260 650 OFFCURVE",
"228 639 OFFCURVE",
"218 603 CURVE SMOOTH",
"165 411 OFFCURVE",
"131 199 OFFCURVE",
"122 78 CURVE SMOOTH",
"119 29 OFFCURVE",
"137 12 OFFCURVE",
"190 5 CURVE SMOOTH",
"241 -2 OFFCURVE",
"280 -5 OFFCURVE",
"321 -5 CURVE SMOOTH"
);
}
);
};
layerId = "ECEFE970-1BBB-4E0A-A452-CEB55884B4A3";
paths = (
{
closed = 1;
nodes = (
"644 -5 OFFCURVE",
"830 194 OFFCURVE",
"830 495 CURVE SMOOTH",
"830 729 OFFCURVE",
"678 860 OFFCURVE",
"434 860 CURVE SMOOTH",
"327 860 OFFCURVE",
"190 830 OFFCURVE",
"93 764 CURVE SMOOTH",
"67 746 OFFCURVE",
"58 727 OFFCURVE",
"58 696 CURVE SMOOTH",
"58 659 OFFCURVE",
"84 630 OFFCURVE",
"123 655 CURVE SMOOTH",
"202 706 OFFCURVE",
"311 746 OFFCURVE",
"423 746 CURVE SMOOTH",
"589 746 OFFCURVE",
"683 655 OFFCURVE",
"683 497 CURVE SMOOTH",
"683 273 OFFCURVE",
"579 108 OFFCURVE",
"335 108 CURVE SMOOTH",
"319 108 OFFCURVE",
"287 109 OFFCURVE",
"267 111 CURVE",
"282 279 OFFCURVE",
"322 479 OFFCURVE",
"356 582 CURVE SMOOTH",
"361 597 OFFCURVE",
"362 603 OFFCURVE",
"362 614 CURVE SMOOTH",
"362 641 OFFCURVE",
"335 648 OFFCURVE",
"301 648 CURVE SMOOTH",
"260 648 OFFCURVE",
"228 639 OFFCURVE",
"218 603 CURVE SMOOTH",
"165 411 OFFCURVE",
"131 199 OFFCURVE",
"122 78 CURVE SMOOTH",
"119 29 OFFCURVE",
"137 12 OFFCURVE",
"190 5 CURVE SMOOTH",
"241 -2 OFFCURVE",
"280 -5 OFFCURVE",
"321 -5 CURVE SMOOTH"
);
}
);
width = 843;
}
);
leftKerningGroup = D;
note = D;
rightKerningGroup = O;
rightMetricsKey = O;
unicode = 0044;
},
{
color = 3;
glyphname = Eth;
lastChange = "2016-07-30 21:04:31 +0000";
layers = (
{
background = {
paths = (
{
closed = 1;
nodes = (
"634 -5 OFFCURVE",
"820 209 OFFCURVE",
"820 494 CURVE SMOOTH",
"820 714 OFFCURVE",
"683 860 OFFCURVE",
"441 860 CURVE SMOOTH",
"389 860 OFFCURVE",
"345 857 OFFCURVE",
"308 848 CURVE SMOOTH",
"280 841 OFFCURVE",
"268 823 OFFCURVE",
"260 798 CURVE SMOOTH",
"188 579 OFFCURVE",
"127 314 OFFCURVE",
"106 78 CURVE SMOOTH",
"102 29 OFFCURVE",
"121 12 OFFCURVE",
"172 5 CURVE SMOOTH",
"223 -2 OFFCURVE",
"255 -5 OFFCURVE",
"311 -5 CURVE SMOOTH"
);
},
{
closed = 1;
nodes = (
"508 381 OFFCURVE",
"517 414 OFFCURVE",
"517 448 CURVE SMOOTH",
"517 484 OFFCURVE",
"498 503 OFFCURVE",
"408 503 CURVE SMOOTH",
"324 503 OFFCURVE",
"297 505 OFFCURVE",
"155 505 CURVE SMOOTH",
"71 505 OFFCURVE",
"32 484 OFFCURVE",
"32 429 CURVE SMOOTH",
"32 404 OFFCURVE",
"44 383 OFFCURVE",
"82 383 CURVE SMOOTH",
"138 383 OFFCURVE",
"160 384 OFFCURVE",
"252 384 CURVE SMOOTH",
"306 384 OFFCURVE",
"399 381 OFFCURVE",
"454 381 CURVE SMOOTH"
);
},
{
closed = 1;
nodes = (
"303 112 OFFCURVE",
"278 113 OFFCURVE",
"257 115 CURVE",
"272 283 OFFCURVE",
"324 543 OFFCURVE",
"390 743 CURVE",
"401 744 OFFCURVE",
"412 744 OFFCURVE",
"428 744 CURVE SMOOTH",
"564 744 OFFCURVE",
"669 665 OFFCURVE",
"669 489 CURVE SMOOTH",
"669 286 OFFCURVE",
"565 112 OFFCURVE",
"324 112 CURVE SMOOTH"
);
}
);
};
layerId = "ECEFE970-1BBB-4E0A-A452-CEB55884B4A3";
paths = (
{
closed = 1;
nodes = (
"634 -5 OFFCURVE",
"820 209 OFFCURVE",
"820 494 CURVE SMOOTH",
"820 714 OFFCURVE",
"683 860 OFFCURVE",
"441 860 CURVE SMOOTH",
"389 860 OFFCURVE",
"345 857 OFFCURVE",
"308 848 CURVE SMOOTH",
"280 841 OFFCURVE",
"268 823 OFFCURVE",
"260 798 CURVE SMOOTH",
"188 579 OFFCURVE",
"127 314 OFFCURVE",
"106 78 CURVE SMOOTH",
"102 29 OFFCURVE",
"121 12 OFFCURVE",
"172 5 CURVE SMOOTH",
"223 -2 OFFCURVE",
"265 -5 OFFCURVE",
"311 -5 CURVE SMOOTH"
);
},
{
closed = 1;
nodes = (
"508 381 OFFCURVE",
"517 414 OFFCURVE",
"517 448 CURVE SMOOTH",
"517 484 OFFCURVE",
"498 503 OFFCURVE",
"408 503 CURVE SMOOTH",
"324 503 OFFCURVE",
"297 505 OFFCURVE",
"155 505 CURVE SMOOTH",
"71 505 OFFCURVE",
"32 484 OFFCURVE",
"32 429 CURVE SMOOTH",
"32 404 OFFCURVE",
"44 383 OFFCURVE",
"82 383 CURVE SMOOTH",
"138 383 OFFCURVE",
"160 384 OFFCURVE",
"252 384 CURVE SMOOTH",
"306 384 OFFCURVE",
"399 381 OFFCURVE",
"454 381 CURVE SMOOTH"
);
},
{
closed = 1;
nodes = (
"303 108 OFFCURVE",
"272 109 OFFCURVE",
"251 111 CURVE",
"266 279 OFFCURVE",
"318 547 OFFCURVE",
"384 747 CURVE",
"395 748 OFFCURVE",
"412 748 OFFCURVE",
"428 748 CURVE SMOOTH",
"568 748 OFFCURVE",
"673 669 OFFCURVE",
"673 489 CURVE SMOOTH",
"673 286 OFFCURVE",
"569 108 OFFCURVE",
"324 108 CURVE SMOOTH"
);
}
);
width = 834;
}
);
note = Eth;
rightKerningGroup = O;
rightMetricsKey = D.ss01;
unicode = 00D0;
},
{
color = 3;
glyphname = E;
lastChange = "2016-07-30 21:04:08 +0000";
layers = (
{
anchors = (
{
name = bottom;
position = "{381, 0}";
},
{
name = ogonek;
position = "{515, 10}";
},
{
name = top;
position = "{475, 840}";
},
{
name = topleft;
position = "{53, 840}";
}
);
background = {
paths = (
{
closed = 1;
nodes = (
"537 -5 OFFCURVE",
"677 15 OFFCURVE",
"789 69 CURVE",
"780 190 LINE",
"683 145 OFFCURVE",
"547 115 OFFCURVE",
"430 115 CURVE SMOOTH",
"257 115 OFFCURVE",
"188 160 OFFCURVE",
"188 240 CURVE SMOOTH",
"188 309 OFFCURVE",
"253 382 OFFCURVE",
"429 386 CURVE SMOOTH",
"477 387 OFFCURVE",
"488 417 OFFCURVE",
"489 449 CURVE SMOOTH",
"490 480 OFFCURVE",
"480 492 OFFCURVE",
"449 493 CURVE SMOOTH",
"324 497 OFFCURVE",
"285 548 OFFCURVE",
"285 604 CURVE SMOOTH",
"285 685 OFFCURVE",
"359 737 OFFCURVE",
"472 737 CURVE SMOOTH",
"562 737 OFFCURVE",
"589 698 OFFCURVE",
"589 656 CURVE SMOOTH",
"589 621 OFFCURVE",
"579 603 OFFCURVE",
"579 574 CURVE SMOOTH",
"579 540 OFFCURVE",
"603 522 OFFCURVE",
"639 522 CURVE SMOOTH",
"693 522 OFFCURVE",
"722 579 OFFCURVE",
"722 656 CURVE SMOOTH",
"722 762 OFFCURVE",
"647 848 OFFCURVE",
"474 848 CURVE SMOOTH",
"291 848 OFFCURVE",
"137 753 OFFCURVE",
"137 605 CURVE SMOOTH",
"137 527 OFFCURVE",
"192 450 OFFCURVE",
"303 441 CURVE",
"314 460 LINE",
"131 432 OFFCURVE",
"40 341 OFFCURVE",
"40 215 CURVE SMOOTH",
"40 92 OFFCURVE",
"159 -5 OFFCURVE",
"419 -5 CURVE SMOOTH"
);
}
);
};
layerId = "ECEFE970-1BBB-4E0A-A452-CEB55884B4A3";
paths = (
{
closed = 1;
nodes = (
"537 -5 OFFCURVE",
"677 18 OFFCURVE",
"757 56 CURVE SMOOTH",
"806 80 OFFCURVE",
"821 107 OFFCURVE",
"821 145 CURVE SMOOTH",
"821 177 OFFCURVE",
"804 199 OFFCURVE",
"764 182 CURVE SMOOTH",
"683 148 OFFCURVE",
"547 115 OFFCURVE",
"430 115 CURVE SMOOTH",
"257 115 OFFCURVE",
"188 160 OFFCURVE",
"188 240 CURVE SMOOTH",
"188 309 OFFCURVE",
"253 382 OFFCURVE",
"429 386 CURVE SMOOTH",
"477 387 OFFCURVE",
"488 417 OFFCURVE",
"489 449 CURVE SMOOTH",
"490 480 OFFCURVE",
"480 492 OFFCURVE",
"449 493 CURVE SMOOTH",
"324 497 OFFCURVE",
"285 548 OFFCURVE",
"285 604 CURVE SMOOTH",
"285 685 OFFCURVE",
"359 737 OFFCURVE",
"472 737 CURVE SMOOTH",
"562 737 OFFCURVE",
"589 698 OFFCURVE",
"589 656 CURVE SMOOTH",
"589 621 OFFCURVE",
"579 603 OFFCURVE",
"579 574 CURVE SMOOTH",
"579 540 OFFCURVE",
"603 524 OFFCURVE",
"639 524 CURVE SMOOTH",
"693 524 OFFCURVE",
"722 579 OFFCURVE",
"722 656 CURVE SMOOTH",
"722 762 OFFCURVE",
"647 848 OFFCURVE",
"474 848 CURVE SMOOTH",
"291 848 OFFCURVE",
"137 753 OFFCURVE",
"137 605 CURVE SMOOTH",
"137 527 OFFCURVE",
"192 450 OFFCURVE",
"303 441 CURVE",
"314 460 LINE",
"131 432 OFFCURVE",
"40 341 OFFCURVE",
"40 215 CURVE SMOOTH",
"40 92 OFFCURVE",
"159 -5 OFFCURVE",
"419 -5 CURVE SMOOTH"
);
}
);
width = 679;
}
);
leftKerningGroup = E;
note = E;
rightKerningGroup = E;
unicode = 0045;
},
{
color = 3;
glyphname = F;
lastChange = "2016-07-30 21:04:01 +0000";
layers = (
{
background = {
paths = (
{
closed = 1;
nodes = (
"377 -8 OFFCURVE",
"473 69 OFFCURVE",
"502 297 CURVE SMOOTH",
"531 521 OFFCURVE",
"536 593 OFFCURVE",
"550 765 CURVE",
"410 754 LINE",
"397 601 OFFCURVE",
"389 525 OFFCURVE",
"361 285 CURVE SMOOTH",
"345 148 OFFCURVE",
"289 93 OFFCURVE",
"218 92 CURVE SMOOTH",
"156 91 OFFCURVE",
"117 129 OFFCURVE",
"97 155 CURVE SMOOTH",
"72 187 OFFCURVE",
"59 194 OFFCURVE",
"44 194 CURVE SMOOTH",
"9 194 OFFCURVE",
"-10 132 OFFCURVE",
"15 93 CURVE SMOOTH",
"49 40 OFFCURVE",
"129 -8 OFFCURVE",
"224 -8 CURVE SMOOTH"
);
},
{
closed = 1;
nodes = (
"481 341 OFFCURVE",
"542 340 OFFCURVE",
"679 340 CURVE SMOOTH",
"730 340 OFFCURVE",
"756 369 OFFCURVE",
"756 413 CURVE SMOOTH",
"756 438 OFFCURVE",
"748 461 OFFCURVE",
"694 461 CURVE SMOOTH",
"651 461 OFFCURVE",
"362 454 OFFCURVE",
"326 454 CURVE SMOOTH",
"285 454 OFFCURVE",
"263 431 OFFCURVE",
"263 390 CURVE SMOOTH",
"263 356 OFFCURVE",
"290 340 OFFCURVE",
"319 340 CURVE SMOOTH"
);
},
{
closed = 1;
nodes = (
"174 460 OFFCURVE",
"259 504 OFFCURVE",
"231 548 CURVE SMOOTH",
"222 562 OFFCURVE",
"211 585 OFFCURVE",
"211 613 CURVE SMOOTH",
"211 698 OFFCURVE",
"299 728 OFFCURVE",
"592 728 CURVE SMOOTH",
"701 728 OFFCURVE",
"763 722 OFFCURVE",
"867 714 CURVE SMOOTH",
"921 710 OFFCURVE",
"944 737 OFFCURVE",
"944 778 CURVE SMOOTH",
"944 802 OFFCURVE",
"933 823 OFFCURVE",
"892 829 CURVE SMOOTH",
"798 842 OFFCURVE",
"710 847 OFFCURVE",
"592 847 CURVE SMOOTH",
"277 847 OFFCURVE",
"92 781 OFFCURVE",
"92 611 CURVE SMOOTH",
"92 556 OFFCURVE",
"112 513 OFFCURVE",
"126 501 CURVE SMOOTH"
);
}
);
};
layerId = "ECEFE970-1BBB-4E0A-A452-CEB55884B4A3";
paths = (
{
closed = 1;
nodes = (
"377 -8 OFFCURVE",
"473 69 OFFCURVE",
"502 297 CURVE SMOOTH",
"531 521 OFFCURVE",
"536 593 OFFCURVE",
"550 765 CURVE",
"410 754 LINE",
"397 601 OFFCURVE",
"389 525 OFFCURVE",
"361 285 CURVE SMOOTH",
"345 148 OFFCURVE",
"289 93 OFFCURVE",
"218 92 CURVE SMOOTH",
"156 91 OFFCURVE",
"117 129 OFFCURVE",
"97 155 CURVE SMOOTH",
"72 187 OFFCURVE",
"59 194 OFFCURVE",
"44 194 CURVE SMOOTH",
"9 194 OFFCURVE",
"-10 132 OFFCURVE",
"15 93 CURVE SMOOTH",
"49 40 OFFCURVE",
"129 -8 OFFCURVE",
"224 -8 CURVE SMOOTH"
);
},
{
closed = 1;
nodes = (
"481 341 OFFCURVE",
"542 340 OFFCURVE",
"679 340 CURVE SMOOTH",
"730 340 OFFCURVE",
"756 369 OFFCURVE",
"756 413 CURVE SMOOTH",
"756 438 OFFCURVE",
"748 461 OFFCURVE",
"694 461 CURVE SMOOTH",
"651 461 OFFCURVE",
"362 454 OFFCURVE",
"326 454 CURVE SMOOTH",
"285 454 OFFCURVE",
"263 431 OFFCURVE",
"263 390 CURVE SMOOTH",
"263 356 OFFCURVE",
"290 340 OFFCURVE",
"319 340 CURVE SMOOTH"
);
},
{
closed = 1;
nodes = (
"174 460 OFFCURVE",
"259 504 OFFCURVE",
"231 548 CURVE SMOOTH",
"222 562 OFFCURVE",
"211 585 OFFCURVE",
"211 613 CURVE SMOOTH",
"211 698 OFFCURVE",
"299 728 OFFCURVE",
"592 728 CURVE SMOOTH",
"701 728 OFFCURVE",
"763 722 OFFCURVE",
"867 714 CURVE SMOOTH",
"921 710 OFFCURVE",
"941 737 OFFCURVE",
"941 778 CURVE SMOOTH",
"941 802 OFFCURVE",
"933 823 OFFCURVE",
"892 829 CURVE SMOOTH",
"798 842 OFFCURVE",
"710 847 OFFCURVE",
"592 847 CURVE SMOOTH",
"277 847 OFFCURVE",
"92 781 OFFCURVE",
"92 611 CURVE SMOOTH",
"92 556 OFFCURVE",
"112 513 OFFCURVE",
"126 501 CURVE SMOOTH"
);
}
);
width = 712;
}
);
leftKerningGroup = F;
note = F;
rightKerningGroup = F;
unicode = 0046;
},
{
color = 3;
glyphname = G;
lastChange = "2016-07-29 22:40:27 +0000";
layers = (
{
anchors = (
{
name = bottom;
position = "{285, 22}";
},
{
name = top;
position = "{500, 840}";
}
);
background = {
paths = (
{
closed = 1;
nodes = (
"511 -5 OFFCURVE",
"565 11 OFFCURVE",
"618 37 CURVE",
"629 152 LINE",
"578 129 OFFCURVE",
"527 115 OFFCURVE",
"471 115 CURVE SMOOTH",
"304 115 OFFCURVE",
"216 208 OFFCURVE",
"216 366 CURVE SMOOTH",
"216 610 OFFCURVE",
"348 734 OFFCURVE",
"490 734 CURVE SMOOTH",
"574 734 OFFCURVE",
"601 698 OFFCURVE",
"601 646 CURVE SMOOTH",
"601 617 OFFCURVE",
"591 590 OFFCURVE",
"591 568 CURVE SMOOTH",
"591 537 OFFCURVE",
"615 519 OFFCURVE",
"651 519 CURVE SMOOTH",
"705 519 OFFCURVE",
"734 573 OFFCURVE",
"734 649 CURVE SMOOTH",
"734 762 OFFCURVE",
"663 848 OFFCURVE",
"500 848 CURVE SMOOTH",
"254 848 OFFCURVE",
"69 649 OFFCURVE",
"69 348 CURVE SMOOTH",
"69 134 OFFCURVE",
"220 -5 OFFCURVE",
"445 -5 CURVE SMOOTH"
);
},
{
closed = 1;
nodes = (
"605 -455 OFFCURVE",
"682 -201 OFFCURVE",
"727 102 CURVE SMOOTH",
"746 231 OFFCURVE",
"755 290 OFFCURVE",
"759 330 CURVE SMOOTH",
"763 368 OFFCURVE",
"737 386 OFFCURVE",
"711 386 CURVE SMOOTH",
"524 386 LINE SMOOTH",
"491 386 OFFCURVE",
"469 363 OFFCURVE",
"469 326 CURVE SMOOTH",
"469 283 OFFCURVE",
"491 268 OFFCURVE",
"527 268 CURVE SMOOTH",
"672 268 LINE",
"631 290 LINE",
"625 238 OFFCURVE",
"619 172 OFFCURVE",
"604 60 CURVE SMOOTH",
"560 -268 OFFCURVE",
"497 -358 OFFCURVE",
"461 -358 CURVE SMOOTH",
"440 -358 OFFCURVE",
"433 -341 OFFCURVE",
"433 -319 CURVE SMOOTH",
"433 -259 OFFCURVE",
"487 -167 OFFCURVE",
"666 -39 CURVE",
"734 8 OFFCURVE",
"815 64 OFFCURVE",
"896 118 CURVE",
"874 213 LINE",
"794 159 OFFCURVE",
"726 108 OFFCURVE",
"666 61 CURVE",
"387 -142 OFFCURVE",
"335 -247 OFFCURVE",
"335 -341 CURVE SMOOTH",
"335 -408 OFFCURVE",
"381 -455 OFFCURVE",
"450 -455 CURVE SMOOTH"
);
}
);
};
layerId = "ECEFE970-1BBB-4E0A-A452-CEB55884B4A3";
paths = (
{
closed = 1;
nodes = (
"511 -5 OFFCURVE",
"565 11 OFFCURVE",
"618 37 CURVE",
"629 152 LINE",
"578 129 OFFCURVE",
"527 115 OFFCURVE",
"471 115 CURVE SMOOTH",
"304 115 OFFCURVE",
"216 208 OFFCURVE",
"216 366 CURVE SMOOTH",
"216 610 OFFCURVE",
"348 734 OFFCURVE",
"490 734 CURVE SMOOTH",
"574 734 OFFCURVE",
"601 698 OFFCURVE",
"601 646 CURVE SMOOTH",
"601 617 OFFCURVE",
"591 590 OFFCURVE",
"591 568 CURVE SMOOTH",
"591 537 OFFCURVE",
"615 519 OFFCURVE",
"651 519 CURVE SMOOTH",
"705 519 OFFCURVE",
"734 573 OFFCURVE",
"734 649 CURVE SMOOTH",
"734 762 OFFCURVE",
"663 848 OFFCURVE",
"500 848 CURVE SMOOTH",
"254 848 OFFCURVE",
"69 649 OFFCURVE",
"69 348 CURVE SMOOTH",
"69 134 OFFCURVE",
"220 -5 OFFCURVE",
"445 -5 CURVE SMOOTH"
);
},
{
closed = 1;
nodes = (
"916 131 OFFCURVE",
"925 146 OFFCURVE",
"925 177 CURVE SMOOTH",
"925 201 OFFCURVE",
"915 221 OFFCURVE",
"897 221 CURVE SMOOTH",
"890 221 OFFCURVE",
"882 218 OFFCURVE",
"874 213 CURVE",
"794 159 OFFCURVE",
"726 108 OFFCURVE",
"666 61 CURVE",
"387 -142 OFFCURVE",
"335 -247 OFFCURVE",
"335 -341 CURVE SMOOTH",
"335 -408 OFFCURVE",
"381 -455 OFFCURVE",
"450 -455 CURVE SMOOTH",
"605 -455 OFFCURVE",
"682 -201 OFFCURVE",
"727 102 CURVE SMOOTH",
"746 231 OFFCURVE",
"755 290 OFFCURVE",
"759 330 CURVE SMOOTH",
"763 368 OFFCURVE",
"737 386 OFFCURVE",
"711 386 CURVE SMOOTH",
"524 386 LINE SMOOTH",
"491 386 OFFCURVE",
"469 363 OFFCURVE",
"469 326 CURVE SMOOTH",
"469 283 OFFCURVE",
"491 268 OFFCURVE",
"527 268 CURVE SMOOTH",
"672 268 LINE",
"631 290 LINE",
"625 238 OFFCURVE",
"619 172 OFFCURVE",
"604 60 CURVE SMOOTH",
"560 -268 OFFCURVE",
"497 -358 OFFCURVE",
"461 -358 CURVE SMOOTH",
"440 -358 OFFCURVE",
"433 -341 OFFCURVE",
"433 -319 CURVE SMOOTH",
"433 -259 OFFCURVE",
"487 -167 OFFCURVE",
"666 -39 CURVE",
"734 8 OFFCURVE",
"815 64 OFFCURVE",
"896 118 CURVE SMOOTH"
);
}
);
width = 802;
}
);
note = G;
unicode = 0047;
},
{
color = 3;
glyphname = H;
lastChange = "2016-07-30 21:03:39 +0000";
layers = (
{
anchors = (
{
name = bottom;
position = "{438, 0}";
},
{
name = center;
position = "{457, 420}";
},
{
name = top;
position = "{515, 840}";
},
{
name = topleft;
position = "{20, 840}";
}
);
background = {
paths = (
{
closed = 1;
nodes = (
"844 -5 OFFCURVE",
"914 49 OFFCURVE",
"969 116 CURVE",
"933 209 LINE",
"877 142 OFFCURVE",
"837 114 OFFCURVE",
"781 114 CURVE SMOOTH",
"724 114 OFFCURVE",
"682 159 OFFCURVE",
"682 307 CURVE SMOOTH",
"682 547 OFFCURVE",
"766 790 OFFCURVE",
"825 790 CURVE SMOOTH",
"841 790 OFFCURVE",
"853 773 OFFCURVE",
"853 741 CURVE SMOOTH",
"853 536 OFFCURVE",
"726 459 OFFCURVE",
"452 445 CURVE SMOOTH",
"308 438 OFFCURVE",
"181 433 OFFCURVE",
"163 432 CURVE SMOOTH",
"103 429 OFFCURVE",
"81 409 OFFCURVE",
"81 366 CURVE SMOOTH",
"81 331 OFFCURVE",
"101 317 OFFCURVE",
"144 317 CURVE SMOOTH",
"182 317 OFFCURVE",
"281 326 OFFCURVE",
"404 335 CURVE SMOOTH",
"797 364 OFFCURVE",
"938 518 OFFCURVE",
"938 734 CURVE SMOOTH",
"938 817 OFFCURVE",
"898 877 OFFCURVE",
"830 877 CURVE SMOOTH",
"644 877 OFFCURVE",
"545 519 OFFCURVE",
"545 285 CURVE SMOOTH",
"545 93 OFFCURVE",
"632 -5 OFFCURVE",
"758 -5 CURVE SMOOTH"
);
},
{
closed = 1;
nodes = (
"232 -7 OFFCURVE",
"261 15 OFFCURVE",
"277 80 CURVE SMOOTH",
"330 293 OFFCURVE",
"378 534 OFFCURVE",
"378 665 CURVE SMOOTH",
"378 794 OFFCURVE",
"325 848 OFFCURVE",
"242 848 CURVE SMOOTH",
"147 848 OFFCURVE",
"51 786 OFFCURVE",
"-5 708 CURVE SMOOTH",
"-64 626 OFFCURVE",
"-4 564 OFFCURVE",
"33 613 CURVE SMOOTH",
"92 691 OFFCURVE",
"145 730 OFFCURVE",
"191 730 CURVE SMOOTH",
"217 730 OFFCURVE",
"242 718 OFFCURVE",
"242 649 CURVE SMOOTH",
"242 531 OFFCURVE",
"189 293 OFFCURVE",
"138 87 CURVE SMOOTH",
"123 25 OFFCURVE",
"142 -7 OFFCURVE",
"197 -7 CURVE SMOOTH"
);
}
);
};
layerId = "ECEFE970-1BBB-4E0A-A452-CEB55884B4A3";
paths = (
{
closed = 1;
nodes = (
"232 -7 OFFCURVE",
"261 15 OFFCURVE",
"277 80 CURVE SMOOTH",
"330 293 OFFCURVE",
"378 534 OFFCURVE",
"378 665 CURVE SMOOTH",
"378 794 OFFCURVE",
"325 848 OFFCURVE",
"242 848 CURVE SMOOTH",
"147 848 OFFCURVE",
"51 786 OFFCURVE",
"-5 708 CURVE SMOOTH",
"-64 626 OFFCURVE",
"-4 564 OFFCURVE",
"33 613 CURVE SMOOTH",
"92 691 OFFCURVE",
"145 730 OFFCURVE",
"191 730 CURVE SMOOTH",
"217 730 OFFCURVE",
"242 718 OFFCURVE",
"242 649 CURVE SMOOTH",
"242 531 OFFCURVE",
"189 293 OFFCURVE",
"138 87 CURVE SMOOTH",
"123 25 OFFCURVE",
"142 -7 OFFCURVE",
"197 -7 CURVE SMOOTH"
);
},
{
closed = 1;
nodes = (
"877 142 OFFCURVE",
"837 114 OFFCURVE",
"781 114 CURVE SMOOTH",
"724 114 OFFCURVE",
"682 159 OFFCURVE",
"682 307 CURVE SMOOTH",
"682 547 OFFCURVE",
"766 790 OFFCURVE",
"825 790 CURVE SMOOTH",
"841 790 OFFCURVE",
"853 773 OFFCURVE",
"853 741 CURVE SMOOTH",
"853 536 OFFCURVE",
"726 459 OFFCURVE",
"452 445 CURVE SMOOTH",
"308 438 OFFCURVE",
"181 433 OFFCURVE",
"163 432 CURVE SMOOTH",
"103 429 OFFCURVE",
"81 409 OFFCURVE",
"81 366 CURVE SMOOTH",
"81 331 OFFCURVE",
"101 317 OFFCURVE",
"144 317 CURVE SMOOTH",
"182 317 OFFCURVE",
"281 326 OFFCURVE",
"404 335 CURVE SMOOTH",
"797 364 OFFCURVE",
"938 518 OFFCURVE",
"938 734 CURVE SMOOTH",
"938 817 OFFCURVE",
"898 877 OFFCURVE",
"830 877 CURVE SMOOTH",
"644 877 OFFCURVE",
"545 519 OFFCURVE",
"545 285 CURVE SMOOTH",
"545 93 OFFCURVE",
"632 -5 OFFCURVE",
"758 -5 CURVE SMOOTH",
"844 -5 OFFCURVE",
"914 49 OFFCURVE",
"969 116 CURVE SMOOTH",
"986 137 OFFCURVE",
"988 159 OFFCURVE",
"988 178 CURVE SMOOTH",
"988 205 OFFCURVE",
"978 223 OFFCURVE",
"960 223 CURVE SMOOTH",
"952 223 OFFCURVE",
"943 221 OFFCURVE",
"933 209 CURVE SMOOTH"
);
}
);
width = 854;
}
);
leftKerningGroup = H;
note = H;
rightKerningGroup = H;
unicode = 0048;
},
{
color = 3;
glyphname = Hbar;
lastChange = "2016-07-30 21:00:19 +0000";
layers = (
{
background = {
paths = (
{
closed = 1;
nodes = (
"172 366 OFFCURVE",
"354 370 OFFCURVE",
"424 370 CURVE SMOOTH",
"482 370 OFFCURVE",
"685 370 OFFCURVE",
"769 370 CURVE SMOOTH",
"839 370 OFFCURVE",
"854 399 OFFCURVE",
"854 440 CURVE SMOOTH",
"854 468 OFFCURVE",
"838 491 OFFCURVE",
"793 491 CURVE SMOOTH",
"750 491 OFFCURVE",
"583 488 OFFCURVE",
"442 486 CURVE SMOOTH",
"304 485 OFFCURVE",
"172 484 OFFCURVE",
"146 484 CURVE SMOOTH",
"81 484 OFFCURVE",
"62 455 OFFCURVE",
"62 411 CURVE SMOOTH",
"62 374 OFFCURVE",
"86 363 OFFCURVE",
"119 364 CURVE SMOOTH"
);
},
{
closed = 1;
nodes = (
"238 848 OFFCURVE",
"210 829 OFFCURVE",
"206 778 CURVE SMOOTH",
"202 715 OFFCURVE",
"184 576 OFFCURVE",
"168 486 CURVE SMOOTH",
"161 446 OFFCURVE",
"153 403 OFFCURVE",
"145 355 CURVE SMOOTH",
"124 228 OFFCURVE",
"103 105 OFFCURVE",
"103 55 CURVE SMOOTH",
"103 19 OFFCURVE",
"121 -5 OFFCURVE",
"172 -5 CURVE SMOOTH",
"216 -5 OFFCURVE",
"243 14 OFFCURVE",
"247 65 CURVE SMOOTH",
"252 128 OFFCURVE",
"270 267 OFFCURVE",
"285 357 CURVE SMOOTH",
"307 488 LINE SMOOTH",
"328 615 OFFCURVE",
"350 738 OFFCURVE",
"350 788 CURVE SMOOTH",
"350 824 OFFCURVE",
"333 848 OFFCURVE",
"287 848 CURVE SMOOTH"
);
},
{
closed = 1;
nodes = (
"695 848 OFFCURVE",
"667 829 OFFCURVE",
"663 778 CURVE SMOOTH",
"658 715 OFFCURVE",
"641 576 OFFCURVE",
"625 486 CURVE SMOOTH",
"618 446 OFFCURVE",
"610 403 OFFCURVE",
"602 355 CURVE SMOOTH",
"581 228 OFFCURVE",
"560 105 OFFCURVE",
"560 55 CURVE SMOOTH",
"560 19 OFFCURVE",
"578 -5 OFFCURVE",
"629 -5 CURVE SMOOTH",
"673 -5 OFFCURVE",
"700 14 OFFCURVE",
"704 65 CURVE SMOOTH",
"709 128 OFFCURVE",
"727 267 OFFCURVE",
"742 357 CURVE SMOOTH",
"764 488 LINE SMOOTH",
"785 615 OFFCURVE",
"807 738 OFFCURVE",
"807 788 CURVE SMOOTH",
"807 824 OFFCURVE",
"790 848 OFFCURVE",
"744 848 CURVE SMOOTH"
);
}
);
};
layerId = "ECEFE970-1BBB-4E0A-A452-CEB55884B4A3";
paths = (
{
closed = 1;
nodes = (
"673 -5 OFFCURVE",
"700 14 OFFCURVE",
"704 65 CURVE SMOOTH",
"709 128 OFFCURVE",
"727 267 OFFCURVE",
"742 357 CURVE SMOOTH",
"764 488 LINE SMOOTH",
"785 615 OFFCURVE",
"807 738 OFFCURVE",
"807 788 CURVE SMOOTH",
"807 824 OFFCURVE",
"790 848 OFFCURVE",
"744 848 CURVE SMOOTH",
"695 848 OFFCURVE",
"667 829 OFFCURVE",
"663 778 CURVE SMOOTH",
"658 715 OFFCURVE",
"641 576 OFFCURVE",
"625 486 CURVE SMOOTH",
"618 446 OFFCURVE",
"610 403 OFFCURVE",
"602 355 CURVE SMOOTH",
"581 228 OFFCURVE",
"560 105 OFFCURVE",
"560 55 CURVE SMOOTH",
"560 19 OFFCURVE",
"578 -5 OFFCURVE",
"629 -5 CURVE SMOOTH"
);
},
{
closed = 1;
nodes = (
"216 -5 OFFCURVE",
"243 14 OFFCURVE",
"247 65 CURVE SMOOTH",
"252 128 OFFCURVE",
"270 267 OFFCURVE",
"285 357 CURVE SMOOTH",
"307 488 LINE SMOOTH",
"328 615 OFFCURVE",
"350 738 OFFCURVE",
"350 788 CURVE SMOOTH",
"350 824 OFFCURVE",
"333 848 OFFCURVE",
"287 848 CURVE SMOOTH",
"238 848 OFFCURVE",
"210 829 OFFCURVE",
"206 778 CURVE SMOOTH",
"202 715 OFFCURVE",
"184 576 OFFCURVE",
"168 486 CURVE SMOOTH",
"161 446 OFFCURVE",
"153 403 OFFCURVE",
"145 355 CURVE SMOOTH",
"124 228 OFFCURVE",
"103 105 OFFCURVE",
"103 55 CURVE SMOOTH",
"103 19 OFFCURVE",
"121 -5 OFFCURVE",
"172 -5 CURVE SMOOTH"
);
},
{
closed = 1;
nodes = (
"172 366 OFFCURVE",
"354 370 OFFCURVE",
"424 370 CURVE SMOOTH",
"482 370 OFFCURVE",
"685 370 OFFCURVE",
"769 370 CURVE SMOOTH",
"839 370 OFFCURVE",
"854 399 OFFCURVE",
"854 440 CURVE SMOOTH",
"854 468 OFFCURVE",
"838 491 OFFCURVE",
"793 491 CURVE SMOOTH",
"750 491 OFFCURVE",
"583 488 OFFCURVE",
"442 486 CURVE SMOOTH",
"304 485 OFFCURVE",
"172 484 OFFCURVE",
"146 484 CURVE SMOOTH",
"81 484 OFFCURVE",
"62 455 OFFCURVE",
"62 411 CURVE SMOOTH",
"62 374 OFFCURVE",
"86 363 OFFCURVE",
"119 364 CURVE SMOOTH"
);
},
{
closed = 1;
nodes = (
"204 596 OFFCURVE",
"386 599 OFFCURVE",
"456 599 CURVE SMOOTH",
"514 599 OFFCURVE",
"717 599 OFFCURVE",
"801 599 CURVE SMOOTH",
"871 599 OFFCURVE",
"886 624 OFFCURVE",
"886 659 CURVE SMOOTH",
"886 683 OFFCURVE",
"870 703 OFFCURVE",
"825 703 CURVE SMOOTH",
"782 703 OFFCURVE",
"615 700 OFFCURVE",
"474 699 CURVE SMOOTH",
"336 698 OFFCURVE",
"204 697 OFFCURVE",
"178 697 CURVE SMOOTH",
"113 697 OFFCURVE",
"94 672 OFFCURVE",
"94 634 CURVE SMOOTH",
"94 602 OFFCURVE",
"118 593 OFFCURVE",
"151 594 CURVE SMOOTH"
);
}
);
width = 855;
}
);
leftKerningGroup = H_ss01;
leftMetricsKey = "=H.ss01+5";
widthMetricsKey = "=H.ss01+10";
rightKerningGroup = H_ss01;
unicode = 0126;
},
{
color = 3;
glyphname = I;
lastChange = "2016-07-30 21:03:45 +0000";
layers = (
{
anchors = (
{
name = bottom;
position = "{223, 0}";
},
{
name = ogonek;
position = "{276, 10}";
},
{
name = top;
position = "{340, 840}";
},
{
name = topleft;
position = "{272, 840}";
}
);
background = {
paths = (
{
closed = 1;
nodes = (
"69 -18 OFFCURVE",
"129 -2 OFFCURVE",
"222 -2 CURVE SMOOTH",
"259 -2 OFFCURVE",
"322 -6 OFFCURVE",
"367 -6 CURVE SMOOTH",
"418 -6 OFFCURVE",
"445 24 OFFCURVE",
"445 58 CURVE SMOOTH",
"446 93 OFFCURVE",
"429 116 OFFCURVE",
"354 116 CURVE SMOOTH",
"291 116 OFFCURVE",
"160 111 OFFCURVE",
"107 110 CURVE SMOOTH",
"30 108 OFFCURVE",
"-15 80 OFFCURVE",
"-15 30 CURVE SMOOTH",
"-15 -4 OFFCURVE",
"10 -18 OFFCURVE",
"37 -18 CURVE SMOOTH"
);
},
{
closed = 1;
nodes = (
"229 720 OFFCURVE",
"291 723 OFFCURVE",
"336 723 CURVE SMOOTH",
"373 723 OFFCURVE",
"436 724 OFFCURVE",
"481 724 CURVE SMOOTH",
"532 724 OFFCURVE",
"558 755 OFFCURVE",
"558 797 CURVE SMOOTH",
"558 822 OFFCURVE",
"531 842 OFFCURVE",
"496 842 CURVE SMOOTH",
"413 842 OFFCURVE",
"254 844 OFFCURVE",
"201 841 CURVE SMOOTH",
"128 838 OFFCURVE",
"103 806 OFFCURVE",
"103 765 CURVE SMOOTH",
"103 740 OFFCURVE",
"115 720 OFFCURVE",
"166 720 CURVE SMOOTH"
);
},
{
closed = 1;
nodes = (
"252 778 LINE",
"245 717 OFFCURVE",
"228 576 OFFCURVE",
"212 486 CURVE SMOOTH",
"205 446 OFFCURVE",
"197 403 OFFCURVE",
"189 355 CURVE SMOOTH",
"168 228 OFFCURVE",
"148 105 OFFCURVE",
"143 55 CURVE",
"295 65 LINE",
"302 128 OFFCURVE",
"320 267 OFFCURVE",
"335 357 CURVE SMOOTH",
"357 488 LINE SMOOTH",
"378 615 OFFCURVE",
"402 740 OFFCURVE",
"405 788 CURVE"
);
}
);
};
layerId = "ECEFE970-1BBB-4E0A-A452-CEB55884B4A3";
paths = (
{
closed = 1;
nodes = (
"291 65 LINE",
"298 128 OFFCURVE",
"318 267 OFFCURVE",
"332 357 CURVE SMOOTH",
"353 488 LINE SMOOTH",
"373 615 OFFCURVE",
"398 740 OFFCURVE",
"401 788 CURVE",
"257 778 LINE",
"250 717 OFFCURVE",
"230 576 OFFCURVE",
"214 486 CURVE SMOOTH",
"207 446 OFFCURVE",
"200 403 OFFCURVE",
"192 355 CURVE SMOOTH",
"171 228 OFFCURVE",
"153 105 OFFCURVE",
"148 55 CURVE"
);
},
{
closed = 1;
nodes = (
"69 -18 OFFCURVE",
"129 -2 OFFCURVE",
"222 -2 CURVE SMOOTH",
"259 -2 OFFCURVE",
"322 -6 OFFCURVE",
"367 -6 CURVE SMOOTH",
"418 -6 OFFCURVE",
"445 23 OFFCURVE",
"445 56 CURVE SMOOTH",
"445 90 OFFCURVE",
"429 112 OFFCURVE",
"354 112 CURVE SMOOTH",
"291 112 OFFCURVE",
"160 107 OFFCURVE",
"107 106 CURVE SMOOTH",
"30 105 OFFCURVE",
"-15 77 OFFCURVE",
"-15 29 CURVE SMOOTH",
"-15 -4 OFFCURVE",
"10 -18 OFFCURVE",
"37 -18 CURVE SMOOTH"
);
},
{
closed = 1;
nodes = (
"229 724 OFFCURVE",
"291 727 OFFCURVE",
"336 727 CURVE SMOOTH",
"373 727 OFFCURVE",
"436 728 OFFCURVE",
"481 728 CURVE SMOOTH",
"532 728 OFFCURVE",
"558 758 OFFCURVE",
"558 799 CURVE SMOOTH",
"558 823 OFFCURVE",
"531 842 OFFCURVE",
"496 842 CURVE SMOOTH",
"413 842 OFFCURVE",
"254 844 OFFCURVE",
"201 841 CURVE SMOOTH",
"128 837 OFFCURVE",
"103 807 OFFCURVE",
"103 768 CURVE SMOOTH",
"103 743 OFFCURVE",
"115 724 OFFCURVE",
"166 724 CURVE SMOOTH"
);
}
);
width = 450;
}
);
leftKerningGroup = I;
note = I;
rightKerningGroup = I;
unicode = 0049;
},
{
color = 3;
glyphname = IJ;
lastChange = "2016-07-30 21:03:56 +0000";
layers = (
{
anchors = (
{
name = top;
position = "{440, 840}";
}
);
background = {
paths = (
{
closed = 1;
nodes = (
"903 199 OFFCURVE",
"862 99 OFFCURVE",
"919 50 CURVE SMOOTH",
"958 17 OFFCURVE",
"1037 -7 OFFCURVE",
"1144 -7 CURVE SMOOTH",
"1332 -7 OFFCURVE",
"1477 96 OFFCURVE",
"1504 375 CURVE SMOOTH",
"1522 558 OFFCURVE",
"1535 657 OFFCURVE",
"1543 769 CURVE SMOOTH",
"1547 826 OFFCURVE",
"1527 852 OFFCURVE",
"1474 852 CURVE SMOOTH",
"1433 852 OFFCURVE",
"1406 828 OFFCURVE",
"1402 767 CURVE SMOOTH",
"1383 477 OFFCURVE",
"1267 361 OFFCURVE",
"1154 361 CURVE SMOOTH",
"1092 361 OFFCURVE",
"1060 391 OFFCURVE",
"1060 446 CURVE SMOOTH",
"1060 537 OFFCURVE",
"1094 642 OFFCURVE",
"1102 788 CURVE SMOOTH",
"1104 824 OFFCURVE",
"1082 852 OFFCURVE",
"1033 852 CURVE SMOOTH",
"983 852 OFFCURVE",
"959 829 OFFCURVE",
"955 788 CURVE SMOOTH",
"940 630 OFFCURVE",
"910 536 OFFCURVE",
"910 426 CURVE SMOOTH",
"910 312 OFFCURVE",
"978 234 OFFCURVE",
"1124 234 CURVE SMOOTH",
"1231 234 OFFCURVE",
"1314 285 OFFCURVE",
"1372 406 CURVE",
"1353 177 OFFCURVE",
"1280 108 OFFCURVE",
"1148 108 CURVE SMOOTH",
"1072 108 OFFCURVE",
"1008 127 OFFCURVE",
"963 158 CURVE SMOOTH"
);
},
{
closed = 1;
nodes = (
"380 -1 OFFCURVE",
"479 101 OFFCURVE",
"546 257 CURVE",
"530 181 OFFCURVE",
"516 103 OFFCURVE",
"512 65 CURVE SMOOTH",
"507 18 OFFCURVE",
"508 -5 OFFCURVE",
"568 -5 CURVE SMOOTH",
"601 -5 OFFCURVE",
"637 7 OFFCURVE",
"644 53 CURVE SMOOTH",
"675 255 OFFCURVE",
"733 637 OFFCURVE",
"744 783 CURVE SMOOTH",
"748 837 OFFCURVE",
"720 852 OFFCURVE",
"678 852 CURVE SMOOTH",
"630 852 OFFCURVE",
"608 822 OFFCURVE",
"603 781 CURVE SMOOTH",
"548 334 OFFCURVE",
"404 126 OFFCURVE",
"275 126 CURVE SMOOTH",
"236 126 OFFCURVE",
"213 147 OFFCURVE",
"213 198 CURVE SMOOTH",
"213 228 OFFCURVE",
"223 298 OFFCURVE",
"234 361 CURVE SMOOTH",
"258 494 LINE SMOOTH",
"281 621 OFFCURVE",
"302 742 OFFCURVE",
"302 792 CURVE SMOOTH",
"302 828 OFFCURVE",
"282 852 OFFCURVE",
"237 852 CURVE SMOOTH",
"187 852 OFFCURVE",
"160 833 OFFCURVE",
"156 782 CURVE SMOOTH",
"151 719 OFFCURVE",
"133 580 OFFCURVE",
"117 490 CURVE SMOOTH",
"95 367 LINE SMOOTH",
"82 296 OFFCURVE",
"69 222 OFFCURVE",
"69 170 CURVE SMOOTH",
"69 71 OFFCURVE",
"121 -1 OFFCURVE",
"238 -1 CURVE SMOOTH"
);
}
);
};
layerId = "ECEFE970-1BBB-4E0A-A452-CEB55884B4A3";
paths = (
{
closed = 1;
nodes = (
"532 -7 OFFCURVE",
"666 96 OFFCURVE",
"698 375 CURVE SMOOTH",
"719 558 OFFCURVE",
"731 657 OFFCURVE",
"739 769 CURVE SMOOTH",
"743 826 OFFCURVE",
"721 852 OFFCURVE",
"674 852 CURVE SMOOTH",
"633 852 OFFCURVE",
"606 828 OFFCURVE",
"602 767 CURVE SMOOTH",
"583 477 OFFCURVE",
"465 361 OFFCURVE",
"350 361 CURVE SMOOTH",
"290 361 OFFCURVE",
"257 391 OFFCURVE",
"257 444 CURVE SMOOTH",
"257 517 OFFCURVE",
"294 642 OFFCURVE",
"302 788 CURVE SMOOTH",
"304 824 OFFCURVE",
"282 852 OFFCURVE",
"233 852 CURVE SMOOTH",
"185 852 OFFCURVE",
"161 829 OFFCURVE",
"157 788 CURVE SMOOTH",
"142 630 OFFCURVE",
"113 526 OFFCURVE",
"113 426 CURVE SMOOTH",
"113 312 OFFCURVE",
"178 234 OFFCURVE",
"324 234 CURVE SMOOTH",
"431 234 OFFCURVE",
"514 285 OFFCURVE",
"572 406 CURVE",
"553 177 OFFCURVE",
"480 105 OFFCURVE",
"348 105 CURVE SMOOTH",
"272 105 OFFCURVE",
"208 124 OFFCURVE",
"163 155 CURVE SMOOTH",
"103 196 OFFCURVE",
"61 98 OFFCURVE",
"119 50 CURVE SMOOTH",
"158 17 OFFCURVE",
"237 -7 OFFCURVE",
"344 -7 CURVE SMOOTH"
);
}
);
width = 763;
}
);
leftKerningGroup = I;
rightKerningGroup = IJ;
unicode = 0132;
},
{
color = 3;
glyphname = J;
lastChange = "2016-07-30 21:03:13 +0000";
layers = (
{
anchors = (
{
name = bottom;
position = "{307, -107}";
},
{
name = top;
position = "{424, 840}";
}
);
background = {
paths = (
{
closed = 1;
nodes = (
"121 438 OFFCURVE",
"227 493 OFFCURVE",
"195 548 CURVE SMOOTH",
"187 562 OFFCURVE",
"175 585 OFFCURVE",
"175 613 CURVE SMOOTH",
"175 695 OFFCURVE",
"263 726 OFFCURVE",
"446 726 CURVE SMOOTH",
"515 726 OFFCURVE",
"577 719 OFFCURVE",
"681 706 CURVE SMOOTH",
"735 699 OFFCURVE",
"753 723 OFFCURVE",
"753 767 CURVE SMOOTH",
"753 791 OFFCURVE",
"740 812 OFFCURVE",
"696 823 CURVE SMOOTH",
"632 839 OFFCURVE",
"554 847 OFFCURVE",
"476 847 CURVE SMOOTH",
"221 847 OFFCURVE",
"56 781 OFFCURVE",
"56 607 CURVE SMOOTH",
"56 566 OFFCURVE",
"67 528 OFFCURVE",
"84 500 CURVE SMOOTH"
);
},
{
closed = 1;
nodes = (
"554 739 LINE",
"546 668 OFFCURVE",
"540 624 OFFCURVE",
"534 571 CURVE SMOOTH",
"480 92 OFFCURVE",
"387 0 OFFCURVE",
"320 0 CURVE SMOOTH",
"283 0 OFFCURVE",
"259 25 OFFCURVE",
"260 74 CURVE SMOOTH",
"262 185 OFFCURVE",
"356 285 OFFCURVE",
"597 369 CURVE",
"597 469 LINE",
"353 394 OFFCURVE",
"131 259 OFFCURVE",
"131 58 CURVE SMOOTH",
"131 -33 OFFCURVE",
"192 -107 OFFCURVE",
"307 -107 CURVE SMOOTH",
"477 -107 OFFCURVE",
"617 83 OFFCURVE",
"680 556 CURVE SMOOTH",
"693 653 OFFCURVE",
"698 682 OFFCURVE",
"704 739 CURVE"
);
}
);
};
layerId = "ECEFE970-1BBB-4E0A-A452-CEB55884B4A3";
paths = (
{
closed = 1;
nodes = (
"477 -107 OFFCURVE",
"613 73 OFFCURVE",
"678 556 CURVE SMOOTH",
"691 653 OFFCURVE",
"696 682 OFFCURVE",
"702 739 CURVE",
"560 739 LINE",
"552 668 OFFCURVE",
"546 624 OFFCURVE",
"540 571 CURVE SMOOTH",
"486 92 OFFCURVE",
"387 0 OFFCURVE",
"320 0 CURVE SMOOTH",
"283 0 OFFCURVE",
"259 25 OFFCURVE",
"260 74 CURVE SMOOTH",
"262 185 OFFCURVE",
"356 285 OFFCURVE",
"597 369 CURVE",
"597 469 LINE",
"353 394 OFFCURVE",
"131 259 OFFCURVE",
"131 58 CURVE SMOOTH",
"131 -33 OFFCURVE",
"192 -107 OFFCURVE",
"307 -107 CURVE SMOOTH"
);
},
{
closed = 1;
nodes = (
"121 438 OFFCURVE",
"227 493 OFFCURVE",
"195 548 CURVE SMOOTH",
"187 562 OFFCURVE",
"175 585 OFFCURVE",
"175 613 CURVE SMOOTH",
"175 695 OFFCURVE",
"263 728 OFFCURVE",
"446 728 CURVE SMOOTH",
"515 728 OFFCURVE",
"575 721 OFFCURVE",
"679 708 CURVE SMOOTH",
"733 701 OFFCURVE",
"751 723 OFFCURVE",
"751 767 CURVE SMOOTH",
"751 791 OFFCURVE",
"738 812 OFFCURVE",
"694 823 CURVE SMOOTH",
"630 839 OFFCURVE",
"554 847 OFFCURVE",
"476 847 CURVE SMOOTH",
"221 847 OFFCURVE",
"56 781 OFFCURVE",
"56 607 CURVE SMOOTH",
"56 566 OFFCURVE",
"67 528 OFFCURVE",
"84 500 CURVE SMOOTH"
);
}
);
width = 676;
}
);
note = J;
rightKerningGroup = J;
unicode = 004A;
},
{
color = 3;
glyphname = K;
lastChange = "2016-07-29 22:43:48 +0000";
layers = (
{
anchors = (
{
name = bottom;
position = "{519, 0}";
},
{
name = top;
position = "{649, 840}";
}
);
background = {
paths = (
{
closed = 1;
nodes = (
"373 -8 OFFCURVE",
"454 67 OFFCURVE",
"483 261 CURVE SMOOTH",
"515 473 OFFCURVE",
"534 593 OFFCURVE",
"557 765 CURVE",
"415 754 LINE",
"394 601 OFFCURVE",
"356 333 OFFCURVE",
"342 240 CURVE SMOOTH",
"326 137 OFFCURVE",
"286 93 OFFCURVE",
"238 91 CURVE SMOOTH",
"186 89 OFFCURVE",
"160 119 OFFCURVE",
"120 195 CURVE SMOOTH",
"109 216 OFFCURVE",
"98 224 OFFCURVE",
"81 224 CURVE SMOOTH",
"40 224 OFFCURVE",
"18 160 OFFCURVE",
"38 111 CURVE SMOOTH",
"65 43 OFFCURVE",
"141 -8 OFFCURVE",
"235 -8 CURVE SMOOTH"
);
},
{
closed = 1;
nodes = (
"937 -5 OFFCURVE",
"997 49 OFFCURVE",
"1052 116 CURVE",
"1016 209 LINE",
"960 142 OFFCURVE",
"926 114 OFFCURVE",
"882 114 CURVE SMOOTH",
"834 114 OFFCURVE",
"802 147 OFFCURVE",
"761 235 CURVE SMOOTH",
"709 346 OFFCURVE",
"678 390 OFFCURVE",
"512 390 CURVE",
"473 336 LINE",
"545 336 OFFCURVE",
"566 315 OFFCURVE",
"630 174 CURVE SMOOTH",
"681 61 OFFCURVE",
"734 -5 OFFCURVE",
"839 -5 CURVE SMOOTH"
);
},
{
closed = 1;
nodes = (
"136 441 OFFCURVE",
"236 493 OFFCURVE",
"210 548 CURVE SMOOTH",
"203 562 OFFCURVE",
"190 585 OFFCURVE",
"190 623 CURVE SMOOTH",
"190 696 OFFCURVE",
"248 737 OFFCURVE",
"363 737 CURVE SMOOTH",
"412 737 OFFCURVE",
"461 728 OFFCURVE",
"533 714 CURVE SMOOTH",
"574 706 OFFCURVE",
"597 723 OFFCURVE",
"597 767 CURVE SMOOTH",
"597 796 OFFCURVE",
"580 813 OFFCURVE",
"548 823 CURVE SMOOTH",
"484 843 OFFCURVE",
"437 847 OFFCURVE",
"383 847 CURVE SMOOTH",
"169 847 OFFCURVE",
"71 738 OFFCURVE",
"71 617 CURVE SMOOTH",
"71 566 OFFCURVE",
"85 531 OFFCURVE",
"101 503 CURVE SMOOTH"
);
},
{
closed = 1;
nodes = (
"493 336 LINE",
"547 367 LINE",
"697 380 OFFCURVE",
"880 493 OFFCURVE",
"964 771 CURVE SMOOTH",
"977 814 OFFCURVE",
"954 842 OFFCURVE",
"909 842 CURVE SMOOTH",
"865 842 OFFCURVE",
"836 821 OFFCURVE",
"824 784 CURVE SMOOTH",
"761 591 OFFCURVE",
"667 441 OFFCURVE",
"476 441 CURVE SMOOTH",
"430 441 OFFCURVE",
"397 441 OFFCURVE",
"338 441 CURVE SMOOTH",
"313 441 OFFCURVE",
"291 420 OFFCURVE",
"291 384 CURVE SMOOTH",
"291 354 OFFCURVE",
"309 335 OFFCURVE",
"340 335 CURVE SMOOTH"
);
}
);
};
layerId = "ECEFE970-1BBB-4E0A-A452-CEB55884B4A3";
paths = (
{
closed = 1;
nodes = (
"373 -8 OFFCURVE",
"454 67 OFFCURVE",
"483 261 CURVE SMOOTH",
"515 473 OFFCURVE",
"534 593 OFFCURVE",
"557 765 CURVE",
"415 754 LINE",
"394 601 OFFCURVE",
"356 333 OFFCURVE",
"342 240 CURVE SMOOTH",
"326 137 OFFCURVE",
"286 93 OFFCURVE",
"238 91 CURVE SMOOTH",
"186 89 OFFCURVE",
"160 119 OFFCURVE",
"120 195 CURVE SMOOTH",
"109 216 OFFCURVE",
"98 224 OFFCURVE",
"81 224 CURVE SMOOTH",
"40 224 OFFCURVE",
"18 160 OFFCURVE",
"38 111 CURVE SMOOTH",
"65 43 OFFCURVE",
"141 -8 OFFCURVE",
"235 -8 CURVE SMOOTH"
);
},
{
closed = 1;
nodes = (
"136 441 OFFCURVE",
"236 493 OFFCURVE",
"210 548 CURVE SMOOTH",
"203 562 OFFCURVE",
"190 585 OFFCURVE",
"190 623 CURVE SMOOTH",
"190 696 OFFCURVE",
"248 737 OFFCURVE",
"363 737 CURVE SMOOTH",
"412 737 OFFCURVE",
"461 728 OFFCURVE",
"533 714 CURVE SMOOTH",
"574 706 OFFCURVE",
"597 723 OFFCURVE",
"597 767 CURVE SMOOTH",
"597 796 OFFCURVE",
"580 813 OFFCURVE",
"548 823 CURVE SMOOTH",
"484 843 OFFCURVE",
"437 847 OFFCURVE",
"383 847 CURVE SMOOTH",
"169 847 OFFCURVE",
"71 738 OFFCURVE",
"71 617 CURVE SMOOTH",
"71 566 OFFCURVE",
"85 531 OFFCURVE",
"101 503 CURVE SMOOTH"
);
},
{
closed = 1;
nodes = (
"493 336 LINE",
"547 367 LINE",
"697 380 OFFCURVE",
"880 493 OFFCURVE",
"964 771 CURVE SMOOTH",
"977 814 OFFCURVE",
"954 842 OFFCURVE",
"909 842 CURVE SMOOTH",
"865 842 OFFCURVE",
"836 821 OFFCURVE",
"824 784 CURVE SMOOTH",
"761 591 OFFCURVE",
"667 441 OFFCURVE",
"476 441 CURVE SMOOTH",
"430 441 OFFCURVE",
"397 441 OFFCURVE",
"338 441 CURVE SMOOTH",
"313 441 OFFCURVE",
"291 420 OFFCURVE",
"291 384 CURVE SMOOTH",
"291 354 OFFCURVE",
"309 335 OFFCURVE",
"340 335 CURVE SMOOTH"
);
},
{
closed = 1;
nodes = (
"960 142 OFFCURVE",
"926 114 OFFCURVE",
"882 114 CURVE SMOOTH",
"834 114 OFFCURVE",
"802 147 OFFCURVE",
"761 235 CURVE SMOOTH",
"709 346 OFFCURVE",
"678 390 OFFCURVE",
"512 390 CURVE",
"473 336 LINE",
"545 336 OFFCURVE",
"566 315 OFFCURVE",
"630 174 CURVE SMOOTH",
"681 61 OFFCURVE",
"734 -5 OFFCURVE",
"839 -5 CURVE SMOOTH",
"937 -5 OFFCURVE",
"997 49 OFFCURVE",
"1052 116 CURVE SMOOTH",
"1069 137 OFFCURVE",
"1071 159 OFFCURVE",
"1071 178 CURVE SMOOTH",
"1071 205 OFFCURVE",
"1061 223 OFFCURVE",
"1043 223 CURVE SMOOTH",
"1035 223 OFFCURVE",
"1026 221 OFFCURVE",
"1016 209 CURVE SMOOTH"
);
}
);
width = 937;
}
);
note = K;
unicode = 004B;
},
{
color = 3;
glyphname = L;
lastChange = "2016-07-30 22:54:18 +0000";
layers = (
{
anchors = (
{
name = bottom;
position = "{339, 0}";
},
{
name = center;
position = "{489, 390}";
},
{
name = top;
position = "{513, 840}";
},
{
name = topright;
position = "{788, 840}";
}
);
background = {
paths = (
{
closed = 1;
nodes = (
"223 -5 OFFCURVE",
"276 108 OFFCURVE",
"293 271 CURVE SMOOTH",
"316 498 LINE SMOOTH",
"333 664 OFFCURVE",
"397 736 OFFCURVE",
"513 736 CURVE SMOOTH",
"583 736 OFFCURVE",
"612 698 OFFCURVE",
"612 645 CURVE SMOOTH",
"612 611 OFFCURVE",
"602 584 OFFCURVE",
"602 562 CURVE SMOOTH",
"602 528 OFFCURVE",
"626 510 OFFCURVE",
"662 510 CURVE SMOOTH",
"716 510 OFFCURVE",
"745 567 OFFCURVE",
"745 646 CURVE SMOOTH",
"745 762 OFFCURVE",
"670 848 OFFCURVE",
"521 848 CURVE SMOOTH",
"434 848 OFFCURVE",
"353 821 OFFCURVE",
"291 767 CURVE SMOOTH",
"225 710 OFFCURVE",
"181 631 OFFCURVE",
"172 491 CURVE SMOOTH",
"153 191 LINE",
"141 200 LINE",
"34 200 OFFCURVE",
"-31 150 OFFCURVE",
"-31 86 CURVE SMOOTH",
"-31 33 OFFCURVE",
"17 -5 OFFCURVE",
"92 -5 CURVE SMOOTH"
);
},
{
closed = 1;
nodes = (
"655 -5 OFFCURVE",
"718 25 OFFCURVE",
"793 116 CURVE",
"757 208 LINE",
"709 152 OFFCURVE",
"657 127 OFFCURVE",
"579 127 CURVE SMOOTH",
"494 127 OFFCURVE",
"329 200 OFFCURVE",
"141 200 CURVE",
"95 110 LINE",
"304 110 OFFCURVE",
"393 -5 OFFCURVE",
"558 -5 CURVE SMOOTH"
);
}
);
};
layerId = "ECEFE970-1BBB-4E0A-A452-CEB55884B4A3";
paths = (
{
closed = 1;
nodes = (
"223 -5 OFFCURVE",
"276 108 OFFCURVE",
"293 271 CURVE SMOOTH",
"316 498 LINE SMOOTH",
"333 664 OFFCURVE",
"397 736 OFFCURVE",
"513 736 CURVE SMOOTH",
"583 736 OFFCURVE",
"612 698 OFFCURVE",
"612 645 CURVE SMOOTH",
"612 611 OFFCURVE",
"602 584 OFFCURVE",
"602 562 CURVE SMOOTH",
"602 528 OFFCURVE",
"626 510 OFFCURVE",
"662 510 CURVE SMOOTH",
"716 510 OFFCURVE",
"745 567 OFFCURVE",
"745 646 CURVE SMOOTH",
"745 762 OFFCURVE",
"670 848 OFFCURVE",
"521 848 CURVE SMOOTH",
"434 848 OFFCURVE",
"353 821 OFFCURVE",
"291 767 CURVE SMOOTH",
"225 710 OFFCURVE",
"181 631 OFFCURVE",
"172 491 CURVE SMOOTH",
"153 191 LINE",
"141 200 LINE",
"34 200 OFFCURVE",
"-31 150 OFFCURVE",
"-31 86 CURVE SMOOTH",
"-31 33 OFFCURVE",
"17 -5 OFFCURVE",
"92 -5 CURVE SMOOTH"
);
},
{
closed = 1;
nodes = (
"810 137 OFFCURVE",
"812 159 OFFCURVE",
"812 178 CURVE SMOOTH",
"812 205 OFFCURVE",
"802 223 OFFCURVE",
"784 223 CURVE SMOOTH",
"776 223 OFFCURVE",
"767 221 OFFCURVE",
"757 209 CURVE SMOOTH",
"709 153 OFFCURVE",
"657 127 OFFCURVE",
"579 127 CURVE SMOOTH",
"494 127 OFFCURVE",
"329 200 OFFCURVE",
"141 200 CURVE",
"95 110 LINE",
"304 110 OFFCURVE",
"393 -5 OFFCURVE",
"558 -5 CURVE SMOOTH",
"655 -5 OFFCURVE",
"718 25 OFFCURVE",
"793 116 CURVE SMOOTH"
);
}
);
width = 678;
}
);
leftKerningGroup = L;
note = L;
rightKerningGroup = L;
unicode = 004C;
},
{
color = 3;
glyphname = LJ;
lastChange = "2016-07-30 21:03:24 +0000";
layers = (
{
layerId = "ECEFE970-1BBB-4E0A-A452-CEB55884B4A3";
paths = (
{
closed = 1;
nodes = (
"223 -5 OFFCURVE",
"276 108 OFFCURVE",
"293 271 CURVE SMOOTH",
"318 518 LINE SMOOTH",
"333 664 OFFCURVE",
"397 736 OFFCURVE",
"486 736 CURVE SMOOTH",
"543 736 OFFCURVE",
"572 698 OFFCURVE",
"572 645 CURVE SMOOTH",
"572 611 OFFCURVE",
"562 584 OFFCURVE",
"562 562 CURVE SMOOTH",
"562 528 OFFCURVE",
"586 510 OFFCURVE",
"622 510 CURVE SMOOTH",
"676 510 OFFCURVE",
"705 567 OFFCURVE",
"705 646 CURVE SMOOTH",
"705 762 OFFCURVE",
"630 848 OFFCURVE",
"497 848 CURVE SMOOTH",
"315 848 OFFCURVE",
"186 712 OFFCURVE",
"173 511 CURVE SMOOTH",
"153 191 LINE",
"141 200 LINE",
"34 200 OFFCURVE",
"-31 150 OFFCURVE",
"-31 86 CURVE SMOOTH",
"-31 33 OFFCURVE",
"17 -5 OFFCURVE",
"92 -5 CURVE SMOOTH"
);
},
{
closed = 1;
nodes = (
"655 -5 OFFCURVE",
"718 25 OFFCURVE",
"793 116 CURVE",
"757 208 LINE",
"709 152 OFFCURVE",
"657 127 OFFCURVE",
"579 127 CURVE SMOOTH",
"494 127 OFFCURVE",
"329 200 OFFCURVE",
"141 200 CURVE",
"95 110 LINE",
"304 110 OFFCURVE",
"393 -5 OFFCURVE",
"558 -5 CURVE SMOOTH"
);
},
{
closed = 1;
nodes = (
"1035 -107 OFFCURVE",
"1171 73 OFFCURVE",
"1236 556 CURVE SMOOTH",
"1249 653 OFFCURVE",
"1254 682 OFFCURVE",
"1260 739 CURVE",
"1118 739 LINE",
"1110 668 OFFCURVE",
"1104 624 OFFCURVE",
"1098 571 CURVE SMOOTH",
"1044 92 OFFCURVE",
"945 0 OFFCURVE",
"878 0 CURVE SMOOTH",
"841 0 OFFCURVE",
"817 25 OFFCURVE",
"818 74 CURVE SMOOTH",
"820 185 OFFCURVE",
"914 285 OFFCURVE",
"1155 369 CURVE",
"1155 469 LINE",
"911 394 OFFCURVE",
"689 259 OFFCURVE",
"689 58 CURVE SMOOTH",
"689 -33 OFFCURVE",
"750 -107 OFFCURVE",
"865 -107 CURVE SMOOTH"
);
},
{
closed = 1;
nodes = (
"819 438 OFFCURVE",
"925 493 OFFCURVE",
"893 548 CURVE SMOOTH",
"885 562 OFFCURVE",
"873 585 OFFCURVE",
"873 613 CURVE SMOOTH",
"873 695 OFFCURVE",
"961 728 OFFCURVE",
"1044 728 CURVE SMOOTH",
"1073 728 OFFCURVE",
"1133 721 OFFCURVE",
"1237 708 CURVE SMOOTH",
"1291 701 OFFCURVE",
"1309 723 OFFCURVE",
"1309 767 CURVE SMOOTH",
"1309 791 OFFCURVE",
"1296 812 OFFCURVE",
"1252 823 CURVE SMOOTH",
"1188 839 OFFCURVE",
"1112 847 OFFCURVE",
"1074 847 CURVE SMOOTH",
"919 847 OFFCURVE",
"754 781 OFFCURVE",
"754 607 CURVE SMOOTH",
"754 566 OFFCURVE",
"765 528 OFFCURVE",
"782 500 CURVE SMOOTH"
);
}
);
width = 1234;
}
);
leftKerningGroup = L;
leftMetricsKey = L;
rightKerningGroup = J;
rightMetricsKey = J;
unicode = 01C7;
},
{
color = 3;
glyphname = Lslash;
lastChange = "2016-07-30 21:03:30 +0000";
layers = (
{
background = {
paths = (
{
closed = 1;
nodes = (
"223 -5 OFFCURVE",
"276 108 OFFCURVE",
"293 271 CURVE SMOOTH",
"316 498 LINE SMOOTH",
"331 644 OFFCURVE",
"397 716 OFFCURVE",
"513 716 CURVE SMOOTH",
"583 716 OFFCURVE",
"612 678 OFFCURVE",
"612 625 CURVE SMOOTH",
"612 591 OFFCURVE",
"602 564 OFFCURVE",
"602 542 CURVE SMOOTH",
"602 508 OFFCURVE",
"626 490 OFFCURVE",
"662 490 CURVE SMOOTH",
"716 490 OFFCURVE",
"745 547 OFFCURVE",
"745 626 CURVE SMOOTH",
"745 742 OFFCURVE",
"670 828 OFFCURVE",
"521 828 CURVE SMOOTH",
"434 828 OFFCURVE",
"353 801 OFFCURVE",
"291 747 CURVE SMOOTH",
"225 690 OFFCURVE",
"180 611 OFFCURVE",
"172 491 CURVE SMOOTH",
"153 191 LINE",
"141 200 LINE",
"34 200 OFFCURVE",
"-31 150 OFFCURVE",
"-31 86 CURVE SMOOTH",
"-31 33 OFFCURVE",
"17 -5 OFFCURVE",
"92 -5 CURVE SMOOTH"
);
},
{
closed = 1;
nodes = (
"655 -5 OFFCURVE",
"718 25 OFFCURVE",
"793 116 CURVE",
"757 208 LINE",
"709 152 OFFCURVE",
"657 127 OFFCURVE",
"579 127 CURVE SMOOTH",
"494 127 OFFCURVE",
"329 200 OFFCURVE",
"141 200 CURVE",
"95 110 LINE",
"304 110 OFFCURVE",
"393 -5 OFFCURVE",
"558 -5 CURVE SMOOTH"
);
},
{
closed = 1;
nodes = (
"336 845 OFFCURVE",
"417 908 OFFCURVE",
"586 908 CURVE SMOOTH",
"651 908 OFFCURVE",
"694 896 OFFCURVE",
"719 896 CURVE SMOOTH",
"749 896 OFFCURVE",
"772 911 OFFCURVE",
"772 942 CURVE SMOOTH",
"772 976 OFFCURVE",
"722 1013 OFFCURVE",
"584 1013 CURVE SMOOTH",
"477 1013 OFFCURVE",
"380 987 OFFCURVE",
"324 964 CURVE SMOOTH",
"258 937 OFFCURVE",
"248 916 OFFCURVE",
"248 887 CURVE SMOOTH",
"248 866 OFFCURVE",
"262 845 OFFCURVE",
"292 845 CURVE SMOOTH"
);
}
);
};
layerId = "ECEFE970-1BBB-4E0A-A452-CEB55884B4A3";
paths = (
{
closed = 1;
nodes = (
"223 -5 OFFCURVE",
"276 108 OFFCURVE",
"293 271 CURVE SMOOTH",
"316 498 LINE SMOOTH",
"331 644 OFFCURVE",
"397 716 OFFCURVE",
"513 716 CURVE SMOOTH",
"583 716 OFFCURVE",
"612 678 OFFCURVE",
"612 625 CURVE SMOOTH",
"612 591 OFFCURVE",
"602 564 OFFCURVE",
"602 542 CURVE SMOOTH",
"602 508 OFFCURVE",
"626 490 OFFCURVE",
"662 490 CURVE SMOOTH",
"716 490 OFFCURVE",
"745 547 OFFCURVE",
"745 626 CURVE SMOOTH",
"745 742 OFFCURVE",
"670 828 OFFCURVE",
"521 828 CURVE SMOOTH",
"434 828 OFFCURVE",
"353 801 OFFCURVE",
"291 747 CURVE SMOOTH",
"225 690 OFFCURVE",
"180 611 OFFCURVE",
"172 491 CURVE SMOOTH",
"153 191 LINE",
"141 200 LINE",
"34 200 OFFCURVE",
"-31 150 OFFCURVE",
"-31 86 CURVE SMOOTH",
"-31 33 OFFCURVE",
"17 -5 OFFCURVE",
"92 -5 CURVE SMOOTH"
);
},
{
closed = 1;
nodes = (
"655 -5 OFFCURVE",
"718 25 OFFCURVE",
"793 116 CURVE SMOOTH",
"810 137 OFFCURVE",
"812 159 OFFCURVE",
"812 178 CURVE SMOOTH",
"812 205 OFFCURVE",
"802 223 OFFCURVE",
"784 223 CURVE SMOOTH",
"776 223 OFFCURVE",
"767 221 OFFCURVE",
"757 209 CURVE SMOOTH",
"709 153 OFFCURVE",
"657 127 OFFCURVE",
"579 127 CURVE SMOOTH",
"494 127 OFFCURVE",
"329 200 OFFCURVE",
"141 200 CURVE",
"95 110 LINE",
"304 110 OFFCURVE",
"393 -5 OFFCURVE",
"558 -5 CURVE SMOOTH"
);
},
{
closed = 1;
nodes = (
"336 845 OFFCURVE",
"417 908 OFFCURVE",
"586 908 CURVE SMOOTH",
"651 908 OFFCURVE",
"694 896 OFFCURVE",
"719 896 CURVE SMOOTH",
"749 896 OFFCURVE",
"772 911 OFFCURVE",
"772 942 CURVE SMOOTH",
"772 976 OFFCURVE",
"722 1013 OFFCURVE",
"584 1013 CURVE SMOOTH",
"477 1013 OFFCURVE",
"380 987 OFFCURVE",
"324 964 CURVE SMOOTH",
"258 937 OFFCURVE",
"248 916 OFFCURVE",
"248 887 CURVE SMOOTH",
"248 866 OFFCURVE",
"262 845 OFFCURVE",
"292 845 CURVE SMOOTH"
);
}
);
width = 678;
}
);
leftKerningGroup = L;
leftMetricsKey = L;
note = Lslash;
rightKerningGroup = L;
rightMetricsKey = L;
unicode = 0141;
},
{
color = 3;
glyphname = M;
lastChange = "2016-07-30 21:02:47 +0000";
layers = (
{
anchors = (
{
name = bottom;
position = "{573, 0}";
},
{
name = top;
position = "{677, 840}";
}
);
background = {
paths = (
{
closed = 1;
nodes = (
"232 -5 OFFCURVE",
"242 25 OFFCURVE",
"250 86 CURVE SMOOTH",
"321 604 OFFCURVE",
"451 721 OFFCURVE",
"535 721 CURVE SMOOTH",
"574 721 OFFCURVE",
"593 698 OFFCURVE",
"593 647 CURVE SMOOTH",
"593 587 OFFCURVE",
"570 456 OFFCURVE",
"547 335 CURVE SMOOTH",
"535 272 OFFCURVE",
"508 135 OFFCURVE",
"508 81 CURVE SMOOTH",
"508 20 OFFCURVE",
"530 -5 OFFCURVE",
"573 -5 CURVE SMOOTH",
"624 -5 OFFCURVE",
"645 25 OFFCURVE",
"654 96 CURVE SMOOTH",
"715 575 OFFCURVE",
"841 721 OFFCURVE",
"926 721 CURVE SMOOTH",
"959 721 OFFCURVE",
"978 698 OFFCURVE",
"978 651 CURVE SMOOTH",
"978 607 OFFCURVE",
"968 572 OFFCURVE",
"960 535 CURVE SMOOTH",
"920 352 LINE SMOOTH",
"903 273 OFFCURVE",
"896 221 OFFCURVE",
"896 181 CURVE SMOOTH",
"896 69 OFFCURVE",
"962 -5 OFFCURVE",
"1077 -5 CURVE SMOOTH",
"1151 -5 OFFCURVE",
"1217 31 OFFCURVE",
"1287 116 CURVE",
"1251 209 LINE",
"1195 142 OFFCURVE",
"1157 114 OFFCURVE",
"1112 114 CURVE SMOOTH",
"1066 114 OFFCURVE",
"1038 141 OFFCURVE",
"1038 198 CURVE SMOOTH",
"1038 229 OFFCURVE",
"1042 254 OFFCURVE",
"1048 284 CURVE SMOOTH",
"1109 570 LINE SMOOTH",
"1117 609 OFFCURVE",
"1122 645 OFFCURVE",
"1122 677 CURVE SMOOTH",
"1122 783 OFFCURVE",
"1072 848 OFFCURVE",
"977 848 CURVE SMOOTH",
"867 848 OFFCURVE",
"776 782 OFFCURVE",
"706 590 CURVE",
"713 628 OFFCURVE",
"715 653 OFFCURVE",
"715 672 CURVE SMOOTH",
"715 785 OFFCURVE",
"661 848 OFFCURVE",
"575 848 CURVE SMOOTH",
"474 848 OFFCURVE",
"373 790 OFFCURVE",
"291 556 CURVE",
"301 614 OFFCURVE",
"311 666 OFFCURVE",
"311 711 CURVE SMOOTH",
"311 801 OFFCURVE",
"269 848 OFFCURVE",
"197 848 CURVE SMOOTH",
"118 848 OFFCURVE",
"36 797 OFFCURVE",
"-28 708 CURVE SMOOTH",
"-49 679 OFFCURVE",
"-56 659 OFFCURVE",
"-56 638 CURVE SMOOTH",
"-56 603 OFFCURVE",
"-20 573 OFFCURVE",
"10 613 CURVE SMOOTH",
"73 697 OFFCURVE",
"123 724 OFFCURVE",
"153 724 CURVE SMOOTH",
"173 724 OFFCURVE",
"186 713 OFFCURVE",
"186 679 CURVE SMOOTH",
"186 653 OFFCURVE",
"184 615 OFFCURVE",
"177 559 CURVE SMOOTH",
"149 333 OFFCURVE",
"108 159 OFFCURVE",
"108 84 CURVE SMOOTH",
"108 20 OFFCURVE",
"131 -5 OFFCURVE",
"177 -5 CURVE SMOOTH"
);
}
);
};
layerId = "ECEFE970-1BBB-4E0A-A452-CEB55884B4A3";
paths = (
{
closed = 1;
nodes = (
"1304 137 OFFCURVE",
"1306 159 OFFCURVE",
"1306 178 CURVE SMOOTH",
"1306 205 OFFCURVE",
"1296 223 OFFCURVE",
"1278 223 CURVE SMOOTH",
"1270 223 OFFCURVE",
"1261 221 OFFCURVE",
"1251 209 CURVE SMOOTH",
"1195 142 OFFCURVE",
"1157 114 OFFCURVE",
"1112 114 CURVE SMOOTH",
"1066 114 OFFCURVE",
"1038 141 OFFCURVE",
"1038 198 CURVE SMOOTH",
"1038 229 OFFCURVE",
"1042 254 OFFCURVE",
"1048 284 CURVE SMOOTH",
"1109 570 LINE SMOOTH",
"1117 609 OFFCURVE",
"1122 645 OFFCURVE",
"1122 677 CURVE SMOOTH",
"1122 783 OFFCURVE",
"1072 848 OFFCURVE",
"977 848 CURVE SMOOTH",
"867 848 OFFCURVE",
"776 782 OFFCURVE",
"706 590 CURVE",
"713 628 OFFCURVE",
"715 653 OFFCURVE",
"715 672 CURVE SMOOTH",
"715 785 OFFCURVE",
"661 848 OFFCURVE",
"575 848 CURVE SMOOTH",
"474 848 OFFCURVE",
"373 790 OFFCURVE",
"291 556 CURVE",
"301 614 OFFCURVE",
"311 666 OFFCURVE",
"311 711 CURVE SMOOTH",
"311 801 OFFCURVE",
"269 848 OFFCURVE",
"197 848 CURVE SMOOTH",
"118 848 OFFCURVE",
"36 797 OFFCURVE",
"-28 708 CURVE SMOOTH",
"-49 679 OFFCURVE",
"-56 659 OFFCURVE",
"-56 638 CURVE SMOOTH",
"-56 603 OFFCURVE",
"-20 573 OFFCURVE",
"10 613 CURVE SMOOTH",
"73 697 OFFCURVE",
"123 724 OFFCURVE",
"153 724 CURVE SMOOTH",
"173 724 OFFCURVE",
"186 713 OFFCURVE",
"186 679 CURVE SMOOTH",
"186 653 OFFCURVE",
"184 615 OFFCURVE",
"177 559 CURVE SMOOTH",
"149 333 OFFCURVE",
"108 159 OFFCURVE",
"108 74 CURVE SMOOTH",
"108 10 OFFCURVE",
"131 -5 OFFCURVE",
"177 -5 CURVE SMOOTH",
"232 -5 OFFCURVE",
"242 25 OFFCURVE",
"250 86 CURVE SMOOTH",
"321 604 OFFCURVE",
"451 721 OFFCURVE",
"535 721 CURVE SMOOTH",
"574 721 OFFCURVE",
"593 698 OFFCURVE",
"593 647 CURVE SMOOTH",
"593 587 OFFCURVE",
"570 456 OFFCURVE",
"547 335 CURVE SMOOTH",
"535 272 OFFCURVE",
"508 135 OFFCURVE",
"508 71 CURVE SMOOTH",
"508 10 OFFCURVE",
"530 -5 OFFCURVE",
"573 -5 CURVE SMOOTH",
"624 -5 OFFCURVE",
"644 15 OFFCURVE",
"654 96 CURVE SMOOTH",
"715 575 OFFCURVE",
"841 721 OFFCURVE",
"926 721 CURVE SMOOTH",
"959 721 OFFCURVE",
"978 698 OFFCURVE",
"978 651 CURVE SMOOTH",
"978 607 OFFCURVE",
"968 572 OFFCURVE",
"960 535 CURVE SMOOTH",
"920 352 LINE SMOOTH",
"903 273 OFFCURVE",
"896 221 OFFCURVE",
"896 181 CURVE SMOOTH",
"896 69 OFFCURVE",
"962 -5 OFFCURVE",
"1077 -5 CURVE SMOOTH",
"1151 -5 OFFCURVE",
"1217 31 OFFCURVE",
"1287 116 CURVE SMOOTH"
);
}
);
width = 1172;
}
);
leftKerningGroup = N;
leftMetricsKey = N;
note = M;
rightKerningGroup = N;
rightMetricsKey = N;
unicode = 004D;
},
{
color = 3;
glyphname = N;
lastChange = "2016-07-30 21:02:47 +0000";
layers = (
{
anchors = (
{
name = bottom;
position = "{382, 0}";
},
{
name = top;
position = "{496, 840}";
}
);
background = {
paths = (
{
closed = 1;
nodes = (
"232 -5 OFFCURVE",
"242 25 OFFCURVE",
"250 86 CURVE SMOOTH",
"312 556 OFFCURVE",
"450 721 OFFCURVE",
"561 721 CURVE SMOOTH",
"606 721 OFFCURVE",
"630 692 OFFCURVE",
"630 651 CURVE SMOOTH",
"630 607 OFFCURVE",
"620 572 OFFCURVE",
"612 535 CURVE SMOOTH",
"572 352 LINE SMOOTH",
"555 273 OFFCURVE",
"548 226 OFFCURVE",
"548 181 CURVE SMOOTH",
"548 69 OFFCURVE",
"614 -5 OFFCURVE",
"729 -5 CURVE SMOOTH",
"803 -5 OFFCURVE",
"869 31 OFFCURVE",
"939 116 CURVE",
"903 209 LINE",
"847 142 OFFCURVE",
"808 114 OFFCURVE",
"764 114 CURVE SMOOTH",
"718 114 OFFCURVE",
"690 141 OFFCURVE",
"690 198 CURVE SMOOTH",
"690 229 OFFCURVE",
"694 254 OFFCURVE",
"700 284 CURVE SMOOTH",
"761 570 LINE SMOOTH",
"769 609 OFFCURVE",
"774 645 OFFCURVE",
"774 677 CURVE SMOOTH",
"774 776 OFFCURVE",
"722 848 OFFCURVE",
"609 848 CURVE SMOOTH",
"469 848 OFFCURVE",
"367 741 OFFCURVE",
"301 547 CURVE",
"310 609 OFFCURVE",
"317 668 OFFCURVE",
"317 715 CURVE SMOOTH",
"317 801 OFFCURVE",
"281 848 OFFCURVE",
"207 848 CURVE SMOOTH",
"118 848 OFFCURVE",
"36 797 OFFCURVE",
"-28 708 CURVE SMOOTH",
"-49 679 OFFCURVE",
"-56 661 OFFCURVE",
"-56 638 CURVE SMOOTH",
"-56 603 OFFCURVE",
"-20 573 OFFCURVE",
"10 613 CURVE SMOOTH",
"72 696 OFFCURVE",
"123 724 OFFCURVE",
"153 724 CURVE SMOOTH",
"173 724 OFFCURVE",
"186 713 OFFCURVE",
"186 679 CURVE SMOOTH",
"186 653 OFFCURVE",
"183 615 OFFCURVE",
"176 559 CURVE SMOOTH",
"149 333 OFFCURVE",
"108 159 OFFCURVE",
"108 84 CURVE SMOOTH",
"108 20 OFFCURVE",
"131 -5 OFFCURVE",
"177 -5 CURVE SMOOTH"
);
},
{
closed = 1;
nodes = (
"939 116 LINE",
"956 137 OFFCURVE",
"958 159 OFFCURVE",
"958 178 CURVE SMOOTH",
"958 205 OFFCURVE",
"948 223 OFFCURVE",
"930 223 CURVE SMOOTH",
"922 223 OFFCURVE",
"913 221 OFFCURVE",
"903 209 CURVE"
);
}
);
};
layerId = "ECEFE970-1BBB-4E0A-A452-CEB55884B4A3";
paths = (
{
closed = 1;
nodes = (
"922 223 OFFCURVE",
"913 221 OFFCURVE",
"903 209 CURVE SMOOTH",
"847 142 OFFCURVE",
"808 114 OFFCURVE",
"764 114 CURVE SMOOTH",
"718 114 OFFCURVE",
"690 141 OFFCURVE",
"690 198 CURVE SMOOTH",
"690 229 OFFCURVE",
"694 254 OFFCURVE",
"700 284 CURVE SMOOTH",
"761 570 LINE SMOOTH",
"769 609 OFFCURVE",
"774 645 OFFCURVE",
"774 677 CURVE SMOOTH",
"774 776 OFFCURVE",
"722 848 OFFCURVE",
"609 848 CURVE SMOOTH",
"469 848 OFFCURVE",
"367 741 OFFCURVE",
"301 547 CURVE",
"310 609 OFFCURVE",
"317 668 OFFCURVE",
"317 715 CURVE SMOOTH",
"317 801 OFFCURVE",
"281 848 OFFCURVE",
"207 848 CURVE SMOOTH",
"118 848 OFFCURVE",
"36 797 OFFCURVE",
"-28 708 CURVE SMOOTH",
"-49 679 OFFCURVE",
"-56 661 OFFCURVE",
"-56 638 CURVE SMOOTH",
"-56 603 OFFCURVE",
"-20 573 OFFCURVE",
"10 613 CURVE SMOOTH",
"72 696 OFFCURVE",
"123 724 OFFCURVE",
"153 724 CURVE SMOOTH",
"173 724 OFFCURVE",
"186 713 OFFCURVE",
"186 679 CURVE SMOOTH",
"186 653 OFFCURVE",
"183 615 OFFCURVE",
"176 559 CURVE SMOOTH",
"149 333 OFFCURVE",
"108 159 OFFCURVE",
"108 74 CURVE SMOOTH",
"108 10 OFFCURVE",
"131 -5 OFFCURVE",
"177 -5 CURVE SMOOTH",
"232 -5 OFFCURVE",
"242 25 OFFCURVE",
"250 86 CURVE SMOOTH",
"312 556 OFFCURVE",
"450 721 OFFCURVE",
"561 721 CURVE SMOOTH",
"606 721 OFFCURVE",
"630 692 OFFCURVE",
"630 651 CURVE SMOOTH",
"630 607 OFFCURVE",
"620 572 OFFCURVE",
"612 535 CURVE SMOOTH",
"572 352 LINE SMOOTH",
"555 273 OFFCURVE",
"548 226 OFFCURVE",
"548 181 CURVE SMOOTH",
"548 69 OFFCURVE",
"614 -5 OFFCURVE",
"729 -5 CURVE SMOOTH",
"803 -5 OFFCURVE",
"869 31 OFFCURVE",
"939 116 CURVE SMOOTH",
"956 137 OFFCURVE",
"958 159 OFFCURVE",
"958 178 CURVE SMOOTH",
"958 205 OFFCURVE",
"948 223 OFFCURVE",
"930 223 CURVE SMOOTH"
);
}
);
width = 824;
}
);
leftKerningGroup = N;
note = N;
rightKerningGroup = N;
unicode = 004E;
},
{
color = 3;
glyphname = NJ;
lastChange = "2016-07-30 21:03:13 +0000";
layers = (
{
components = (
{
name = N;
}
);
layerId = "ECEFE970-1BBB-4E0A-A452-CEB55884B4A3";
paths = (
{
closed = 1;
nodes = (
"1181 -107 OFFCURVE",
"1317 73 OFFCURVE",
"1382 556 CURVE SMOOTH",
"1395 653 OFFCURVE",
"1400 682 OFFCURVE",
"1406 739 CURVE",
"1264 739 LINE",
"1256 668 OFFCURVE",
"1250 624 OFFCURVE",
"1244 571 CURVE SMOOTH",
"1190 92 OFFCURVE",
"1091 0 OFFCURVE",
"1024 0 CURVE SMOOTH",
"987 0 OFFCURVE",
"963 25 OFFCURVE",
"964 74 CURVE SMOOTH",
"966 185 OFFCURVE",
"1060 285 OFFCURVE",
"1301 369 CURVE",
"1301 469 LINE",
"1057 394 OFFCURVE",
"835 259 OFFCURVE",
"835 58 CURVE SMOOTH",
"835 -33 OFFCURVE",
"896 -107 OFFCURVE",
"1011 -107 CURVE SMOOTH"
);
},
{
closed = 1;
nodes = (
"895 438 OFFCURVE",
"1001 493 OFFCURVE",
"969 548 CURVE SMOOTH",
"961 562 OFFCURVE",
"949 585 OFFCURVE",
"949 613 CURVE SMOOTH",
"949 695 OFFCURVE",
"1037 728 OFFCURVE",
"1150 728 CURVE SMOOTH",
"1219 728 OFFCURVE",
"1279 721 OFFCURVE",
"1383 708 CURVE SMOOTH",
"1437 701 OFFCURVE",
"1455 723 OFFCURVE",
"1455 767 CURVE SMOOTH",
"1455 791 OFFCURVE",
"1442 812 OFFCURVE",
"1398 823 CURVE SMOOTH",
"1334 839 OFFCURVE",
"1258 847 OFFCURVE",
"1180 847 CURVE SMOOTH",
"995 847 OFFCURVE",
"830 781 OFFCURVE",
"830 607 CURVE SMOOTH",
"830 566 OFFCURVE",
"841 528 OFFCURVE",
"858 500 CURVE SMOOTH"
);
}
);
width = 1380;
}
);
leftKerningGroup = N;
leftMetricsKey = N;
rightKerningGroup = J;
rightMetricsKey = J;
unicode = 01CA;
},
{
color = 3;
glyphname = Eng;
lastChange = "2016-07-30 21:02:51 +0000";
layers = (
{
background = {
paths = (
{
closed = 1;
nodes = (
"503 -347 OFFCURVE",
"589 -169 OFFCURVE",
"661 139 CURVE SMOOTH",
"729 430 LINE SMOOTH",
"744 492 OFFCURVE",
"769 598 OFFCURVE",
"769 682 CURVE SMOOTH",
"769 776 OFFCURVE",
"722 848 OFFCURVE",
"609 848 CURVE SMOOTH",
"469 848 OFFCURVE",
"367 741 OFFCURVE",
"301 547 CURVE",
"310 609 OFFCURVE",
"317 668 OFFCURVE",
"317 715 CURVE SMOOTH",
"317 801 OFFCURVE",
"281 848 OFFCURVE",
"207 848 CURVE SMOOTH",
"118 848 OFFCURVE",
"36 797 OFFCURVE",
"-28 708 CURVE SMOOTH",
"-49 679 OFFCURVE",
"-56 661 OFFCURVE",
"-56 638 CURVE SMOOTH",
"-56 615 OFFCURVE",
"-40 594 OFFCURVE",
"-21 594 CURVE SMOOTH",
"-11 594 OFFCURVE",
"0 599 OFFCURVE",
"10 613 CURVE SMOOTH",
"72 696 OFFCURVE",
"123 724 OFFCURVE",
"153 724 CURVE SMOOTH",
"173 724 OFFCURVE",
"186 713 OFFCURVE",
"186 679 CURVE SMOOTH",
"186 653 OFFCURVE",
"183 615 OFFCURVE",
"176 559 CURVE SMOOTH",
"149 333 OFFCURVE",
"108 159 OFFCURVE",
"108 84 CURVE SMOOTH",
"108 20 OFFCURVE",
"131 -5 OFFCURVE",
"177 -5 CURVE SMOOTH",
"232 -5 OFFCURVE",
"242 25 OFFCURVE",
"250 86 CURVE SMOOTH",
"312 556 OFFCURVE",
"450 721 OFFCURVE",
"561 721 CURVE SMOOTH",
"606 721 OFFCURVE",
"626 692 OFFCURVE",
"626 652 CURVE SMOOTH",
"626 597 OFFCURVE",
"606 517 OFFCURVE",
"584 415 CURVE SMOOTH",
"521 120 LINE SMOOTH",
"454 -198 OFFCURVE",
"409 -248 OFFCURVE",
"341 -248 CURVE SMOOTH",
"302 -248 OFFCURVE",
"260 -231 OFFCURVE",
"220 -176 CURVE SMOOTH",
"206 -156 OFFCURVE",
"188 -148 OFFCURVE",
"171 -148 CURVE SMOOTH",
"141 -148 OFFCURVE",
"113 -175 OFFCURVE",
"113 -208 CURVE SMOOTH",
"113 -220 OFFCURVE",
"117 -233 OFFCURVE",
"126 -246 CURVE SMOOTH",
"173 -314 OFFCURVE",
"253 -347 OFFCURVE",
"330 -347 CURVE SMOOTH"
);
},
{
closed = 1;
nodes = (
"824 -5 OFFCURVE",
"884 49 OFFCURVE",
"939 116 CURVE",
"903 209 LINE",
"847 142 OFFCURVE",
"813 116 OFFCURVE",
"769 116 CURVE SMOOTH",
"721 116 OFFCURVE",
"669 137 OFFCURVE",
"618 175 CURVE",
"594 51 LINE",
"634 20 OFFCURVE",
"682 -5 OFFCURVE",
"746 -5 CURVE SMOOTH"
);
}
);
};
layerId = "ECEFE970-1BBB-4E0A-A452-CEB55884B4A3";
paths = (
{
closed = 1;
nodes = (
"503 -347 OFFCURVE",
"589 -169 OFFCURVE",
"661 139 CURVE SMOOTH",
"729 430 LINE SMOOTH",
"744 492 OFFCURVE",
"769 598 OFFCURVE",
"769 682 CURVE SMOOTH",
"769 776 OFFCURVE",
"722 848 OFFCURVE",
"609 848 CURVE SMOOTH",
"469 848 OFFCURVE",
"367 741 OFFCURVE",
"301 547 CURVE",
"310 609 OFFCURVE",
"317 668 OFFCURVE",
"317 715 CURVE SMOOTH",
"317 801 OFFCURVE",
"281 848 OFFCURVE",
"207 848 CURVE SMOOTH",
"118 848 OFFCURVE",
"36 797 OFFCURVE",
"-28 708 CURVE SMOOTH",
"-49 679 OFFCURVE",
"-56 661 OFFCURVE",
"-56 638 CURVE SMOOTH",
"-56 615 OFFCURVE",
"-40 594 OFFCURVE",
"-21 594 CURVE SMOOTH",
"-11 594 OFFCURVE",
"0 599 OFFCURVE",
"10 613 CURVE SMOOTH",
"72 696 OFFCURVE",
"123 724 OFFCURVE",
"153 724 CURVE SMOOTH",
"173 724 OFFCURVE",
"186 713 OFFCURVE",
"186 679 CURVE SMOOTH",
"186 653 OFFCURVE",
"183 615 OFFCURVE",
"176 559 CURVE SMOOTH",
"149 333 OFFCURVE",
"108 159 OFFCURVE",
"108 84 CURVE SMOOTH",
"108 20 OFFCURVE",
"131 -5 OFFCURVE",
"177 -5 CURVE SMOOTH",
"232 -5 OFFCURVE",
"242 25 OFFCURVE",
"250 86 CURVE SMOOTH",
"312 556 OFFCURVE",
"450 721 OFFCURVE",
"561 721 CURVE SMOOTH",
"606 721 OFFCURVE",
"626 692 OFFCURVE",
"626 652 CURVE SMOOTH",
"626 597 OFFCURVE",
"606 517 OFFCURVE",
"584 415 CURVE SMOOTH",
"521 120 LINE SMOOTH",
"454 -198 OFFCURVE",
"409 -248 OFFCURVE",
"341 -248 CURVE SMOOTH",
"302 -248 OFFCURVE",
"260 -231 OFFCURVE",
"220 -176 CURVE SMOOTH",
"206 -156 OFFCURVE",
"188 -148 OFFCURVE",
"171 -148 CURVE SMOOTH",
"141 -148 OFFCURVE",
"113 -175 OFFCURVE",
"113 -208 CURVE SMOOTH",
"113 -220 OFFCURVE",
"117 -233 OFFCURVE",
"126 -246 CURVE SMOOTH",
"173 -314 OFFCURVE",
"253 -347 OFFCURVE",
"330 -347 CURVE SMOOTH"
);
},
{
closed = 1;
nodes = (
"922 223 OFFCURVE",
"913 221 OFFCURVE",
"903 209 CURVE SMOOTH",
"847 142 OFFCURVE",
"813 116 OFFCURVE",
"769 116 CURVE SMOOTH",
"721 116 OFFCURVE",
"669 137 OFFCURVE",
"618 175 CURVE",
"594 51 LINE",
"634 20 OFFCURVE",
"682 -5 OFFCURVE",
"746 -5 CURVE SMOOTH",
"824 -5 OFFCURVE",
"884 49 OFFCURVE",
"939 116 CURVE SMOOTH",
"956 137 OFFCURVE",
"958 159 OFFCURVE",
"958 178 CURVE SMOOTH",
"958 205 OFFCURVE",
"948 223 OFFCURVE",
"930 223 CURVE SMOOTH"
);
}
);
width = 824;
}
);
leftKerningGroup = N;
leftMetricsKey = N;
rightKerningGroup = N;
rightMetricsKey = N;
unicode = 014A;
},
{
color = 3;
glyphname = O;
lastChange = "2016-07-29 22:00:48 +0000";
layers = (
{
anchors = (
{
name = bottom;
position = "{386, 0}";
},
{
name = center;
position = "{408, 420}";
},
{
name = ogonek;
position = "{491, 10}";
},
{
name = top;
position = "{488, 840}";
},
{
name = topleft;
position = "{69, 840}";
},
{
name = topright;
position = "{665, 840}";
}
);
background = {
paths = (
{
closed = 1;
nodes = (
"617 -5 OFFCURVE",
"803 194 OFFCURVE",
"803 505 CURVE SMOOTH",
"803 729 OFFCURVE",
"661 848 OFFCURVE",
"487 848 CURVE SMOOTH",
"255 848 OFFCURVE",
"69 649 OFFCURVE",
"69 338 CURVE SMOOTH",
"69 114 OFFCURVE",
"211 -5 OFFCURVE",
"385 -5 CURVE SMOOTH"
);
},
{
closed = 1;
nodes = (
"298 117 OFFCURVE",
"220 192 OFFCURVE",
"220 356 CURVE SMOOTH",
"220 570 OFFCURVE",
"324 726 OFFCURVE",
"476 726 CURVE SMOOTH",
"574 726 OFFCURVE",
"652 651 OFFCURVE",
"652 487 CURVE SMOOTH",
"652 273 OFFCURVE",
"548 117 OFFCURVE",
"396 117 CURVE SMOOTH"
);
}
);
};
guideLines = (
{
angle = 90;
position = "{211, 354}";
},
{
angle = 90;
position = "{665, 354}";
},
{
position = "{391, 105}";
},
{
position = "{391, 738}";
}
);
layerId = "ECEFE970-1BBB-4E0A-A452-CEB55884B4A3";
paths = (
{
closed = 1;
nodes = (
"617 -5 OFFCURVE",
"803 194 OFFCURVE",
"803 505 CURVE SMOOTH",
"803 729 OFFCURVE",
"661 848 OFFCURVE",
"487 848 CURVE SMOOTH",
"255 848 OFFCURVE",
"69 649 OFFCURVE",
"69 338 CURVE SMOOTH",
"69 114 OFFCURVE",
"211 -5 OFFCURVE",
"385 -5 CURVE SMOOTH"
);
},
{
closed = 1;
nodes = (
"295 113 OFFCURVE",
"216 189 OFFCURVE",
"216 355 CURVE SMOOTH",
"216 576 OFFCURVE",
"322 730 OFFCURVE",
"477 730 CURVE SMOOTH",
"577 730 OFFCURVE",
"656 654 OFFCURVE",
"656 488 CURVE SMOOTH",
"656 271 OFFCURVE",
"554 113 OFFCURVE",
"395 113 CURVE SMOOTH"
);
}
);
width = 816;
}
);
leftKerningGroup = O;
note = O;
rightKerningGroup = O;
unicode = 004F;
},
{
color = 3;
glyphname = Ohorn;
lastChange = "2016-07-30 20:57:06 +0000";
layers = (
{
anchors = (
{
name = bottom;
position = "{386, 0}";
},
{
name = center;
position = "{408, 420}";
},
{
name = ogonek;
position = "{491, 10}";
},
{
name = top;
position = "{488, 840}";
},
{
name = topleft;
position = "{69, 840}";
},
{
name = topright;
position = "{673.84, 912}";
}
);
background = {
paths = (
{
closed = 1;
nodes = (
"617 -5 OFFCURVE",
"803 194 OFFCURVE",
"803 505 CURVE SMOOTH",
"803 729 OFFCURVE",
"661 848 OFFCURVE",
"487 848 CURVE SMOOTH",
"255 848 OFFCURVE",
"69 649 OFFCURVE",
"69 338 CURVE SMOOTH",
"69 114 OFFCURVE",
"211 -5 OFFCURVE",
"385 -5 CURVE SMOOTH"
);
},
{
closed = 1;
nodes = (
"295 113 OFFCURVE",
"216 189 OFFCURVE",
"216 355 CURVE SMOOTH",
"216 576 OFFCURVE",
"322 730 OFFCURVE",
"477 730 CURVE SMOOTH",
"577 730 OFFCURVE",
"656 654 OFFCURVE",
"656 488 CURVE SMOOTH",
"656 271 OFFCURVE",
"554 113 OFFCURVE",
"395 113 CURVE SMOOTH"
);
},
{
closed = 1;
nodes = (
"773 726 OFFCURVE",
"852 804 OFFCURVE",
"865 919 CURVE SMOOTH",
"871 972 OFFCURVE",
"845 997 OFFCURVE",
"807 997 CURVE SMOOTH",
"779 997 OFFCURVE",
"759 984 OFFCURVE",
"753 951 CURVE SMOOTH",
"740 881 OFFCURVE",
"717 840 OFFCURVE",
"665 840 CURVE",
"663 830 LINE",
"643 726 LINE"
);
}
);
};
layerId = "ECEFE970-1BBB-4E0A-A452-CEB55884B4A3";
paths = (
{
closed = 1;
nodes = (
"779 997 OFFCURVE",
"759 984 OFFCURVE",
"753 951 CURVE SMOOTH",
"740 881 OFFCURVE",
"717 834 OFFCURVE",
"645 834 CURVE SMOOTH",
"617 834 OFFCURVE",
"576 848 OFFCURVE",
"487 848 CURVE SMOOTH",
"255 848 OFFCURVE",
"69 649 OFFCURVE",
"69 338 CURVE SMOOTH",
"69 114 OFFCURVE",
"211 -5 OFFCURVE",
"385 -5 CURVE SMOOTH",
"617 -5 OFFCURVE",
"803 194 OFFCURVE",
"803 505 CURVE SMOOTH",
"803 604 OFFCURVE",
"775 678 OFFCURVE",
"734 734 CURVE",
"808 761 OFFCURVE",
"855 832 OFFCURVE",
"865 919 CURVE SMOOTH",
"871 972 OFFCURVE",
"845 997 OFFCURVE",
"807 997 CURVE SMOOTH"
);
},
{
closed = 1;
nodes = (
"295 113 OFFCURVE",
"216 189 OFFCURVE",
"216 355 CURVE SMOOTH",
"216 576 OFFCURVE",
"322 730 OFFCURVE",
"477 730 CURVE SMOOTH",
"577 730 OFFCURVE",
"656 654 OFFCURVE",
"656 488 CURVE SMOOTH",
"656 271 OFFCURVE",
"554 113 OFFCURVE",
"395 113 CURVE SMOOTH"
);
}
);
width = 816;
}
);
leftKerningGroup = O;
rightKerningGroup = O;
unicode = 01A0;
},
{
color = 3;
glyphname = Oslash;
lastChange = "2016-07-30 20:57:06 +0000";
layers = (
{
anchors = (
{
name = bottom;
position = "{398, -100}";
},
{
name = top;
position = "{486, 930}";
}
);
background = {
paths = (
{
closed = 1;
nodes = (
"392 455 LINE",
"254 -57 LINE SMOOTH",
"237 -119 OFFCURVE",
"345 -129 OFFCURVE",
"357 -84 CURVE SMOOTH",
"496 451 LINE",
"617 893 LINE SMOOTH",
"634 956 OFFCURVE",
"525 966 OFFCURVE",
"513 921 CURVE SMOOTH"
);
},
{
closed = 1;
nodes = (
"617 -5 OFFCURVE",
"803 194 OFFCURVE",
"803 505 CURVE SMOOTH",
"803 729 OFFCURVE",
"661 848 OFFCURVE",
"487 848 CURVE SMOOTH",
"255 848 OFFCURVE",
"69 649 OFFCURVE",
"69 338 CURVE SMOOTH",
"69 114 OFFCURVE",
"211 -5 OFFCURVE",
"385 -5 CURVE SMOOTH"
);
},
{
closed = 1;
nodes = (
"298 117 OFFCURVE",
"220 192 OFFCURVE",
"220 356 CURVE SMOOTH",
"220 570 OFFCURVE",
"324 726 OFFCURVE",
"476 726 CURVE SMOOTH",
"574 726 OFFCURVE",
"652 651 OFFCURVE",
"652 487 CURVE SMOOTH",
"652 273 OFFCURVE",
"548 117 OFFCURVE",
"396 117 CURVE SMOOTH"
);
}
);
};
guideLines = (
{
angle = 83.1811;
position = "{436, 422}";
}
);
layerId = "ECEFE970-1BBB-4E0A-A452-CEB55884B4A3";
paths = (
{
closed = 1;
nodes = (
"617 -5 OFFCURVE",
"803 194 OFFCURVE",
"803 505 CURVE SMOOTH",
"803 729 OFFCURVE",
"661 848 OFFCURVE",
"487 848 CURVE SMOOTH",
"255 848 OFFCURVE",
"69 649 OFFCURVE",
"69 338 CURVE SMOOTH",
"69 114 OFFCURVE",
"211 -5 OFFCURVE",
"385 -5 CURVE SMOOTH"
);
},
{
closed = 1;
nodes = (
"496 451 LINE",
"617 893 LINE SMOOTH",
"634 956 OFFCURVE",
"525 966 OFFCURVE",
"513 921 CURVE SMOOTH",
"392 455 LINE",
"254 -57 LINE SMOOTH",
"237 -119 OFFCURVE",
"345 -129 OFFCURVE",
"357 -84 CURVE SMOOTH"
);
},
{
closed = 1;
nodes = (
"295 113 OFFCURVE",
"216 189 OFFCURVE",
"216 355 CURVE SMOOTH",
"216 572 OFFCURVE",
"322 730 OFFCURVE",
"477 730 CURVE SMOOTH",
"577 730 OFFCURVE",
"656 654 OFFCURVE",
"656 488 CURVE SMOOTH",
"656 271 OFFCURVE",
"554 113 OFFCURVE",
"395 113 CURVE SMOOTH"
);
}
);
width = 816;
}
);
leftKerningGroup = O;
leftMetricsKey = O;
note = Oslash;
rightKerningGroup = O;
rightMetricsKey = O;
unicode = 00D8;
},
{
color = 3;
glyphname = OE;
lastChange = "2016-07-30 20:57:12 +0000";
layers = (
{
anchors = (
{
name = bottom;
position = "{659, 0}";
},
{
name = top;
position = "{727, 840}";
}
);
background = {
paths = (
{
closed = 1;
nodes = (
"617 -5 OFFCURVE",
"787 217 OFFCURVE",
"787 505 CURVE SMOOTH",
"787 724 OFFCURVE",
"661 848 OFFCURVE",
"487 848 CURVE SMOOTH",
"255 848 OFFCURVE",
"69 649 OFFCURVE",
"69 338 CURVE SMOOTH",
"69 114 OFFCURVE",
"211 -5 OFFCURVE",
"385 -5 CURVE SMOOTH"
);
},
{
closed = 1;
nodes = (
"295 113 OFFCURVE",
"216 189 OFFCURVE",
"216 355 CURVE SMOOTH",
"216 572 OFFCURVE",
"322 730 OFFCURVE",
"477 730 CURVE SMOOTH",
"577 730 OFFCURVE",
"656 654 OFFCURVE",
"656 488 CURVE SMOOTH",
"656 271 OFFCURVE",
"554 113 OFFCURVE",
"395 113 CURVE SMOOTH"
);
},
{
closed = 1;
nodes = (
"1044 -5 OFFCURVE",
"1154 27 OFFCURVE",
"1213 69 CURVE",
"1205 182 LINE",
"1118 139 OFFCURVE",
"1048 115 OFFCURVE",
"976 115 CURVE SMOOTH",
"807 115 OFFCURVE",
"766 212 OFFCURVE",
"800 361 CURVE",
"909 363 OFFCURVE",
"963 366 OFFCURVE",
"1058 368 CURVE SMOOTH",
"1101 369 OFFCURVE",
"1124 401 OFFCURVE",
"1124 441 CURVE SMOOTH",
"1124 471 OFFCURVE",
"1113 490 OFFCURVE",
"1071 490 CURVE SMOOTH",
"993 490 OFFCURVE",
"913 486 OFFCURVE",
"824 483 CURVE",
"840 556 OFFCURVE",
"862 650 OFFCURVE",
"882 710 CURVE",
"923 715 OFFCURVE",
"1030 720 OFFCURVE",
"1122 720 CURVE SMOOTH",
"1174 720 OFFCURVE",
"1194 759 OFFCURVE",
"1194 795 CURVE SMOOTH",
"1194 832 OFFCURVE",
"1179 849 OFFCURVE",
"1130 849 CURVE SMOOTH",
"1034 849 OFFCURVE",
"964 844 OFFCURVE",
"880 840 CURVE SMOOTH",
"813 837 OFFCURVE",
"765 801 OFFCURVE",
"745 727 CURVE SMOOTH",
"664 431 LINE",
"655 264 LINE",
"649 121 OFFCURVE",
"731 -5 OFFCURVE",
"953 -5 CURVE SMOOTH"
);
}
);
};
layerId = "ECEFE970-1BBB-4E0A-A452-CEB55884B4A3";
paths = (
{
closed = 1;
nodes = (
"617 -5 OFFCURVE",
"787 217 OFFCURVE",
"787 505 CURVE SMOOTH",
"787 724 OFFCURVE",
"661 848 OFFCURVE",
"487 848 CURVE SMOOTH",
"255 848 OFFCURVE",
"69 649 OFFCURVE",
"69 338 CURVE SMOOTH",
"69 114 OFFCURVE",
"211 -5 OFFCURVE",
"385 -5 CURVE SMOOTH"
);
},
{
closed = 1;
nodes = (
"295 113 OFFCURVE",
"216 189 OFFCURVE",
"216 355 CURVE SMOOTH",
"216 572 OFFCURVE",
"322 730 OFFCURVE",
"477 730 CURVE SMOOTH",
"577 730 OFFCURVE",
"656 654 OFFCURVE",
"656 488 CURVE SMOOTH",
"656 271 OFFCURVE",
"554 113 OFFCURVE",
"395 113 CURVE SMOOTH"
);
},
{
closed = 1;
nodes = (
"1044 -5 OFFCURVE",
"1154 26 OFFCURVE",
"1213 69 CURVE SMOOTH",
"1246 93 OFFCURVE",
"1255 118 OFFCURVE",
"1255 146 CURVE SMOOTH",
"1255 176 OFFCURVE",
"1236 198 OFFCURVE",
"1205 182 CURVE SMOOTH",
"1119 137 OFFCURVE",
"1048 115 OFFCURVE",
"976 115 CURVE SMOOTH",
"807 115 OFFCURVE",
"766 212 OFFCURVE",
"800 361 CURVE",
"909 363 OFFCURVE",
"963 366 OFFCURVE",
"1058 368 CURVE SMOOTH",
"1101 369 OFFCURVE",
"1124 401 OFFCURVE",
"1124 441 CURVE SMOOTH",
"1124 471 OFFCURVE",
"1113 490 OFFCURVE",
"1071 490 CURVE SMOOTH",
"993 490 OFFCURVE",
"913 486 OFFCURVE",
"824 483 CURVE",
"840 556 OFFCURVE",
"862 650 OFFCURVE",
"882 710 CURVE",
"923 715 OFFCURVE",
"1030 720 OFFCURVE",
"1122 720 CURVE SMOOTH",
"1174 720 OFFCURVE",
"1194 759 OFFCURVE",
"1194 795 CURVE SMOOTH",
"1194 832 OFFCURVE",
"1179 849 OFFCURVE",
"1130 849 CURVE SMOOTH",
"1034 849 OFFCURVE",
"964 844 OFFCURVE",
"880 840 CURVE SMOOTH",
"813 837 OFFCURVE",
"765 801 OFFCURVE",
"745 727 CURVE SMOOTH",
"664 431 LINE",
"655 264 LINE",
"649 121 OFFCURVE",
"731 -5 OFFCURVE",
"953 -5 CURVE SMOOTH"
);
}
);
width = 1134;
}
);
leftKerningGroup = O;
leftMetricsKey = O;
note = OE;
unicode = 0152;
},
{
color = 3;
glyphname = P;
lastChange = "2016-07-30 21:01:04 +0000";
layers = (
{
background = {
paths = (
{
closed = 1;
nodes = (
"493 428 OFFCURVE",
"517 568 CURVE SMOOTH",
"527 622 OFFCURVE",
"512 646 OFFCURVE",
"458 646 CURVE SMOOTH",
"418 646 OFFCURVE",
"382 632 OFFCURVE",
"373 583 CURVE SMOOTH",
"345 434 OFFCURVE",
"316 252 OFFCURVE",
"286 85 CURVE SMOOTH",
"278 41 OFFCURVE",
"266 16 OFFCURVE",
"248 16 CURVE SMOOTH",
"213 16 OFFCURVE",
"166 96 OFFCURVE",
"166 227 CURVE SMOOTH",
"166 520 OFFCURVE",
"296 732 OFFCURVE",
"515 732 CURVE SMOOTH",
"624 732 OFFCURVE",
"678 664 OFFCURVE",
"678 577 CURVE SMOOTH",
"678 474 OFFCURVE",
"621 372 OFFCURVE",
"408 372 CURVE SMOOTH",
"371 372 OFFCURVE",
"332 375 OFFCURVE",
"299 381 CURVE SMOOTH",
"261 388 OFFCURVE",
"237 369 OFFCURVE",
"237 332 CURVE SMOOTH",
"237 310 OFFCURVE",
"241 287 OFFCURVE",
"285 279 CURVE SMOOTH",
"318 273 OFFCURVE",
"368 269 OFFCURVE",
"414 269 CURVE SMOOTH",
"681 269 OFFCURVE",
"832 417 OFFCURVE",
"832 596 CURVE SMOOTH",
"832 735 OFFCURVE",
"733 846 OFFCURVE",
"540 846 CURVE SMOOTH",
"282 846 OFFCURVE",
"55 642 OFFCURVE",
"55 219 CURVE SMOOTH",
"55 -6 OFFCURVE",
"163 -109 OFFCURVE",
"281 -109 CURVE SMOOTH",
"350 -109 OFFCURVE",
"407 -63 OFFCURVE",
"425 30 CURVE SMOOTH",
"466 256 OFFCURVE"
);
}
);
};
layerId = "ECEFE970-1BBB-4E0A-A452-CEB55884B4A3";
paths = (
{
closed = 1;
nodes = (
"355 -109 OFFCURVE",
"400 -63 OFFCURVE",
"417 30 CURVE SMOOTH",
"459 256 OFFCURVE",
"486 428 OFFCURVE",
"511 568 CURVE SMOOTH",
"520 622 OFFCURVE",
"505 646 OFFCURVE",
"451 646 CURVE SMOOTH",
"418 646 OFFCURVE",
"382 632 OFFCURVE",
"373 583 CURVE SMOOTH",
"345 434 OFFCURVE",
"316 252 OFFCURVE",
"286 85 CURVE SMOOTH",
"278 41 OFFCURVE",
"266 16 OFFCURVE",
"248 16 CURVE SMOOTH",
"213 16 OFFCURVE",
"166 96 OFFCURVE",
"166 227 CURVE SMOOTH",
"166 524 OFFCURVE",
"296 736 OFFCURVE",
"505 736 CURVE SMOOTH",
"633 736 OFFCURVE",
"683 668 OFFCURVE",
"683 587 CURVE SMOOTH",
"683 472 OFFCURVE",
"626 370 OFFCURVE",
"408 370 CURVE SMOOTH",
"371 370 OFFCURVE",
"332 373 OFFCURVE",
"299 379 CURVE SMOOTH",
"261 386 OFFCURVE",
"237 367 OFFCURVE",
"237 332 CURVE SMOOTH",
"237 310 OFFCURVE",
"241 287 OFFCURVE",
"285 279 CURVE SMOOTH",
"318 273 OFFCURVE",
"368 269 OFFCURVE",
"414 269 CURVE SMOOTH",
"681 269 OFFCURVE",
"832 417 OFFCURVE",
"832 596 CURVE SMOOTH",
"832 735 OFFCURVE",
"733 846 OFFCURVE",
"540 846 CURVE SMOOTH",
"282 846 OFFCURVE",
"55 642 OFFCURVE",
"55 219 CURVE SMOOTH",
"55 -6 OFFCURVE",
"163 -109 OFFCURVE",
"281 -109 CURVE SMOOTH"
);
}
);
width = 807;
}
);
leftKerningGroup = P;
note = P;
rightKerningGroup = P;
unicode = 0050;
},
{
color = 3;
glyphname = Thorn;
lastChange = "2016-07-30 21:01:26 +0000";
layers = (
{
background = {
paths = (
{
closed = 1;
nodes = (
"495 549 OFFCURVE",
"536 854 CURVE SMOOTH",
"542 898 OFFCURVE",
"533 938 OFFCURVE",
"474 938 CURVE SMOOTH",
"436 938 OFFCURVE",
"397 924 OFFCURVE",
"389 865 CURVE SMOOTH",
"356 619 OFFCURVE",
"318 369 OFFCURVE",
"266 85 CURVE SMOOTH",
"258 41 OFFCURVE",
"246 16 OFFCURVE",
"228 16 CURVE SMOOTH",
"193 16 OFFCURVE",
"174 126 OFFCURVE",
"174 207 CURVE SMOOTH",
"174 470 OFFCURVE",
"276 622 OFFCURVE",
"477 622 CURVE SMOOTH",
"601 622 OFFCURVE",
"648 564 OFFCURVE",
"648 487 CURVE SMOOTH",
"648 404 OFFCURVE",
"598 306 OFFCURVE",
"396 306 CURVE SMOOTH",
"361 306 OFFCURVE",
"322 309 OFFCURVE",
"289 315 CURVE SMOOTH",
"251 322 OFFCURVE",
"229 303 OFFCURVE",
"229 266 CURVE SMOOTH",
"229 244 OFFCURVE",
"231 221 OFFCURVE",
"275 213 CURVE SMOOTH",
"308 207 OFFCURVE",
"358 203 OFFCURVE",
"404 203 CURVE SMOOTH",
"668 203 OFFCURVE",
"802 347 OFFCURVE",
"802 506 CURVE SMOOTH",
"802 635 OFFCURVE",
"700 733 OFFCURVE",
"498 733 CURVE SMOOTH",
"223 733 OFFCURVE",
"63 528 OFFCURVE",
"63 202 CURVE SMOOTH",
"63 14 OFFCURVE",
"150 -109 OFFCURVE",
"261 -109 CURVE SMOOTH",
"330 -109 OFFCURVE",
"387 -63 OFFCURVE",
"405 30 CURVE SMOOTH",
"463 332 OFFCURVE"
);
}
);
};
layerId = "ECEFE970-1BBB-4E0A-A452-CEB55884B4A3";
paths = (
{
closed = 1;
nodes = (
"336 -109 OFFCURVE",
"377 -63 OFFCURVE",
"395 30 CURVE SMOOTH",
"453 332 OFFCURVE",
"487 549 OFFCURVE",
"531 874 CURVE SMOOTH",
"537 918 OFFCURVE",
"523 938 OFFCURVE",
"469 938 CURVE SMOOTH",
"436 938 OFFCURVE",
"397 924 OFFCURVE",
"392 885 CURVE SMOOTH",
"356 619 OFFCURVE",
"318 369 OFFCURVE",
"266 85 CURVE SMOOTH",
"258 41 OFFCURVE",
"246 16 OFFCURVE",
"228 16 CURVE SMOOTH",
"193 16 OFFCURVE",
"174 126 OFFCURVE",
"174 207 CURVE SMOOTH",
"174 470 OFFCURVE",
"279 625 OFFCURVE",
"477 625 CURVE SMOOTH",
"605 625 OFFCURVE",
"652 567 OFFCURVE",
"652 487 CURVE SMOOTH",
"652 404 OFFCURVE",
"602 306 OFFCURVE",
"396 306 CURVE SMOOTH",
"361 306 OFFCURVE",
"322 309 OFFCURVE",
"289 315 CURVE SMOOTH",
"251 322 OFFCURVE",
"229 303 OFFCURVE",
"229 266 CURVE SMOOTH",
"229 244 OFFCURVE",
"231 223 OFFCURVE",
"275 215 CURVE SMOOTH",
"308 209 OFFCURVE",
"358 205 OFFCURVE",
"404 205 CURVE SMOOTH",
"668 205 OFFCURVE",
"802 347 OFFCURVE",
"802 506 CURVE SMOOTH",
"802 635 OFFCURVE",
"700 733 OFFCURVE",
"498 733 CURVE SMOOTH",
"233 733 OFFCURVE",
"63 528 OFFCURVE",
"63 202 CURVE SMOOTH",
"63 14 OFFCURVE",
"150 -109 OFFCURVE",
"261 -109 CURVE SMOOTH"
);
}
);
width = 791;
}
);
leftKerningGroup = R;
note = Thorn;
rightKerningGroup = Thorn;
unicode = 00DE;
},
{
color = 3;
glyphname = Q;
lastChange = "2016-07-30 20:57:12 +0000";
layers = (
{
background = {
paths = (
{
closed = 1;
nodes = (
"858 -96 OFFCURVE",
"848 -99 OFFCURVE",
"838 -112 CURVE SMOOTH",
"786 -180 OFFCURVE",
"748 -207 OFFCURVE",
"704 -207 CURVE SMOOTH",
"652 -207 OFFCURVE",
"619 -170 OFFCURVE",
"592 -104 CURVE SMOOTH",
"559 -23 OFFCURVE",
"531 10 OFFCURVE",
"479 27 CURVE",
"480 8 LINE",
"665 54 OFFCURVE",
"803 234 OFFCURVE",
"803 505 CURVE SMOOTH",
"803 729 OFFCURVE",
"661 848 OFFCURVE",
"487 848 CURVE SMOOTH",
"255 848 OFFCURVE",
"69 649 OFFCURVE",
"69 338 CURVE SMOOTH",
"69 148 OFFCURVE",
"171 30 OFFCURVE",
"315 1 CURVE SMOOTH",
"374 -11 OFFCURVE",
"394 -38 OFFCURVE",
"445 -156 CURVE SMOOTH",
"494 -270 OFFCURVE",
"546 -326 OFFCURVE",
"666 -326 CURVE SMOOTH",
"740 -326 OFFCURVE",
"822 -283 OFFCURVE",
"869 -197 CURVE SMOOTH",
"881 -175 OFFCURVE",
"886 -152 OFFCURVE",
"886 -134 CURVE SMOOTH",
"886 -111 OFFCURVE",
"878 -96 OFFCURVE",
"865 -96 CURVE SMOOTH"
);
},
{
closed = 1;
nodes = (
"298 117 OFFCURVE",
"220 192 OFFCURVE",
"220 356 CURVE SMOOTH",
"220 570 OFFCURVE",
"324 726 OFFCURVE",
"476 726 CURVE SMOOTH",
"574 726 OFFCURVE",
"652 651 OFFCURVE",
"652 487 CURVE SMOOTH",
"652 273 OFFCURVE",
"548 117 OFFCURVE",
"396 117 CURVE SMOOTH"
);
}
);
};
layerId = "ECEFE970-1BBB-4E0A-A452-CEB55884B4A3";
paths = (
{
closed = 1;
nodes = (
"740 -326 OFFCURVE",
"822 -283 OFFCURVE",
"869 -197 CURVE SMOOTH",
"881 -175 OFFCURVE",
"886 -152 OFFCURVE",
"886 -134 CURVE SMOOTH",
"886 -111 OFFCURVE",
"878 -96 OFFCURVE",
"865 -96 CURVE SMOOTH",
"858 -96 OFFCURVE",
"848 -99 OFFCURVE",
"838 -112 CURVE SMOOTH",
"786 -180 OFFCURVE",
"748 -208 OFFCURVE",
"704 -208 CURVE SMOOTH",
"652 -208 OFFCURVE",
"619 -178 OFFCURVE",
"589 -104 CURVE SMOOTH",
"556 -23 OFFCURVE",
"531 10 OFFCURVE",
"479 27 CURVE",
"480 8 LINE",
"665 54 OFFCURVE",
"803 234 OFFCURVE",
"803 505 CURVE SMOOTH",
"803 729 OFFCURVE",
"661 848 OFFCURVE",
"487 848 CURVE SMOOTH",
"255 848 OFFCURVE",
"69 649 OFFCURVE",
"69 338 CURVE SMOOTH",
"69 148 OFFCURVE",
"171 30 OFFCURVE",
"315 1 CURVE SMOOTH",
"374 -11 OFFCURVE",
"394 -38 OFFCURVE",
"445 -156 CURVE SMOOTH",
"494 -270 OFFCURVE",
"546 -326 OFFCURVE",
"666 -326 CURVE SMOOTH"
);
},
{
closed = 1;
nodes = (
"295 113 OFFCURVE",
"216 189 OFFCURVE",
"216 355 CURVE SMOOTH",
"216 572 OFFCURVE",
"322 730 OFFCURVE",
"477 730 CURVE SMOOTH",
"577 730 OFFCURVE",
"656 654 OFFCURVE",
"656 488 CURVE SMOOTH",
"656 271 OFFCURVE",
"554 113 OFFCURVE",
"395 113 CURVE SMOOTH"
);
}
);
width = 816;
}
);
leftKerningGroup = O;
leftMetricsKey = O;
widthMetricsKey = O;
note = Q;
rightKerningGroup = O;
unicode = 0051;
},
{
color = 3;
glyphname = R;
lastChange = "2016-07-29 22:48:41 +0000";
layers = (
{
anchors = (
{
name = bottom;
position = "{510, 0}";
},
{
name = top;
position = "{520, 840}";
}
);
background = {
paths = (
{
closed = 1;
nodes = (
"375 -5 OFFCURVE",
"408 46 OFFCURVE",
"420 121 CURVE SMOOTH",
"452 319 OFFCURVE",
"480 458 OFFCURVE",
"502 585 CURVE SMOOTH",
"508 623 OFFCURVE",
"496 653 OFFCURVE",
"446 653 CURVE SMOOTH",
"410 653 OFFCURVE",
"372 640 OFFCURVE",
"362 588 CURVE SMOOTH",
"338 463 OFFCURVE",
"314 303 OFFCURVE",
"288 165 CURVE SMOOTH",
"281 125 OFFCURVE",
"270 110 OFFCURVE",
"253 110 CURVE SMOOTH",
"222 110 OFFCURVE",
"172 175 OFFCURVE",
"172 312 CURVE SMOOTH",
"172 592 OFFCURVE",
"306 737 OFFCURVE",
"499 737 CURVE SMOOTH",
"611 737 OFFCURVE",
"668 685 OFFCURVE",
"668 602 CURVE SMOOTH",
"668 491 OFFCURVE",
"573 419 OFFCURVE",
"461 419 CURVE SMOOTH",
"365 419 OFFCURVE",
"336 419 OFFCURVE",
"307 419 CURVE SMOOTH",
"282 419 OFFCURVE",
"256 400 OFFCURVE",
"256 367 CURVE SMOOTH",
"256 347 OFFCURVE",
"264 315 OFFCURVE",
"315 315 CURVE",
"452 341 LINE",
"701 341 OFFCURVE",
"818 487 OFFCURVE",
"818 622 CURVE SMOOTH",
"818 747 OFFCURVE",
"728 846 OFFCURVE",
"529 846 CURVE SMOOTH",
"254 846 OFFCURVE",
"63 647 OFFCURVE",
"63 305 CURVE SMOOTH",
"63 123 OFFCURVE",
"152 -5 OFFCURVE",
"289 -5 CURVE SMOOTH"
);
},
{
closed = 1;
nodes = (
"883 -5 OFFCURVE",
"943 49 OFFCURVE",
"998 116 CURVE",
"962 209 LINE",
"906 142 OFFCURVE",
"872 114 OFFCURVE",
"828 114 CURVE SMOOTH",
"778 114 OFFCURVE",
"745 153 OFFCURVE",
"709 230 CURVE SMOOTH",
"665 325 OFFCURVE",
"629 369 OFFCURVE",
"467 369 CURVE",
"429 315 LINE",
"501 315 OFFCURVE",
"519 294 OFFCURVE",
"588 150 CURVE SMOOTH",
"643 35 OFFCURVE",
"700 -5 OFFCURVE",
"785 -5 CURVE SMOOTH"
);
}
);
};
layerId = "ECEFE970-1BBB-4E0A-A452-CEB55884B4A3";
paths = (
{
closed = 1;
nodes = (
"375 -5 OFFCURVE",
"408 46 OFFCURVE",
"420 121 CURVE SMOOTH",
"452 319 OFFCURVE",
"480 458 OFFCURVE",
"502 585 CURVE SMOOTH",
"508 623 OFFCURVE",
"496 653 OFFCURVE",
"446 653 CURVE SMOOTH",
"410 653 OFFCURVE",
"372 640 OFFCURVE",
"362 588 CURVE SMOOTH",
"338 463 OFFCURVE",
"314 303 OFFCURVE",
"288 165 CURVE SMOOTH",
"281 125 OFFCURVE",
"270 110 OFFCURVE",
"253 110 CURVE SMOOTH",
"222 110 OFFCURVE",
"172 175 OFFCURVE",
"172 312 CURVE SMOOTH",
"172 592 OFFCURVE",
"306 737 OFFCURVE",
"499 737 CURVE SMOOTH",
"611 737 OFFCURVE",
"668 685 OFFCURVE",
"668 602 CURVE SMOOTH",
"668 491 OFFCURVE",
"573 419 OFFCURVE",
"461 419 CURVE SMOOTH",
"365 419 OFFCURVE",
"336 419 OFFCURVE",
"307 419 CURVE SMOOTH",
"282 419 OFFCURVE",
"256 400 OFFCURVE",
"256 367 CURVE SMOOTH",
"256 347 OFFCURVE",
"264 315 OFFCURVE",
"315 315 CURVE",
"452 341 LINE",
"701 341 OFFCURVE",
"818 487 OFFCURVE",
"818 622 CURVE SMOOTH",
"818 747 OFFCURVE",
"728 846 OFFCURVE",
"529 846 CURVE SMOOTH",
"254 846 OFFCURVE",
"63 647 OFFCURVE",
"63 305 CURVE SMOOTH",
"63 123 OFFCURVE",
"152 -5 OFFCURVE",
"289 -5 CURVE SMOOTH"
);
},
{
closed = 1;
nodes = (
"1015 137 OFFCURVE",
"1017 159 OFFCURVE",
"1017 178 CURVE SMOOTH",
"1017 205 OFFCURVE",
"1007 223 OFFCURVE",
"989 223 CURVE SMOOTH",
"981 223 OFFCURVE",
"972 221 OFFCURVE",
"962 209 CURVE SMOOTH",
"906 142 OFFCURVE",
"872 114 OFFCURVE",
"828 114 CURVE SMOOTH",
"778 114 OFFCURVE",
"745 153 OFFCURVE",
"709 230 CURVE SMOOTH",
"665 325 OFFCURVE",
"629 369 OFFCURVE",
"467 369 CURVE",
"429 315 LINE",
"501 315 OFFCURVE",
"519 294 OFFCURVE",
"588 150 CURVE SMOOTH",
"643 35 OFFCURVE",
"700 -5 OFFCURVE",
"785 -5 CURVE SMOOTH",
"883 -5 OFFCURVE",
"943 49 OFFCURVE",
"998 116 CURVE SMOOTH"
);
}
);
width = 883;
}
);
note = R;
unicode = 0052;
},
{
color = 3;
glyphname = S;
lastChange = "2016-07-30 21:01:36 +0000";
layers = (
{
anchors = (
{
name = bottom;
position = "{341, 0}";
},
{
name = top;
position = "{437, 840}";
}
);
background = {
paths = (
{
closed = 1;
nodes = (
"668 488 OFFCURVE",
"259 443 OFFCURVE",
"259 620 CURVE SMOOTH",
"259 692 OFFCURVE",
"320 736 OFFCURVE",
"432 736 CURVE SMOOTH",
"509 736 OFFCURVE",
"575 708 OFFCURVE",
"575 654 CURVE SMOOTH",
"575 622 OFFCURVE",
"569 610 OFFCURVE",
"569 581 CURVE SMOOTH",
"569 552 OFFCURVE",
"594 527 OFFCURVE",
"630 527 CURVE SMOOTH",
"683 527 OFFCURVE",
"709 570 OFFCURVE",
"709 654 CURVE SMOOTH",
"709 788 OFFCURVE",
"582 849 OFFCURVE",
"437 849 CURVE SMOOTH",
"237 849 OFFCURVE",
"117 747 OFFCURVE",
"117 601 CURVE SMOOTH",
"117 336 OFFCURVE",
"526 382 OFFCURVE",
"526 217 CURVE SMOOTH",
"526 147 OFFCURVE",
"458 105 OFFCURVE",
"349 105 CURVE SMOOTH",
"242 105 OFFCURVE",
"176 133 OFFCURVE",
"176 190 CURVE SMOOTH",
"176 219 OFFCURVE",
"182 231 OFFCURVE",
"182 260 CURVE SMOOTH",
"182 289 OFFCURVE",
"157 310 OFFCURVE",
"121 310 CURVE SMOOTH",
"68 310 OFFCURVE",
"42 271 OFFCURVE",
"42 197 CURVE SMOOTH",
"42 52 OFFCURVE",
"168 -8 OFFCURVE",
"339 -8 CURVE SMOOTH",
"533 -8 OFFCURVE",
"668 76 OFFCURVE",
"668 239 CURVE SMOOTH"
);
}
);
};
layerId = "ECEFE970-1BBB-4E0A-A452-CEB55884B4A3";
paths = (
{
closed = 1;
nodes = (
"533 -8 OFFCURVE",
"668 76 OFFCURVE",
"668 237 CURVE SMOOTH",
"668 488 OFFCURVE",
"255 443 OFFCURVE",
"255 620 CURVE SMOOTH",
"255 696 OFFCURVE",
"316 740 OFFCURVE",
"432 740 CURVE SMOOTH",
"509 740 OFFCURVE",
"575 712 OFFCURVE",
"575 654 CURVE SMOOTH",
"575 622 OFFCURVE",
"569 610 OFFCURVE",
"569 581 CURVE SMOOTH",
"569 552 OFFCURVE",
"594 527 OFFCURVE",
"630 527 CURVE SMOOTH",
"679 527 OFFCURVE",
"705 570 OFFCURVE",
"705 654 CURVE SMOOTH",
"705 788 OFFCURVE",
"578 849 OFFCURVE",
"437 849 CURVE SMOOTH",
"237 849 OFFCURVE",
"117 747 OFFCURVE",
"117 603 CURVE SMOOTH",
"117 336 OFFCURVE",
"530 382 OFFCURVE",
"530 217 CURVE SMOOTH",
"530 143 OFFCURVE",
"462 101 OFFCURVE",
"349 101 CURVE SMOOTH",
"242 101 OFFCURVE",
"176 129 OFFCURVE",
"176 190 CURVE SMOOTH",
"176 219 OFFCURVE",
"182 231 OFFCURVE",
"182 260 CURVE SMOOTH",
"182 289 OFFCURVE",
"157 310 OFFCURVE",
"121 310 CURVE SMOOTH",
"72 310 OFFCURVE",
"46 271 OFFCURVE",
"46 197 CURVE SMOOTH",
"46 52 OFFCURVE",
"172 -8 OFFCURVE",
"339 -8 CURVE SMOOTH"
);
}
);
width = 695;
}
);
leftKerningGroup = S;
note = S;
rightKerningGroup = S;
unicode = 0053;
},
{
color = 3;
glyphname = Germandbls;
lastChange = "2016-07-29 13:56:15 +0000";
layers = (
{
background = {
paths = (
{
closed = 1;
nodes = (
"719 475 OFFCURVE",
"833 560 OFFCURVE",
"833 686 CURVE SMOOTH",
"833 781 OFFCURVE",
"752 848 OFFCURVE",
"640 848 CURVE SMOOTH",
"482 848 OFFCURVE",
"351 739 OFFCURVE",
"274 479 CURVE",
"277 469 LINE",
"308 630 OFFCURVE",
"334 718 OFFCURVE",
"347 782 CURVE SMOOTH",
"357 829 OFFCURVE",
"342 852 OFFCURVE",
"285 852 CURVE SMOOTH",
"247 852 OFFCURVE",
"212 839 OFFCURVE",
"200 794 CURVE SMOOTH",
"161 649 OFFCURVE",
"113 328 OFFCURVE",
"98 73 CURVE SMOOTH",
"95 24 OFFCURVE",
"122 -5 OFFCURVE",
"165 -5 CURVE SMOOTH",
"216 -5 OFFCURVE",
"241 26 OFFCURVE",
"248 86 CURVE SMOOTH",
"299 481 OFFCURVE",
"440 725 OFFCURVE",
"595 725 CURVE SMOOTH",
"650 725 OFFCURVE",
"679 698 OFFCURVE",
"679 652 CURVE SMOOTH",
"679 574 OFFCURVE",
"607 524 OFFCURVE",
"473 492 CURVE SMOOTH",
"427 481 OFFCURVE",
"419 382 OFFCURVE",
"467 380 CURVE SMOOTH",
"580 376 OFFCURVE",
"662 348 OFFCURVE",
"662 244 CURVE SMOOTH",
"662 159 OFFCURVE",
"586 76 OFFCURVE",
"431 46 CURVE SMOOTH",
"375 35 OFFCURVE",
"369 -59 OFFCURVE",
"486 -44 CURVE SMOOTH",
"670 -20 OFFCURVE",
"814 100 OFFCURVE",
"814 252 CURVE SMOOTH",
"814 368 OFFCURVE",
"723 449 OFFCURVE",
"585 451 CURVE",
"589 440 LINE"
);
}
);
};
layerId = "ECEFE970-1BBB-4E0A-A452-CEB55884B4A3";
paths = (
{
closed = 1;
nodes = (
"670 -20 OFFCURVE",
"814 100 OFFCURVE",
"814 252 CURVE SMOOTH",
"814 368 OFFCURVE",
"723 449 OFFCURVE",
"585 451 CURVE",
"589 440 LINE",
"719 475 OFFCURVE",
"833 560 OFFCURVE",
"833 686 CURVE SMOOTH",
"833 781 OFFCURVE",
"752 848 OFFCURVE",
"640 848 CURVE SMOOTH",
"482 848 OFFCURVE",
"351 739 OFFCURVE",
"274 479 CURVE",
"277 469 LINE",
"308 630 OFFCURVE",
"334 718 OFFCURVE",
"347 782 CURVE SMOOTH",
"357 829 OFFCURVE",
"344 852 OFFCURVE",
"295 852 CURVE SMOOTH",
"257 852 OFFCURVE",
"222 839 OFFCURVE",
"210 794 CURVE SMOOTH",
"171 649 OFFCURVE",
"122 328 OFFCURVE",
"106 73 CURVE SMOOTH",
"102 4 OFFCURVE",
"132 -5 OFFCURVE",
"172 -5 CURVE SMOOTH",
"218 -5 OFFCURVE",
"239 16 OFFCURVE",
"248 86 CURVE SMOOTH",
"299 485 OFFCURVE",
"440 729 OFFCURVE",
"595 729 CURVE SMOOTH",
"653 729 OFFCURVE",
"682 702 OFFCURVE",
"682 652 CURVE SMOOTH",
"682 574 OFFCURVE",
"610 522 OFFCURVE",
"473 490 CURVE SMOOTH",
"427 479 OFFCURVE",
"419 384 OFFCURVE",
"467 382 CURVE SMOOTH",
"583 378 OFFCURVE",
"665 348 OFFCURVE",
"665 244 CURVE SMOOTH",
"665 159 OFFCURVE",
"589 73 OFFCURVE",
"431 43 CURVE SMOOTH",
"375 32 OFFCURVE",
"369 -59 OFFCURVE",
"486 -44 CURVE SMOOTH"
);
}
);
width = 858;
}
);
unicode = 1E9E;
},
{
color = 3;
glyphname = Schwa;
lastChange = "2016-07-29 22:49:19 +0000";
layers = (
{
anchors = (
{
name = bottom;
position = "{380, 0}";
},
{
name = top;
position = "{457, 840}";
}
);
background = {
paths = (
{
closed = 1;
nodes = (
"2407 -5 OFFCURVE",
"2593 194 OFFCURVE",
"2593 505 CURVE SMOOTH",
"2593 729 OFFCURVE",
"2451 848 OFFCURVE",
"2277 848 CURVE SMOOTH",
"2045 848 OFFCURVE",
"1859 649 OFFCURVE",
"1859 338 CURVE SMOOTH",
"1859 114 OFFCURVE",
"2001 -5 OFFCURVE",
"2175 -5 CURVE SMOOTH"
);
},
{
closed = 1;
nodes = (
"2085 113 OFFCURVE",
"2006 189 OFFCURVE",
"2006 355 CURVE SMOOTH",
"2006 576 OFFCURVE",
"2112 730 OFFCURVE",
"2267 730 CURVE SMOOTH",
"2367 730 OFFCURVE",
"2446 654 OFFCURVE",
"2446 488 CURVE SMOOTH",
"2446 271 OFFCURVE",
"2344 113 OFFCURVE",
"2185 113 CURVE SMOOTH"
);
},
{
closed = 1;
nodes = (
"557 726 OFFCURVE",
"635 658 OFFCURVE",
"635 476 CURVE SMOOTH",
"635 237 OFFCURVE",
"503 109 OFFCURVE",
"375 109 CURVE SMOOTH",
"305 109 OFFCURVE",
"278 145 OFFCURVE",
"278 200 CURVE SMOOTH",
"278 224 OFFCURVE",
"288 259 OFFCURVE",
"288 281 CURVE SMOOTH",
"288 315 OFFCURVE",
"264 333 OFFCURVE",
"228 333 CURVE SMOOTH",
"174 333 OFFCURVE",
"145 276 OFFCURVE",
"145 197 CURVE SMOOTH",
"145 81 OFFCURVE",
"216 -5 OFFCURVE",
"365 -5 CURVE SMOOTH",
"590 -5 OFFCURVE",
"782 194 OFFCURVE",
"782 493 CURVE SMOOTH",
"782 729 OFFCURVE",
"640 848 OFFCURVE",
"452 848 CURVE SMOOTH",
"355 848 OFFCURVE",
"253 808 OFFCURVE",
"171 722 CURVE SMOOTH",
"120 668 OFFCURVE",
"147 568 OFFCURVE",
"208 625 CURVE SMOOTH",
"283 695 OFFCURVE",
"352 726 OFFCURVE",
"432 726 CURVE SMOOTH"
);
},
{
closed = 1;
nodes = (
"1225 848 OFFCURVE",
"1120 814 OFFCURVE",
"1048 742 CURVE SMOOTH",
"996 690 OFFCURVE",
"1024 568 OFFCURVE",
"1085 625 CURVE SMOOTH",
"1160 695 OFFCURVE",
"1242 726 OFFCURVE",
"1327 726 CURVE SMOOTH",
"1447 726 OFFCURVE",
"1536 654 OFFCURVE",
"1536 488 CURVE SMOOTH",
"1536 271 OFFCURVE",
"1444 113 OFFCURVE",
"1282 113 CURVE SMOOTH",
"1175 113 OFFCURVE",
"1096 179 OFFCURVE",
"1096 356 CURVE",
"1053 332 LINE",
"1571 332 LINE",
"1571 442 LINE",
"1034 442 LINE SMOOTH",
"982 442 OFFCURVE",
"949 405 OFFCURVE",
"949 328 CURVE SMOOTH",
"949 114 OFFCURVE",
"1091 -5 OFFCURVE",
"1270 -5 CURVE SMOOTH",
"1507 -5 OFFCURVE",
"1683 194 OFFCURVE",
"1683 505 CURVE SMOOTH",
"1683 729 OFFCURVE",
"1531 848 OFFCURVE",
"1347 848 CURVE SMOOTH"
);
}
);
};
guideLines = (
{
angle = 90;
position = "{191, 354}";
},
{
angle = 90;
position = "{645, 354}";
},
{
position = "{371, 105}";
},
{
position = "{371, 738}";
}
);
layerId = "ECEFE970-1BBB-4E0A-A452-CEB55884B4A3";
paths = (
{
closed = 1;
nodes = (
"607 -5 OFFCURVE",
"783 194 OFFCURVE",
"783 495 CURVE SMOOTH",
"783 729 OFFCURVE",
"641 848 OFFCURVE",
"457 848 CURVE SMOOTH",
"347 848 OFFCURVE",
"246 814 OFFCURVE",
"174 742 CURVE SMOOTH",
"122 690 OFFCURVE",
"144 568 OFFCURVE",
"205 625 CURVE SMOOTH",
"280 695 OFFCURVE",
"362 726 OFFCURVE",
"437 726 CURVE SMOOTH",
"547 726 OFFCURVE",
"636 654 OFFCURVE",
"636 488 CURVE SMOOTH",
"636 271 OFFCURVE",
"544 111 OFFCURVE",
"392 111 CURVE SMOOTH",
"295 111 OFFCURVE",
"210 169 OFFCURVE",
"216 356 CURVE",
"173 332 LINE",
"671 332 LINE",
"671 442 LINE",
"154 442 LINE SMOOTH",
"102 442 OFFCURVE",
"69 405 OFFCURVE",
"69 328 CURVE SMOOTH",
"69 114 OFFCURVE",
"201 -5 OFFCURVE",
"380 -5 CURVE SMOOTH"
);
}
);
width = 796;
}
);
leftKerningGroup = O;
leftMetricsKey = O;
rightKerningGroup = O;
rightMetricsKey = O;
unicode = 018F;
},
{
color = 3;
glyphname = T;
lastChange = "2016-07-30 21:06:29 +0000";
layers = (
{
anchors = (
{
name = bottom;
position = "{335, 0}";
},
{
name = center;
position = "{386, 420}";
},
{
name = top;
position = "{468, 840}";
}
);
background = {
paths = (
{
closed = 1;
nodes = (
"2033 638 OFFCURVE",
"2036 627 OFFCURVE",
"2042 618 CURVE SMOOTH",
"2052 603 OFFCURVE",
"2072 587 OFFCURVE",
"2111 587 CURVE SMOOTH",
"2130 587 OFFCURVE",
"2145 590 OFFCURVE",
"2156 597 CURVE SMOOTH",
"2176 610 OFFCURVE",
"2186 625 OFFCURVE",
"2188 639 CURVE",
"2188 645 OFFCURVE",
"2189 649 OFFCURVE",
"2189 649 CURVE SMOOTH",
"2189 674 OFFCURVE",
"2203 692 OFFCURVE",
"2225 705 CURVE SMOOTH",
"2246 718 OFFCURVE",
"2276 726 OFFCURVE",
"2310 732 CURVE SMOOTH",
"2343 738 OFFCURVE",
"2379 740 OFFCURVE",
"2414 743 CURVE",
"2374 619 OFFCURVE",
"2340 520 OFFCURVE",
"2310 436 CURVE SMOOTH",
"2280 352 OFFCURVE",
"2257 284 OFFCURVE",
"2238 222 CURVE SMOOTH",
"2219 160 OFFCURVE",
"2205 104 OFFCURVE",
"2197 45 CURVE",
"2195 38 OFFCURVE",
"2194 31 OFFCURVE",
"2194 24 CURVE SMOOTH",
"2194 -15 OFFCURVE",
"2221 -31 OFFCURVE",
"2258 -31 CURVE SMOOTH",
"2270 -31 OFFCURVE",
"2285 -23 OFFCURVE",
"2299 -10 CURVE SMOOTH",
"2313 3 OFFCURVE",
"2323 23 OFFCURVE",
"2329 45 CURVE SMOOTH",
"2336 69 OFFCURVE",
"2343 98 OFFCURVE",
"2352 131 CURVE SMOOTH",
"2361 165 OFFCURVE",
"2372 202 OFFCURVE",
"2383 241 CURVE SMOOTH",
"2405 320 OFFCURVE",
"2430 409 OFFCURVE",
"2452 497 CURVE SMOOTH",
"2474 584 OFFCURVE",
"2493 670 OFFCURVE",
"2504 743 CURVE",
"2571 739 OFFCURVE",
"2633 732 OFFCURVE",
"2692 726 CURVE SMOOTH",
"2751 720 OFFCURVE",
"2805 713 OFFCURVE",
"2855 713 CURVE SMOOTH",
"2870 713 OFFCURVE",
"2883 720 OFFCURVE",
"2893 730 CURVE SMOOTH",
"2903 740 OFFCURVE",
"2909 753 OFFCURVE",
"2909 766 CURVE SMOOTH",
"2909 787 OFFCURVE",
"2898 806 OFFCURVE",
"2867 812 CURVE SMOOTH",
"2732 838 OFFCURVE",
"2608 844 OFFCURVE",
"2495 844 CURVE SMOOTH",
"2411 844 OFFCURVE",
"2332 840 OFFCURVE",
"2264 830 CURVE SMOOTH",
"2195 820 OFFCURVE",
"2137 802 OFFCURVE",
"2097 773 CURVE SMOOTH",
"2056 744 OFFCURVE",
"2032 704 OFFCURVE",
"2032 649 CURVE"
);
},
{
closed = 1;
nodes = (
"1280 720 OFFCURVE",
"1356 717 OFFCURVE",
"1457 717 CURVE SMOOTH",
"1535 717 OFFCURVE",
"1653 720 OFFCURVE",
"1717 732 CURVE SMOOTH",
"1761 740 OFFCURVE",
"1779 764 OFFCURVE",
"1779 788 CURVE SMOOTH",
"1779 832 OFFCURVE",
"1756 855 OFFCURVE",
"1702 851 CURVE SMOOTH",
"1598 843 OFFCURVE",
"1526 840 OFFCURVE",
"1437 840 CURVE SMOOTH",
"1356 840 OFFCURVE",
"1281 847 OFFCURVE",
"1190 847 CURVE SMOOTH",
"1147 847 OFFCURVE",
"1124 834 OFFCURVE",
"1124 799 CURVE SMOOTH",
"1124 750 OFFCURVE",
"1157 730 OFFCURVE",
"1219 725 CURVE SMOOTH"
);
},
{
closed = 1;
nodes = (
"1251 601 OFFCURVE",
"1238 525 OFFCURVE",
"1205 345 CURVE SMOOTH",
"1182 218 OFFCURVE",
"1160 105 OFFCURVE",
"1160 50 CURVE SMOOTH",
"1160 15 OFFCURVE",
"1183 -5 OFFCURVE",
"1235 -5 CURVE SMOOTH",
"1277 -5 OFFCURVE",
"1316 14 OFFCURVE",
"1316 55 CURVE SMOOTH",
"1316 108 OFFCURVE",
"1338 267 OFFCURVE",
"1355 357 CURVE SMOOTH",
"1386 521 OFFCURVE",
"1397 598 OFFCURVE",
"1429 765 CURVE",
"1279 754 LINE"
);
},
{
closed = 1;
nodes = (
"82 460 OFFCURVE",
"163 510 OFFCURVE",
"139 548 CURVE SMOOTH",
"130 562 OFFCURVE",
"119 585 OFFCURVE",
"119 613 CURVE SMOOTH",
"119 695 OFFCURVE",
"197 724 OFFCURVE",
"490 724 CURVE SMOOTH",
"609 724 OFFCURVE",
"671 719 OFFCURVE",
"775 711 CURVE SMOOTH",
"829 707 OFFCURVE",
"852 730 OFFCURVE",
"852 774 CURVE SMOOTH",
"852 798 OFFCURVE",
"834 822 OFFCURVE",
"790 830 CURVE SMOOTH",
"726 842 OFFCURVE",
"648 847 OFFCURVE",
"540 847 CURVE SMOOTH",
"165 847 OFFCURVE",
"0 781 OFFCURVE",
"0 611 CURVE SMOOTH",
"0 556 OFFCURVE",
"20 513 OFFCURVE",
"46 491 CURVE SMOOTH"
);
}
);
};
layerId = "ECEFE970-1BBB-4E0A-A452-CEB55884B4A3";
paths = (
{
closed = 1;
nodes = (
"82 460 OFFCURVE",
"163 510 OFFCURVE",
"139 548 CURVE SMOOTH",
"130 562 OFFCURVE",
"119 585 OFFCURVE",
"119 613 CURVE SMOOTH",
"119 695 OFFCURVE",
"197 727 OFFCURVE",
"466 727 CURVE SMOOTH",
"625 727 OFFCURVE",
"687 722 OFFCURVE",
"791 714 CURVE SMOOTH",
"845 710 OFFCURVE",
"868 730 OFFCURVE",
"868 774 CURVE SMOOTH",
"868 798 OFFCURVE",
"850 822 OFFCURVE",
"806 830 CURVE SMOOTH",
"742 842 OFFCURVE",
"664 847 OFFCURVE",
"516 847 CURVE SMOOTH",
"165 847 OFFCURVE",
"0 781 OFFCURVE",
"0 611 CURVE SMOOTH",
"0 556 OFFCURVE",
"20 513 OFFCURVE",
"46 491 CURVE SMOOTH"
);
},
{
closed = 1;
nodes = (
"372 -5 OFFCURVE",
"408 14 OFFCURVE",
"411 55 CURVE SMOOTH",
"417 128 OFFCURVE",
"435 267 OFFCURVE",
"450 357 CURVE SMOOTH",
"478 521 OFFCURVE",
"498 627 OFFCURVE",
"526 765 CURVE",
"382 754 LINE",
"356 620 OFFCURVE",
"331 515 OFFCURVE",
"307 355 CURVE SMOOTH",
"288 228 OFFCURVE",
"265 105 OFFCURVE",
"265 53 CURVE SMOOTH",
"265 19 OFFCURVE",
"289 -5 OFFCURVE",
"334 -5 CURVE SMOOTH"
);
}
);
width = 637;
}
);
leftKerningGroup = T;
note = T;
rightKerningGroup = T;
unicode = 0054;
},
{
color = 3;
glyphname = U;
lastChange = "2016-07-29 21:54:17 +0000";
layers = (
{
anchors = (
{
name = bottom;
position = "{398, 0}";
},
{
name = ogonek;
position = "{828, 10}";
},
{
name = top;
position = "{493, 840}";
},
{
name = topright;
position = "{751, 840}";
}
);
background = {
paths = (
{
closed = 1;
nodes = (
"427 -5 OFFCURVE",
"529 102 OFFCURVE",
"595 296 CURVE",
"586 234 OFFCURVE",
"579 185 OFFCURVE",
"579 148 CURVE SMOOTH",
"579 62 OFFCURVE",
"635 -5 OFFCURVE",
"750 -5 CURVE SMOOTH",
"824 -5 OFFCURVE",
"890 31 OFFCURVE",
"960 116 CURVE",
"924 209 LINE",
"868 142 OFFCURVE",
"829 114 OFFCURVE",
"785 114 CURVE SMOOTH",
"745 114 OFFCURVE",
"717 141 OFFCURVE",
"717 198 CURVE SMOOTH",
"717 224 OFFCURVE",
"720 248 OFFCURVE",
"725 284 CURVE SMOOTH",
"753 510 OFFCURVE",
"794 684 OFFCURVE",
"794 759 CURVE SMOOTH",
"794 823 OFFCURVE",
"771 848 OFFCURVE",
"725 848 CURVE SMOOTH",
"670 848 OFFCURVE",
"660 818 OFFCURVE",
"652 757 CURVE SMOOTH",
"590 287 OFFCURVE",
"446 122 OFFCURVE",
"335 122 CURVE SMOOTH",
"290 122 OFFCURVE",
"266 151 OFFCURVE",
"266 192 CURVE SMOOTH",
"266 236 OFFCURVE",
"276 271 OFFCURVE",
"284 308 CURVE SMOOTH",
"325 491 LINE SMOOTH",
"343 570 OFFCURVE",
"356 627 OFFCURVE",
"356 702 CURVE SMOOTH",
"356 801 OFFCURVE",
"305 848 OFFCURVE",
"226 848 CURVE SMOOTH",
"110 848 OFFCURVE",
"35 774 OFFCURVE",
"-13 708 CURVE SMOOTH",
"-34 679 OFFCURVE",
"-41 656 OFFCURVE",
"-41 638 CURVE SMOOTH",
"-41 603 OFFCURVE",
"-5 573 OFFCURVE",
"25 613 CURVE SMOOTH",
"87 696 OFFCURVE",
"142 729 OFFCURVE",
"179 729 CURVE SMOOTH",
"199 729 OFFCURVE",
"214 715 OFFCURVE",
"214 681 CURVE SMOOTH",
"214 630 OFFCURVE",
"203 589 OFFCURVE",
"197 559 CURVE SMOOTH",
"135 273 LINE SMOOTH",
"127 234 OFFCURVE",
"122 198 OFFCURVE",
"122 166 CURVE SMOOTH",
"122 67 OFFCURVE",
"175 -5 OFFCURVE",
"292 -5 CURVE SMOOTH"
);
}
);
};
layerId = "ECEFE970-1BBB-4E0A-A452-CEB55884B4A3";
paths = (
{
closed = 1;
nodes = (
"977 137 OFFCURVE",
"979 159 OFFCURVE",
"979 178 CURVE SMOOTH",
"979 205 OFFCURVE",
"969 223 OFFCURVE",
"951 223 CURVE SMOOTH",
"943 223 OFFCURVE",
"934 221 OFFCURVE",
"924 209 CURVE SMOOTH",
"868 142 OFFCURVE",
"829 114 OFFCURVE",
"785 114 CURVE SMOOTH",
"745 114 OFFCURVE",
"717 141 OFFCURVE",
"717 198 CURVE SMOOTH",
"717 224 OFFCURVE",
"720 248 OFFCURVE",
"725 284 CURVE SMOOTH",
"753 510 OFFCURVE",
"794 684 OFFCURVE",
"794 759 CURVE SMOOTH",
"794 823 OFFCURVE",
"771 848 OFFCURVE",
"725 848 CURVE SMOOTH",
"670 848 OFFCURVE",
"660 818 OFFCURVE",
"652 757 CURVE SMOOTH",
"590 287 OFFCURVE",
"446 122 OFFCURVE",
"335 122 CURVE SMOOTH",
"290 122 OFFCURVE",
"266 151 OFFCURVE",
"266 192 CURVE SMOOTH",
"266 236 OFFCURVE",
"276 271 OFFCURVE",
"284 308 CURVE SMOOTH",
"325 491 LINE SMOOTH",
"343 570 OFFCURVE",
"356 627 OFFCURVE",
"356 702 CURVE SMOOTH",
"356 801 OFFCURVE",
"305 848 OFFCURVE",
"226 848 CURVE SMOOTH",
"110 848 OFFCURVE",
"35 774 OFFCURVE",
"-13 708 CURVE SMOOTH",
"-34 679 OFFCURVE",
"-41 656 OFFCURVE",
"-41 638 CURVE SMOOTH",
"-41 603 OFFCURVE",
"-5 573 OFFCURVE",
"25 613 CURVE SMOOTH",
"87 696 OFFCURVE",
"142 729 OFFCURVE",
"179 729 CURVE SMOOTH",
"199 729 OFFCURVE",
"214 715 OFFCURVE",
"214 681 CURVE SMOOTH",
"214 630 OFFCURVE",
"203 589 OFFCURVE",
"197 559 CURVE SMOOTH",
"135 273 LINE SMOOTH",
"127 234 OFFCURVE",
"122 198 OFFCURVE",
"122 166 CURVE SMOOTH",
"122 67 OFFCURVE",
"175 -5 OFFCURVE",
"292 -5 CURVE SMOOTH",
"427 -5 OFFCURVE",
"529 102 OFFCURVE",
"595 296 CURVE",
"586 234 OFFCURVE",
"579 185 OFFCURVE",
"579 148 CURVE SMOOTH",
"579 62 OFFCURVE",
"635 -5 OFFCURVE",
"750 -5 CURVE SMOOTH",
"824 -5 OFFCURVE",
"890 31 OFFCURVE",
"960 116 CURVE SMOOTH"
);
}
);
width = 845;
}
);
note = U;
unicode = 0055;
},
{
color = 3;
glyphname = Uhorn;
lastChange = "2016-07-29 21:57:55 +0000";
layers = (
{
anchors = (
{
name = bottom;
position = "{398, 0}";
},
{
name = ogonek;
position = "{828, 10}";
},
{
name = top;
position = "{493, 840}";
},
{
name = topright;
position = "{759.84, 912}";
}
);
background = {
paths = (
{
closed = 1;
nodes = (
"977 137 OFFCURVE",
"979 159 OFFCURVE",
"979 178 CURVE SMOOTH",
"979 205 OFFCURVE",
"969 223 OFFCURVE",
"951 223 CURVE SMOOTH",
"943 223 OFFCURVE",
"934 221 OFFCURVE",
"924 209 CURVE SMOOTH",
"868 142 OFFCURVE",
"829 114 OFFCURVE",
"785 114 CURVE SMOOTH",
"745 114 OFFCURVE",
"717 141 OFFCURVE",
"717 198 CURVE SMOOTH",
"717 224 OFFCURVE",
"720 248 OFFCURVE",
"725 284 CURVE SMOOTH",
"753 510 OFFCURVE",
"794 684 OFFCURVE",
"794 759 CURVE SMOOTH",
"794 823 OFFCURVE",
"771 848 OFFCURVE",
"725 848 CURVE SMOOTH",
"670 848 OFFCURVE",
"660 818 OFFCURVE",
"652 757 CURVE SMOOTH",
"590 287 OFFCURVE",
"446 122 OFFCURVE",
"335 122 CURVE SMOOTH",
"290 122 OFFCURVE",
"266 151 OFFCURVE",
"266 192 CURVE SMOOTH",
"266 236 OFFCURVE",
"276 271 OFFCURVE",
"284 308 CURVE SMOOTH",
"325 491 LINE SMOOTH",
"343 570 OFFCURVE",
"356 627 OFFCURVE",
"356 702 CURVE SMOOTH",
"356 801 OFFCURVE",
"305 848 OFFCURVE",
"226 848 CURVE SMOOTH",
"110 848 OFFCURVE",
"35 774 OFFCURVE",
"-13 708 CURVE SMOOTH",
"-34 679 OFFCURVE",
"-41 656 OFFCURVE",
"-41 638 CURVE SMOOTH",
"-41 603 OFFCURVE",
"-5 573 OFFCURVE",
"25 613 CURVE SMOOTH",
"87 696 OFFCURVE",
"142 729 OFFCURVE",
"179 729 CURVE SMOOTH",
"199 729 OFFCURVE",
"214 715 OFFCURVE",
"214 681 CURVE SMOOTH",
"214 630 OFFCURVE",
"203 589 OFFCURVE",
"197 559 CURVE SMOOTH",
"135 273 LINE SMOOTH",
"127 234 OFFCURVE",
"122 198 OFFCURVE",
"122 166 CURVE SMOOTH",
"122 67 OFFCURVE",
"175 -5 OFFCURVE",
"292 -5 CURVE SMOOTH",
"427 -5 OFFCURVE",
"529 102 OFFCURVE",
"595 296 CURVE",
"586 234 OFFCURVE",
"579 185 OFFCURVE",
"579 148 CURVE SMOOTH",
"579 62 OFFCURVE",
"635 -5 OFFCURVE",
"750 -5 CURVE SMOOTH",
"824 -5 OFFCURVE",
"890 31 OFFCURVE",
"960 116 CURVE SMOOTH"
);
},
{
closed = 1;
nodes = (
"859 726 OFFCURVE",
"938 804 OFFCURVE",
"951 919 CURVE SMOOTH",
"957 972 OFFCURVE",
"931 997 OFFCURVE",
"893 997 CURVE SMOOTH",
"865 997 OFFCURVE",
"845 984 OFFCURVE",
"839 951 CURVE SMOOTH",
"826 881 OFFCURVE",
"803 840 OFFCURVE",
"751 840 CURVE",
"729 726 LINE"
);
}
);
};
layerId = "ECEFE970-1BBB-4E0A-A452-CEB55884B4A3";
paths = (
{
closed = 1;
nodes = (
"943 223 OFFCURVE",
"934 221 OFFCURVE",
"924 209 CURVE SMOOTH",
"868 142 OFFCURVE",
"829 114 OFFCURVE",
"785 114 CURVE SMOOTH",
"745 114 OFFCURVE",
"717 141 OFFCURVE",
"717 198 CURVE SMOOTH",
"717 224 OFFCURVE",
"720 248 OFFCURVE",
"725 284 CURVE SMOOTH",
"750 487 OFFCURVE",
"786 648 OFFCURVE",
"793 733 CURVE",
"885 755 OFFCURVE",
"940 824 OFFCURVE",
"951 919 CURVE SMOOTH",
"957 972 OFFCURVE",
"931 997 OFFCURVE",
"893 997 CURVE SMOOTH",
"865 997 OFFCURVE",
"845 984 OFFCURVE",
"839 951 CURVE SMOOTH",
"826 881 OFFCURVE",
"797 848 OFFCURVE",
"725 848 CURVE SMOOTH",
"670 848 OFFCURVE",
"660 818 OFFCURVE",
"652 757 CURVE SMOOTH",
"590 287 OFFCURVE",
"446 122 OFFCURVE",
"335 122 CURVE SMOOTH",
"290 122 OFFCURVE",
"266 151 OFFCURVE",
"266 192 CURVE SMOOTH",
"266 236 OFFCURVE",
"276 271 OFFCURVE",
"284 308 CURVE SMOOTH",
"325 491 LINE SMOOTH",
"343 570 OFFCURVE",
"356 627 OFFCURVE",
"356 702 CURVE SMOOTH",
"356 801 OFFCURVE",
"305 848 OFFCURVE",
"226 848 CURVE SMOOTH",
"110 848 OFFCURVE",
"35 774 OFFCURVE",
"-13 708 CURVE SMOOTH",
"-34 679 OFFCURVE",
"-41 656 OFFCURVE",
"-41 638 CURVE SMOOTH",
"-41 603 OFFCURVE",
"-5 573 OFFCURVE",
"25 613 CURVE SMOOTH",
"87 696 OFFCURVE",
"142 729 OFFCURVE",
"179 729 CURVE SMOOTH",
"199 729 OFFCURVE",
"214 715 OFFCURVE",
"214 681 CURVE SMOOTH",
"214 630 OFFCURVE",
"203 589 OFFCURVE",
"197 559 CURVE SMOOTH",
"135 273 LINE SMOOTH",
"127 234 OFFCURVE",
"122 198 OFFCURVE",
"122 166 CURVE SMOOTH",
"122 67 OFFCURVE",
"175 -5 OFFCURVE",
"292 -5 CURVE SMOOTH",
"427 -5 OFFCURVE",
"529 102 OFFCURVE",
"595 296 CURVE",
"586 234 OFFCURVE",
"579 185 OFFCURVE",
"579 148 CURVE SMOOTH",
"579 62 OFFCURVE",
"635 -5 OFFCURVE",
"750 -5 CURVE SMOOTH",
"824 -5 OFFCURVE",
"890 31 OFFCURVE",
"960 116 CURVE SMOOTH",
"977 137 OFFCURVE",
"979 159 OFFCURVE",
"979 178 CURVE SMOOTH",
"979 205 OFFCURVE",
"969 223 OFFCURVE",
"951 223 CURVE SMOOTH"
);
}
);
width = 845;
}
);
unicode = 01AF;
},
{
color = 3;
glyphname = V;
lastChange = "2016-07-30 21:05:55 +0000";
layers = (
{
background = {
paths = (
{
closed = 1;
nodes = (
"560 -5 OFFCURVE",
"794 420 OFFCURVE",
"794 692 CURVE SMOOTH",
"794 800 OFFCURVE",
"740 864 OFFCURVE",
"655 864 CURVE SMOOTH",
"553 864 OFFCURVE",
"469 786 OFFCURVE",
"469 622 CURVE SMOOTH",
"469 442 OFFCURVE",
"589 321 OFFCURVE",
"855 329 CURVE",
"885 432 LINE",
"658 432 OFFCURVE",
"570 489 OFFCURVE",
"570 629 CURVE SMOOTH",
"570 709 OFFCURVE",
"597 750 OFFCURVE",
"631 750 CURVE SMOOTH",
"654 750 OFFCURVE",
"672 728 OFFCURVE",
"672 669 CURVE SMOOTH",
"672 501 OFFCURVE",
"497 131 OFFCURVE",
"367 131 CURVE SMOOTH",
"299 131 OFFCURVE",
"265 240 OFFCURVE",
"265 443 CURVE SMOOTH",
"265 537 OFFCURVE",
"274 643 OFFCURVE",
"295 769 CURVE SMOOTH",
"304 822 OFFCURVE",
"283 848 OFFCURVE",
"231 848 CURVE SMOOTH",
"176 848 OFFCURVE",
"161 826 OFFCURVE",
"149 759 CURVE SMOOTH",
"129 647 OFFCURVE",
"124 540 OFFCURVE",
"124 443 CURVE SMOOTH",
"124 182 OFFCURVE",
"185 -5 OFFCURVE",
"330 -5 CURVE SMOOTH"
);
}
);
};
layerId = "ECEFE970-1BBB-4E0A-A452-CEB55884B4A3";
paths = (
{
closed = 1;
nodes = (
"560 -5 OFFCURVE",
"794 420 OFFCURVE",
"794 692 CURVE SMOOTH",
"794 800 OFFCURVE",
"740 864 OFFCURVE",
"655 864 CURVE SMOOTH",
"553 864 OFFCURVE",
"469 786 OFFCURVE",
"469 622 CURVE SMOOTH",
"469 442 OFFCURVE",
"589 324 OFFCURVE",
"845 329 CURVE SMOOTH",
"894 330 OFFCURVE",
"909 367 OFFCURVE",
"909 396 CURVE SMOOTH",
"909 416 OFFCURVE",
"897 432 OFFCURVE",
"865 432 CURVE SMOOTH",
"662 432 OFFCURVE",
"570 489 OFFCURVE",
"570 629 CURVE SMOOTH",
"570 709 OFFCURVE",
"597 750 OFFCURVE",
"631 750 CURVE SMOOTH",
"654 750 OFFCURVE",
"672 728 OFFCURVE",
"672 669 CURVE SMOOTH",
"672 501 OFFCURVE",
"497 131 OFFCURVE",
"367 131 CURVE SMOOTH",
"299 131 OFFCURVE",
"265 240 OFFCURVE",
"265 443 CURVE SMOOTH",
"265 537 OFFCURVE",
"274 643 OFFCURVE",
"295 769 CURVE SMOOTH",
"304 822 OFFCURVE",
"283 848 OFFCURVE",
"231 848 CURVE SMOOTH",
"176 848 OFFCURVE",
"161 826 OFFCURVE",
"149 759 CURVE SMOOTH",
"129 647 OFFCURVE",
"124 540 OFFCURVE",
"124 443 CURVE SMOOTH",
"124 182 OFFCURVE",
"185 -5 OFFCURVE",
"330 -5 CURVE SMOOTH"
);
}
);
width = 736;
}
);
leftKerningGroup = V;
note = V;
rightKerningGroup = V;
unicode = 0056;
},
{
color = 3;
glyphname = W;
lastChange = "2016-07-30 21:05:55 +0000";
layers = (
{
anchors = (
{
name = bottom;
position = "{557, 0}";
},
{
name = top;
position = "{702, 840}";
}
);
background = {
paths = (
{
closed = 1;
nodes = (
"1016 -5 OFFCURVE",
"1250 420 OFFCURVE",
"1250 692 CURVE SMOOTH",
"1250 800 OFFCURVE",
"1196 864 OFFCURVE",
"1111 864 CURVE SMOOTH",
"1009 864 OFFCURVE",
"925 786 OFFCURVE",
"925 622 CURVE SMOOTH",
"925 442 OFFCURVE",
"1045 321 OFFCURVE",
"1311 329 CURVE",
"1341 432 LINE",
"1114 432 OFFCURVE",
"1026 489 OFFCURVE",
"1026 629 CURVE SMOOTH",
"1026 709 OFFCURVE",
"1053 750 OFFCURVE",
"1087 750 CURVE SMOOTH",
"1110 750 OFFCURVE",
"1128 728 OFFCURVE",
"1128 669 CURVE SMOOTH",
"1128 501 OFFCURVE",
"953 131 OFFCURVE",
"833 131 CURVE SMOOTH",
"748 131 OFFCURVE",
"734 241 OFFCURVE",
"734 443 CURVE SMOOTH",
"734 537 OFFCURVE",
"741 647 OFFCURVE",
"762 769 CURVE SMOOTH",
"771 822 OFFCURVE",
"755 848 OFFCURVE",
"704 848 CURVE",
"653 759 LINE",
"584 411 OFFCURVE",
"590 -5 OFFCURVE",
"796 -5 CURVE SMOOTH"
);
},
{
closed = 1;
nodes = (
"478 -5 OFFCURVE",
"628 221 OFFCURVE",
"714 763 CURVE",
"704 848 LINE",
"658 848 OFFCURVE",
"627 832 OFFCURVE",
"616 767 CURVE SMOOTH",
"544 341 OFFCURVE",
"416 131 OFFCURVE",
"350 131 CURVE SMOOTH",
"273 131 OFFCURVE",
"235 357 OFFCURVE",
"295 760 CURVE SMOOTH",
"306 833 OFFCURVE",
"274 848 OFFCURVE",
"234 848 CURVE SMOOTH",
"181 848 OFFCURVE",
"160 826 OFFCURVE",
"150 759 CURVE SMOOTH",
"88 341 OFFCURVE",
"135 -5 OFFCURVE",
"318 -5 CURVE SMOOTH"
);
}
);
};
layerId = "ECEFE970-1BBB-4E0A-A452-CEB55884B4A3";
paths = (
{
closed = 1;
nodes = (
"478 -5 OFFCURVE",
"628 221 OFFCURVE",
"714 763 CURVE",
"704 848 LINE",
"658 848 OFFCURVE",
"627 832 OFFCURVE",
"616 767 CURVE SMOOTH",
"544 341 OFFCURVE",
"416 131 OFFCURVE",
"350 131 CURVE SMOOTH",
"273 131 OFFCURVE",
"235 357 OFFCURVE",
"295 760 CURVE SMOOTH",
"306 833 OFFCURVE",
"274 848 OFFCURVE",
"234 848 CURVE SMOOTH",
"181 848 OFFCURVE",
"160 826 OFFCURVE",
"150 759 CURVE SMOOTH",
"88 341 OFFCURVE",
"135 -5 OFFCURVE",
"318 -5 CURVE SMOOTH"
);
},
{
closed = 1;
nodes = (
"1110 750 OFFCURVE",
"1128 728 OFFCURVE",
"1128 669 CURVE SMOOTH",
"1128 501 OFFCURVE",
"953 131 OFFCURVE",
"833 131 CURVE SMOOTH",
"748 131 OFFCURVE",
"734 241 OFFCURVE",
"734 443 CURVE SMOOTH",
"734 537 OFFCURVE",
"741 647 OFFCURVE",
"762 769 CURVE SMOOTH",
"771 822 OFFCURVE",
"755 848 OFFCURVE",
"704 848 CURVE",
"653 759 LINE",
"584 411 OFFCURVE",
"590 -5 OFFCURVE",
"796 -5 CURVE SMOOTH",
"1016 -5 OFFCURVE",
"1250 420 OFFCURVE",
"1250 692 CURVE SMOOTH",
"1250 800 OFFCURVE",
"1196 864 OFFCURVE",
"1111 864 CURVE SMOOTH",
"1009 864 OFFCURVE",
"925 786 OFFCURVE",
"925 622 CURVE SMOOTH",
"925 442 OFFCURVE",
"1045 324 OFFCURVE",
"1301 329 CURVE SMOOTH",
"1350 330 OFFCURVE",
"1365 367 OFFCURVE",
"1365 396 CURVE SMOOTH",
"1365 416 OFFCURVE",
"1353 432 OFFCURVE",
"1321 432 CURVE SMOOTH",
"1118 432 OFFCURVE",
"1026 489 OFFCURVE",
"1026 629 CURVE SMOOTH",
"1026 709 OFFCURVE",
"1053 750 OFFCURVE",
"1087 750 CURVE SMOOTH"
);
}
);
width = 1192;
}
);
leftKerningGroup = V;
leftMetricsKey = V;
note = W;
rightKerningGroup = V;
rightMetricsKey = V;
unicode = 0057;
},
{
color = 3;
glyphname = X;
lastChange = "2016-07-29 14:59:18 +0000";
layers = (
{
background = {
paths = (
{
closed = 1;
nodes = (
"776 -5 OFFCURVE",
"838 49 OFFCURVE",
"895 116 CURVE",
"863 209 LINE",
"804 142 OFFCURVE",
"759 114 OFFCURVE",
"717 114 CURVE SMOOTH",
"659 114 OFFCURVE",
"641 153 OFFCURVE",
"614 250 CURVE SMOOTH",
"499 660 LINE SMOOTH",
"462 793 OFFCURVE",
"402 848 OFFCURVE",
"309 848 CURVE SMOOTH",
"213 848 OFFCURVE",
"152 796 OFFCURVE",
"106 742 CURVE SMOOTH",
"38 663 OFFCURVE",
"105 611 OFFCURVE",
"140 649 CURVE SMOOTH",
"175 687 OFFCURVE",
"222 726 OFFCURVE",
"264 726 CURVE SMOOTH",
"309 726 OFFCURVE",
"347 693 OFFCURVE",
"379 578 CURVE SMOOTH",
"483 203 LINE SMOOTH",
"516 84 OFFCURVE",
"563 -5 OFFCURVE",
"691 -5 CURVE SMOOTH"
);
},
{
closed = 1;
nodes = (
"154 -5 OFFCURVE",
"184 -1 OFFCURVE",
"213 35 CURVE SMOOTH",
"466 349 LINE",
"817 754 LINE SMOOTH",
"866 811 OFFCURVE",
"844 847 OFFCURVE",
"786 847 CURVE SMOOTH",
"745 847 OFFCURVE",
"720 834 OFFCURVE",
"694 803 CURVE SMOOTH",
"433 486 LINE",
"87 92 LINE SMOOTH",
"28 25 OFFCURVE",
"69 -5 OFFCURVE",
"123 -5 CURVE SMOOTH"
);
}
);
};
guideLines = (
{
angle = -75.3543;
position = "{525, 578}";
}
);
layerId = "ECEFE970-1BBB-4E0A-A452-CEB55884B4A3";
paths = (
{
closed = 1;
nodes = (
"154 -5 OFFCURVE",
"184 -1 OFFCURVE",
"213 35 CURVE SMOOTH",
"466 349 LINE",
"817 754 LINE SMOOTH",
"866 811 OFFCURVE",
"844 847 OFFCURVE",
"786 847 CURVE SMOOTH",
"745 847 OFFCURVE",
"720 834 OFFCURVE",
"694 803 CURVE SMOOTH",
"433 486 LINE",
"87 92 LINE SMOOTH",
"28 25 OFFCURVE",
"69 -5 OFFCURVE",
"123 -5 CURVE SMOOTH"
);
},
{
closed = 1;
nodes = (
"878 223 OFFCURVE",
"869 221 OFFCURVE",
"859 209 CURVE SMOOTH",
"800 142 OFFCURVE",
"759 114 OFFCURVE",
"717 114 CURVE SMOOTH",
"659 114 OFFCURVE",
"641 153 OFFCURVE",
"614 250 CURVE SMOOTH",
"499 660 LINE SMOOTH",
"462 793 OFFCURVE",
"402 848 OFFCURVE",
"309 848 CURVE SMOOTH",
"213 848 OFFCURVE",
"152 796 OFFCURVE",
"106 742 CURVE SMOOTH",
"38 663 OFFCURVE",
"105 611 OFFCURVE",
"140 649 CURVE SMOOTH",
"175 687 OFFCURVE",
"222 726 OFFCURVE",
"264 726 CURVE SMOOTH",
"309 726 OFFCURVE",
"347 693 OFFCURVE",
"379 578 CURVE SMOOTH",
"483 203 LINE SMOOTH",
"516 84 OFFCURVE",
"563 -5 OFFCURVE",
"691 -5 CURVE SMOOTH",
"776 -5 OFFCURVE",
"838 49 OFFCURVE",
"895 116 CURVE SMOOTH",
"912 137 OFFCURVE",
"914 159 OFFCURVE",
"914 178 CURVE SMOOTH",
"914 205 OFFCURVE",
"904 223 OFFCURVE",
"886 223 CURVE SMOOTH"
);
}
);
width = 780;
}
);
note = X;
unicode = 0058;
},
{
color = 3;
glyphname = Y;
lastChange = "2016-07-30 21:06:03 +0000";
layers = (
{
anchors = (
{
name = bottom;
position = "{710, -95}";
},
{
name = top;
position = "{480, 840}";
},
{
name = topleft;
position = "{199, 840}";
}
);
background = {
paths = (
{
closed = 1;
nodes = (
"1569 257 OFFCURVE",
"1557 176 OFFCURVE",
"1538 37 CURVE SMOOTH",
"1511 -157 OFFCURVE",
"1446 -225 OFFCURVE",
"1364 -225 CURVE SMOOTH",
"1319 -225 OFFCURVE",
"1296 -194 OFFCURVE",
"1297 -158 CURVE SMOOTH",
"1300 -39 OFFCURVE",
"1478 53 OFFCURVE",
"1854 122 CURVE",
"1842 224 LINE",
"1398 132 OFFCURVE",
"1175 3 OFFCURVE",
"1175 -183 CURVE SMOOTH",
"1175 -264 OFFCURVE",
"1234 -327 OFFCURVE",
"1349 -327 CURVE SMOOTH",
"1509 -327 OFFCURVE",
"1636 -213 OFFCURVE",
"1675 59 CURVE SMOOTH",
"1733 462 OFFCURVE",
"1759 622 OFFCURVE",
"1778 769 CURVE SMOOTH",
"1784 816 OFFCURVE",
"1761 848 OFFCURVE",
"1708 848 CURVE SMOOTH",
"1664 848 OFFCURVE",
"1634 828 OFFCURVE",
"1627 767 CURVE SMOOTH",
"1585 397 OFFCURVE",
"1450 232 OFFCURVE",
"1349 232 CURVE SMOOTH",
"1293 232 OFFCURVE",
"1273 261 OFFCURVE",
"1273 326 CURVE SMOOTH",
"1273 397 OFFCURVE",
"1335 566 OFFCURVE",
"1335 702 CURVE SMOOTH",
"1335 801 OFFCURVE",
"1284 848 OFFCURVE",
"1208 848 CURVE SMOOTH",
"1089 848 OFFCURVE",
"1014 774 OFFCURVE",
"966 708 CURVE SMOOTH",
"945 679 OFFCURVE",
"938 656 OFFCURVE",
"938 638 CURVE SMOOTH",
"938 603 OFFCURVE",
"974 573 OFFCURVE",
"1004 613 CURVE SMOOTH",
"1063 691 OFFCURVE",
"1116 724 OFFCURVE",
"1151 724 CURVE SMOOTH",
"1171 724 OFFCURVE",
"1186 715 OFFCURVE",
"1186 681 CURVE SMOOTH",
"1186 582 OFFCURVE",
"1123 406 OFFCURVE",
"1123 296 CURVE SMOOTH",
"1123 187 OFFCURVE",
"1182 105 OFFCURVE",
"1301 105 CURVE SMOOTH",
"1418 105 OFFCURVE",
"1520 185 OFFCURVE",
"1584 354 CURVE"
);
},
{
closed = 1;
nodes = (
"401 -5 OFFCURVE",
"503 102 OFFCURVE",
"569 296 CURVE",
"560 234 OFFCURVE",
"553 185 OFFCURVE",
"553 148 CURVE SMOOTH",
"553 62 OFFCURVE",
"609 -5 OFFCURVE",
"724 -5 CURVE SMOOTH",
"798 -5 OFFCURVE",
"864 31 OFFCURVE",
"934 116 CURVE",
"898 209 LINE",
"842 142 OFFCURVE",
"803 114 OFFCURVE",
"759 114 CURVE SMOOTH",
"719 114 OFFCURVE",
"691 141 OFFCURVE",
"691 198 CURVE SMOOTH",
"691 224 OFFCURVE",
"694 248 OFFCURVE",
"699 284 CURVE SMOOTH",
"730 510 OFFCURVE",
"768 684 OFFCURVE",
"768 759 CURVE SMOOTH",
"768 823 OFFCURVE",
"745 848 OFFCURVE",
"699 848 CURVE SMOOTH",
"644 848 OFFCURVE",
"634 818 OFFCURVE",
"626 757 CURVE SMOOTH",
"564 287 OFFCURVE",
"420 122 OFFCURVE",
"309 122 CURVE SMOOTH",
"264 122 OFFCURVE",
"240 151 OFFCURVE",
"240 192 CURVE SMOOTH",
"240 236 OFFCURVE",
"250 271 OFFCURVE",
"258 308 CURVE SMOOTH",
"299 491 LINE SMOOTH",
"317 570 OFFCURVE",
"330 627 OFFCURVE",
"330 702 CURVE SMOOTH",
"330 801 OFFCURVE",
"279 848 OFFCURVE",
"200 848 CURVE SMOOTH",
"84 848 OFFCURVE",
"9 774 OFFCURVE",
"-39 708 CURVE SMOOTH",
"-60 679 OFFCURVE",
"-67 656 OFFCURVE",
"-67 638 CURVE SMOOTH",
"-67 603 OFFCURVE",
"-31 573 OFFCURVE",
"-1 613 CURVE SMOOTH",
"61 696 OFFCURVE",
"116 729 OFFCURVE",
"153 729 CURVE SMOOTH",
"173 729 OFFCURVE",
"188 715 OFFCURVE",
"188 681 CURVE SMOOTH",
"188 630 OFFCURVE",
"177 589 OFFCURVE",
"171 559 CURVE SMOOTH",
"109 273 LINE SMOOTH",
"101 234 OFFCURVE",
"96 198 OFFCURVE",
"96 166 CURVE SMOOTH",
"96 67 OFFCURVE",
"149 -5 OFFCURVE",
"266 -5 CURVE SMOOTH"
);
}
);
};
guideLines = (
{
position = "{349, -327}";
}
);
layerId = "ECEFE970-1BBB-4E0A-A452-CEB55884B4A3";
paths = (
{
closed = 1;
nodes = (
"882 127 OFFCURVE",
"894 153 OFFCURVE",
"894 182 CURVE SMOOTH",
"894 221 OFFCURVE",
"874 232 OFFCURVE",
"842 224 CURVE SMOOTH",
"398 132 OFFCURVE",
"175 3 OFFCURVE",
"175 -183 CURVE SMOOTH",
"175 -264 OFFCURVE",
"234 -327 OFFCURVE",
"349 -327 CURVE SMOOTH",
"509 -327 OFFCURVE",
"630 -213 OFFCURVE",
"669 59 CURVE SMOOTH",
"727 462 OFFCURVE",
"753 622 OFFCURVE",
"771 759 CURVE SMOOTH",
"778 816 OFFCURVE",
"755 848 OFFCURVE",
"702 848 CURVE SMOOTH",
"658 848 OFFCURVE",
"634 828 OFFCURVE",
"627 767 CURVE SMOOTH",
"585 397 OFFCURVE",
"450 231 OFFCURVE",
"349 231 CURVE SMOOTH",
"288 231 OFFCURVE",
"268 260 OFFCURVE",
"268 326 CURVE SMOOTH",
"268 397 OFFCURVE",
"330 566 OFFCURVE",
"330 702 CURVE SMOOTH",
"330 801 OFFCURVE",
"279 848 OFFCURVE",
"200 848 CURVE SMOOTH",
"84 848 OFFCURVE",
"9 774 OFFCURVE",
"-39 708 CURVE SMOOTH",
"-60 679 OFFCURVE",
"-67 656 OFFCURVE",
"-67 638 CURVE SMOOTH",
"-67 603 OFFCURVE",
"-31 573 OFFCURVE",
"-1 613 CURVE SMOOTH",
"61 696 OFFCURVE",
"116 729 OFFCURVE",
"151 729 CURVE SMOOTH",
"173 729 OFFCURVE",
"188 715 OFFCURVE",
"188 681 CURVE SMOOTH",
"188 582 OFFCURVE",
"125 406 OFFCURVE",
"125 296 CURVE SMOOTH",
"125 190 OFFCURVE",
"182 108 OFFCURVE",
"301 108 CURVE SMOOTH",
"418 108 OFFCURVE",
"520 185 OFFCURVE",
"584 354 CURVE",
"569 257 OFFCURVE",
"557 176 OFFCURVE",
"538 37 CURVE SMOOTH",
"512 -157 OFFCURVE",
"446 -225 OFFCURVE",
"364 -225 CURVE SMOOTH",
"319 -225 OFFCURVE",
"296 -194 OFFCURVE",
"297 -158 CURVE SMOOTH",
"300 -39 OFFCURVE",
"478 53 OFFCURVE",
"851 121 CURVE SMOOTH"
);
}
);
width = 760;
}
);
leftKerningGroup = N;
note = Y;
unicode = 0059;
},
{
color = 3;
glyphname = Z;
lastChange = "2016-07-30 21:06:09 +0000";
layers = (
{
anchors = (
{
name = bottom;
position = "{357, 0}";
},
{
name = top;
position = "{447, 840}";
}
);
background = {
paths = (
{
closed = 1;
nodes = (
"228 -5 OFFCURVE",
"299 65 OFFCURVE",
"496 353 CURVE SMOOTH",
"594 496 OFFCURVE",
"670 617 OFFCURVE",
"744 739 CURVE",
"587 748 LINE",
"481 562 OFFCURVE",
"356 375 OFFCURVE",
"206 189 CURVE",
"186 181 LINE",
"176 181 LINE",
"176 200 LINE",
"76 200 OFFCURVE",
"12 149 OFFCURVE",
"12 87 CURVE SMOOTH",
"12 32 OFFCURVE",
"59 -5 OFFCURVE",
"133 -5 CURVE SMOOTH"
);
},
{
closed = 1;
nodes = (
"170 489 OFFCURVE",
"200 508 OFFCURVE",
"200 536 CURVE SMOOTH",
"200 556 OFFCURVE",
"175 576 OFFCURVE",
"175 619 CURVE SMOOTH",
"175 694 OFFCURVE",
"243 729 OFFCURVE",
"397 729 CURVE SMOOTH",
"569 729 OFFCURVE",
"649 691 OFFCURVE",
"722 691 CURVE SMOOTH",
"756 691 OFFCURVE",
"775 712 OFFCURVE",
"775 748 CURVE SMOOTH",
"775 775 OFFCURVE",
"768 796 OFFCURVE",
"725 808 CURVE SMOOTH",
"622 837 OFFCURVE",
"502 846 OFFCURVE",
"409 846 CURVE SMOOTH",
"211 846 OFFCURVE",
"56 781 OFFCURVE",
"56 617 CURVE SMOOTH",
"56 566 OFFCURVE",
"74 526 OFFCURVE",
"98 504 CURVE SMOOTH",
"109 494 OFFCURVE",
"124 489 OFFCURVE",
"139 489 CURVE SMOOTH"
);
},
{
closed = 1;
nodes = (
"811 223 OFFCURVE",
"802 221 OFFCURVE",
"792 209 CURVE SMOOTH",
"744 153 OFFCURVE",
"692 127 OFFCURVE",
"614 127 CURVE SMOOTH",
"529 127 OFFCURVE",
"364 200 OFFCURVE",
"176 200 CURVE",
"130 110 LINE",
"339 110 OFFCURVE",
"428 -5 OFFCURVE",
"593 -5 CURVE SMOOTH",
"690 -5 OFFCURVE",
"753 25 OFFCURVE",
"828 116 CURVE SMOOTH",
"845 137 OFFCURVE",
"847 159 OFFCURVE",
"847 178 CURVE SMOOTH",
"847 205 OFFCURVE",
"837 223 OFFCURVE",
"819 223 CURVE SMOOTH"
);
}
);
};
layerId = "ECEFE970-1BBB-4E0A-A452-CEB55884B4A3";
paths = (
{
closed = 1;
nodes = (
"228 -5 OFFCURVE",
"299 65 OFFCURVE",
"496 353 CURVE SMOOTH",
"594 496 OFFCURVE",
"670 617 OFFCURVE",
"744 739 CURVE",
"591 748 LINE",
"485 562 OFFCURVE",
"360 375 OFFCURVE",
"210 189 CURVE",
"186 181 LINE",
"176 181 LINE",
"176 200 LINE",
"76 200 OFFCURVE",
"12 149 OFFCURVE",
"12 87 CURVE SMOOTH",
"12 32 OFFCURVE",
"59 -5 OFFCURVE",
"133 -5 CURVE SMOOTH"
);
},
{
closed = 1;
nodes = (
"170 489 OFFCURVE",
"200 508 OFFCURVE",
"200 536 CURVE SMOOTH",
"200 556 OFFCURVE",
"175 576 OFFCURVE",
"175 619 CURVE SMOOTH",
"175 694 OFFCURVE",
"243 729 OFFCURVE",
"397 729 CURVE SMOOTH",
"569 729 OFFCURVE",
"649 691 OFFCURVE",
"722 691 CURVE SMOOTH",
"756 691 OFFCURVE",
"775 712 OFFCURVE",
"775 748 CURVE SMOOTH",
"775 775 OFFCURVE",
"768 796 OFFCURVE",
"725 808 CURVE SMOOTH",
"622 837 OFFCURVE",
"502 846 OFFCURVE",
"409 846 CURVE SMOOTH",
"211 846 OFFCURVE",
"56 781 OFFCURVE",
"56 617 CURVE SMOOTH",
"56 566 OFFCURVE",
"74 526 OFFCURVE",
"98 504 CURVE SMOOTH",
"109 494 OFFCURVE",
"124 489 OFFCURVE",
"139 489 CURVE SMOOTH"
);
},
{
closed = 1;
nodes = (
"811 223 OFFCURVE",
"802 221 OFFCURVE",
"792 209 CURVE SMOOTH",
"744 153 OFFCURVE",
"692 127 OFFCURVE",
"614 127 CURVE SMOOTH",
"529 127 OFFCURVE",
"364 200 OFFCURVE",
"176 200 CURVE",
"130 110 LINE",
"339 110 OFFCURVE",
"428 -5 OFFCURVE",
"593 -5 CURVE SMOOTH",
"690 -5 OFFCURVE",
"753 25 OFFCURVE",
"828 116 CURVE SMOOTH",
"845 137 OFFCURVE",
"847 159 OFFCURVE",
"847 178 CURVE SMOOTH",
"847 205 OFFCURVE",
"837 223 OFFCURVE",
"819 223 CURVE SMOOTH"
);
}
);
width = 713;
}
);
leftKerningGroup = Z;
note = Z;
rightKerningGroup = Z;
unicode = 005A;
},
{
color = 3;
glyphname = A.ss01;
lastChange = "2016-07-30 20:06:28 +0000";
layers = (
{
anchors = (
{
name = bottom;
position = "{397, 0}";
},
{
name = ogonek;
position = "{616, 10}";
},
{
name = top;
position = "{605, 840}";
}
);
background = {
paths = (
{
closed = 1;
nodes = (
"442 -4 OFFCURVE",
"518 82 OFFCURVE",
"561 237 CURVE",
"563 437 LINE",
"505 211 OFFCURVE",
"445 113 OFFCURVE",
"341 113 CURVE SMOOTH",
"268 113 OFFCURVE",
"217 163 OFFCURVE",
"217 290 CURVE SMOOTH",
"217 514 OFFCURVE",
"346 732 OFFCURVE",
"622 732 CURVE SMOOTH",
"669 732 OFFCURVE",
"706 728 OFFCURVE",
"752 719 CURVE SMOOTH",
"843 701 OFFCURVE",
"871 805 OFFCURVE",
"810 824 CURVE SMOOTH",
"754 841 OFFCURVE",
"691 848 OFFCURVE",
"634 848 CURVE SMOOTH",
"259 848 OFFCURVE",
"69 576 OFFCURVE",
"69 280 CURVE SMOOTH",
"69 75 OFFCURVE",
"198 -4 OFFCURVE",
"314 -4 CURVE SMOOTH"
);
},
{
closed = 1;
nodes = (
"623 -5 OFFCURVE",
"655 14 OFFCURVE",
"658 45 CURVE SMOOTH",
"663 94 LINE",
"669 231 OFFCURVE",
"710 493 OFFCURVE",
"749 611 CURVE SMOOTH",
"751 617 OFFCURVE",
"752 623 OFFCURVE",
"752 628 CURVE SMOOTH",
"752 661 OFFCURVE",
"721 672 OFFCURVE",
"691 672 CURVE SMOOTH",
"654 672 OFFCURVE",
"619 659 OFFCURVE",
"610 623 CURVE SMOOTH",
"563 437 LINE",
"546 347 OFFCURVE",
"526 172 OFFCURVE",
"515 60 CURVE SMOOTH",
"511 21 OFFCURVE",
"529 -5 OFFCURVE",
"581 -5 CURVE SMOOTH"
);
}
);
};
guideLines = (
{
angle = 255.7189;
position = "{596, 568}";
}
);
layerId = "ECEFE970-1BBB-4E0A-A452-CEB55884B4A3";
paths = (
{
closed = 1;
nodes = (
"442 -4 OFFCURVE",
"518 82 OFFCURVE",
"561 237 CURVE",
"563 437 LINE",
"505 211 OFFCURVE",
"445 113 OFFCURVE",
"341 113 CURVE SMOOTH",
"268 113 OFFCURVE",
"217 163 OFFCURVE",
"217 290 CURVE SMOOTH",
"217 514 OFFCURVE",
"346 732 OFFCURVE",
"622 732 CURVE SMOOTH",
"669 732 OFFCURVE",
"706 728 OFFCURVE",
"752 719 CURVE SMOOTH",
"843 701 OFFCURVE",
"871 805 OFFCURVE",
"810 824 CURVE SMOOTH",
"754 841 OFFCURVE",
"691 848 OFFCURVE",
"634 848 CURVE SMOOTH",
"259 848 OFFCURVE",
"69 576 OFFCURVE",
"69 280 CURVE SMOOTH",
"69 75 OFFCURVE",
"198 -4 OFFCURVE",
"314 -4 CURVE SMOOTH"
);
},
{
closed = 1;
nodes = (
"623 -5 OFFCURVE",
"655 14 OFFCURVE",
"658 45 CURVE SMOOTH",
"663 94 LINE",
"669 231 OFFCURVE",
"710 493 OFFCURVE",
"749 611 CURVE SMOOTH",
"751 617 OFFCURVE",
"752 623 OFFCURVE",
"752 628 CURVE SMOOTH",
"752 661 OFFCURVE",
"721 672 OFFCURVE",
"691 672 CURVE SMOOTH",
"654 672 OFFCURVE",
"619 659 OFFCURVE",
"610 623 CURVE SMOOTH",
"563 437 LINE",
"546 347 OFFCURVE",
"526 172 OFFCURVE",
"515 60 CURVE SMOOTH",
"511 21 OFFCURVE",
"529 -5 OFFCURVE",
"581 -5 CURVE SMOOTH"
);
}
);
width = 775;
}
);
leftKerningGroup = A;
note = A;
rightKerningGroup = A_ss01;
},
{
color = 3;
glyphname = AE.ss01;
lastChange = "2016-07-30 21:00:37 +0000";
layers = (
{
anchors = (
{
name = bottom;
position = "{589, 0}";
},
{
name = top;
position = "{716, 840}";
}
);
background = {
paths = (
{
closed = 1;
nodes = (
"1057 38 OFFCURVE",
"1069 61 OFFCURVE",
"1069 98 CURVE SMOOTH",
"1069 126 OFFCURVE",
"1056 155 OFFCURVE",
"1010 144 CURVE SMOOTH",
"956 130 OFFCURVE",
"927 121 OFFCURVE",
"865 121 CURVE SMOOTH",
"708 121 OFFCURVE",
"668 212 OFFCURVE",
"702 361 CURVE",
"811 363 OFFCURVE",
"879 366 OFFCURVE",
"957 368 CURVE SMOOTH",
"1000 369 OFFCURVE",
"1023 401 OFFCURVE",
"1023 441 CURVE SMOOTH",
"1023 471 OFFCURVE",
"1012 490 OFFCURVE",
"970 490 CURVE SMOOTH",
"899 490 OFFCURVE",
"815 486 OFFCURVE",
"726 483 CURVE",
"742 556 OFFCURVE",
"764 648 OFFCURVE",
"784 710 CURVE",
"825 713 OFFCURVE",
"969 720 OFFCURVE",
"1021 720 CURVE SMOOTH",
"1073 720 OFFCURVE",
"1093 759 OFFCURVE",
"1093 795 CURVE SMOOTH",
"1093 832 OFFCURVE",
"1078 849 OFFCURVE",
"1029 849 CURVE SMOOTH",
"953 849 OFFCURVE",
"833 842 OFFCURVE",
"779 840 CURVE SMOOTH",
"712 837 OFFCURVE",
"661 801 OFFCURVE",
"641 727 CURVE SMOOTH",
"560 431 LINE",
"551 264 LINE",
"545 121 OFFCURVE",
"627 -5 OFFCURVE",
"852 -5 CURVE SMOOTH",
"909 -5 OFFCURVE",
"963 4 OFFCURVE",
"1010 21 CURVE SMOOTH"
);
},
{
closed = 1;
nodes = (
"438 -5 OFFCURVE",
"533 64 OFFCURVE",
"587 237 CURVE",
"683 626 LINE",
"560 431 LINE",
"512 257 OFFCURVE",
"458 116 OFFCURVE",
"337 116 CURVE SMOOTH",
"271 116 OFFCURVE",
"220 177 OFFCURVE",
"220 290 CURVE SMOOTH",
"220 514 OFFCURVE",
"340 698 OFFCURVE",
"572 726 CURVE SMOOTH",
"599 729 OFFCURVE",
"610 750 OFFCURVE",
"610 779 CURVE SMOOTH",
"610 821 OFFCURVE",
"591 850 OFFCURVE",
"524 842 CURVE SMOOTH",
"260 810 OFFCURVE",
"69 576 OFFCURVE",
"69 280 CURVE SMOOTH",
"69 100 OFFCURVE",
"175 -5 OFFCURVE",
"325 -5 CURVE SMOOTH"
);
}
);
};
guideLines = (
{
angle = 254.6088;
position = "{1077, 602}";
}
);
layerId = "ECEFE970-1BBB-4E0A-A452-CEB55884B4A3";
paths = (
{
closed = 1;
nodes = (
"438 -5 OFFCURVE",
"533 64 OFFCURVE",
"587 237 CURVE",
"683 626 LINE",
"563 431 LINE",
"515 257 OFFCURVE",
"458 112 OFFCURVE",
"337 112 CURVE SMOOTH",
"267 112 OFFCURVE",
"216 174 OFFCURVE",
"216 290 CURVE SMOOTH",
"216 514 OFFCURVE",
"336 704 OFFCURVE",
"572 730 CURVE SMOOTH",
"599 733 OFFCURVE",
"610 754 OFFCURVE",
"610 780 CURVE SMOOTH",
"610 821 OFFCURVE",
"591 850 OFFCURVE",
"524 842 CURVE SMOOTH",
"260 810 OFFCURVE",
"69 576 OFFCURVE",
"69 280 CURVE SMOOTH",
"69 100 OFFCURVE",
"175 -5 OFFCURVE",
"325 -5 CURVE SMOOTH"
);
},
{
closed = 1;
nodes = (
"904 -5 OFFCURVE",
"962 4 OFFCURVE",
"1013 22 CURVE SMOOTH",
"1057 38 OFFCURVE",
"1069 61 OFFCURVE",
"1069 97 CURVE SMOOTH",
"1069 126 OFFCURVE",
"1056 155 OFFCURVE",
"1003 139 CURVE SMOOTH",
"958 125 OFFCURVE",
"917 115 OFFCURVE",
"875 115 CURVE SMOOTH",
"706 115 OFFCURVE",
"665 212 OFFCURVE",
"699 361 CURVE",
"808 363 OFFCURVE",
"862 366 OFFCURVE",
"957 368 CURVE SMOOTH",
"1000 369 OFFCURVE",
"1023 401 OFFCURVE",
"1023 441 CURVE SMOOTH",
"1023 471 OFFCURVE",
"1012 490 OFFCURVE",
"970 490 CURVE SMOOTH",
"892 490 OFFCURVE",
"812 486 OFFCURVE",
"723 483 CURVE",
"739 556 OFFCURVE",
"761 650 OFFCURVE",
"781 710 CURVE",
"822 715 OFFCURVE",
"929 720 OFFCURVE",
"1021 720 CURVE SMOOTH",
"1073 720 OFFCURVE",
"1093 759 OFFCURVE",
"1093 795 CURVE SMOOTH",
"1093 832 OFFCURVE",
"1078 849 OFFCURVE",
"1029 849 CURVE SMOOTH",
"933 849 OFFCURVE",
"863 844 OFFCURVE",
"779 840 CURVE SMOOTH",
"712 837 OFFCURVE",
"664 801 OFFCURVE",
"644 727 CURVE SMOOTH",
"563 431 LINE",
"554 264 LINE",
"548 121 OFFCURVE",
"630 -5 OFFCURVE",
"852 -5 CURVE SMOOTH"
);
}
);
width = 1052;
}
);
leftMetricsKey = A.ss01;
note = AE;
rightKerningGroup = AE_ss01;
},
{
color = 3;
glyphname = B.ss01;
lastChange = "2016-07-30 20:55:25 +0000";
layers = (
{
background = {
paths = (
{
closed = 1;
nodes = (
"193 816 OFFCURVE",
"167 789 OFFCURVE",
"167 748 CURVE SMOOTH",
"167 719 OFFCURVE",
"189 698 OFFCURVE",
"215 705 CURVE SMOOTH",
"300 728 OFFCURVE",
"378 744 OFFCURVE",
"459 744 CURVE SMOOTH",
"594 744 OFFCURVE",
"662 692 OFFCURVE",
"662 623 CURVE SMOOTH",
"662 529 OFFCURVE",
"551 471 OFFCURVE",
"438 468 CURVE SMOOTH",
"393 467 OFFCURVE",
"383 438 OFFCURVE",
"382 406 CURVE SMOOTH",
"381 375 OFFCURVE",
"388 364 OFFCURVE",
"418 363 CURVE SMOOTH",
"559 359 OFFCURVE",
"595 307 OFFCURVE",
"595 256 CURVE SMOOTH",
"595 179 OFFCURVE",
"522 112 OFFCURVE",
"331 112 CURVE SMOOTH",
"280 112 OFFCURVE",
"262 113 OFFCURVE",
"238 115 CURVE",
"245 227 OFFCURVE",
"290 472 OFFCURVE",
"327 582 CURVE SMOOTH",
"332 597 OFFCURVE",
"333 603 OFFCURVE",
"333 614 CURVE SMOOTH",
"333 641 OFFCURVE",
"306 650 OFFCURVE",
"269 650 CURVE SMOOTH",
"222 650 OFFCURVE",
"194 639 OFFCURVE",
"184 603 CURVE SMOOTH",
"131 411 OFFCURVE",
"105 262 OFFCURVE",
"91 76 CURVE SMOOTH",
"88 37 OFFCURVE",
"106 19 OFFCURVE",
"158 13 CURVE SMOOTH",
"209 7 OFFCURVE",
"238 3 OFFCURVE",
"327 3 CURVE SMOOTH",
"594 3 OFFCURVE",
"746 104 OFFCURVE",
"746 261 CURVE SMOOTH",
"746 347 OFFCURVE",
"688 399 OFFCURVE",
"557 419 CURVE",
"554 400 LINE",
"723 432 OFFCURVE",
"815 517 OFFCURVE",
"815 640 CURVE SMOOTH",
"815 765 OFFCURVE",
"698 862 OFFCURVE",
"480 862 CURVE SMOOTH",
"357 862 OFFCURVE",
"291 844 OFFCURVE",
"227 826 CURVE SMOOTH"
);
}
);
};
layerId = "ECEFE970-1BBB-4E0A-A452-CEB55884B4A3";
paths = (
{
closed = 1;
nodes = (
"594 3 OFFCURVE",
"746 104 OFFCURVE",
"746 261 CURVE SMOOTH",
"746 347 OFFCURVE",
"688 399 OFFCURVE",
"557 419 CURVE",
"554 400 LINE",
"723 432 OFFCURVE",
"815 517 OFFCURVE",
"815 640 CURVE SMOOTH",
"815 765 OFFCURVE",
"698 862 OFFCURVE",
"480 862 CURVE SMOOTH",
"357 862 OFFCURVE",
"291 844 OFFCURVE",
"227 826 CURVE SMOOTH",
"193 816 OFFCURVE",
"167 793 OFFCURVE",
"167 752 CURVE SMOOTH",
"167 723 OFFCURVE",
"189 702 OFFCURVE",
"215 709 CURVE SMOOTH",
"300 732 OFFCURVE",
"378 748 OFFCURVE",
"459 748 CURVE SMOOTH",
"598 748 OFFCURVE",
"666 696 OFFCURVE",
"666 623 CURVE SMOOTH",
"666 529 OFFCURVE",
"555 471 OFFCURVE",
"438 468 CURVE SMOOTH",
"393 467 OFFCURVE",
"383 438 OFFCURVE",
"382 406 CURVE SMOOTH",
"381 375 OFFCURVE",
"388 364 OFFCURVE",
"418 363 CURVE SMOOTH",
"562 359 OFFCURVE",
"598 307 OFFCURVE",
"598 256 CURVE SMOOTH",
"598 179 OFFCURVE",
"525 112 OFFCURVE",
"331 112 CURVE SMOOTH",
"280 112 OFFCURVE",
"258 113 OFFCURVE",
"234 117 CURVE",
"241 227 OFFCURVE",
"286 472 OFFCURVE",
"320 582 CURVE SMOOTH",
"325 597 OFFCURVE",
"326 603 OFFCURVE",
"326 614 CURVE SMOOTH",
"326 641 OFFCURVE",
"299 650 OFFCURVE",
"265 650 CURVE SMOOTH",
"218 650 OFFCURVE",
"194 639 OFFCURVE",
"184 603 CURVE SMOOTH",
"131 411 OFFCURVE",
"105 262 OFFCURVE",
"91 76 CURVE SMOOTH",
"88 37 OFFCURVE",
"106 19 OFFCURVE",
"158 13 CURVE SMOOTH",
"209 7 OFFCURVE",
"258 3 OFFCURVE",
"327 3 CURVE SMOOTH"
);
}
);
width = 815;
}
);
leftKerningGroup = I_ss01;
note = B;
},
{
color = 3;
glyphname = C.ss01;
lastChange = "2016-07-30 20:06:28 +0000";
layers = (
{
anchors = (
{
name = bottom;
position = "{389, 0}";
},
{
name = top;
position = "{485, 840}";
}
);
background = {
paths = (
{
closed = 1;
nodes = (
"298 121 OFFCURVE",
"220 189 OFFCURVE",
"220 367 CURVE SMOOTH",
"220 606 OFFCURVE",
"352 730 OFFCURVE",
"476 730 CURVE SMOOTH",
"542 730 OFFCURVE",
"569 694 OFFCURVE",
"569 643 CURVE SMOOTH",
"569 619 OFFCURVE",
"559 584 OFFCURVE",
"559 562 CURVE SMOOTH",
"559 528 OFFCURVE",
"583 510 OFFCURVE",
"619 510 CURVE SMOOTH",
"677 510 OFFCURVE",
"706 567 OFFCURVE",
"706 646 CURVE SMOOTH",
"706 762 OFFCURVE",
"635 848 OFFCURVE",
"486 848 CURVE SMOOTH",
"261 848 OFFCURVE",
"69 649 OFFCURVE",
"69 350 CURVE SMOOTH",
"69 114 OFFCURVE",
"211 -5 OFFCURVE",
"399 -5 CURVE SMOOTH",
"496 -5 OFFCURVE",
"599 34 OFFCURVE",
"680 121 CURVE SMOOTH",
"731 175 OFFCURVE",
"705 273 OFFCURVE",
"643 218 CURVE SMOOTH",
"568 152 OFFCURVE",
"499 121 OFFCURVE",
"419 121 CURVE SMOOTH"
);
}
);
};
layerId = "ECEFE970-1BBB-4E0A-A452-CEB55884B4A3";
paths = (
{
closed = 1;
nodes = (
"496 -5 OFFCURVE",
"599 34 OFFCURVE",
"680 121 CURVE SMOOTH",
"731 175 OFFCURVE",
"704 275 OFFCURVE",
"643 218 CURVE SMOOTH",
"568 148 OFFCURVE",
"499 117 OFFCURVE",
"419 117 CURVE SMOOTH",
"294 117 OFFCURVE",
"216 185 OFFCURVE",
"216 367 CURVE SMOOTH",
"216 606 OFFCURVE",
"348 734 OFFCURVE",
"476 734 CURVE SMOOTH",
"546 734 OFFCURVE",
"573 698 OFFCURVE",
"573 643 CURVE SMOOTH",
"573 619 OFFCURVE",
"563 584 OFFCURVE",
"563 562 CURVE SMOOTH",
"563 528 OFFCURVE",
"587 510 OFFCURVE",
"623 510 CURVE SMOOTH",
"677 510 OFFCURVE",
"706 567 OFFCURVE",
"706 646 CURVE SMOOTH",
"706 762 OFFCURVE",
"635 848 OFFCURVE",
"486 848 CURVE SMOOTH",
"261 848 OFFCURVE",
"69 649 OFFCURVE",
"69 350 CURVE SMOOTH",
"69 114 OFFCURVE",
"211 -5 OFFCURVE",
"399 -5 CURVE SMOOTH"
);
}
);
width = 699;
}
);
leftKerningGroup = O;
note = C;
rightKerningGroup = C_ss01;
},
{
color = 3;
glyphname = D.ss01;
lastChange = "2016-07-30 20:55:44 +0000";
layers = (
{
anchors = (
{
name = bottom;
position = "{345, 0}";
},
{
name = center;
position = "{432, 420}";
},
{
name = top;
position = "{455, 840}";
}
);
layerId = "ECEFE970-1BBB-4E0A-A452-CEB55884B4A3";
paths = (
{
closed = 1;
nodes = (
"609 -5 OFFCURVE",
"795 194 OFFCURVE",
"795 494 CURVE SMOOTH",
"795 714 OFFCURVE",
"658 860 OFFCURVE",
"419 860 CURVE SMOOTH",
"354 860 OFFCURVE",
"293 850 OFFCURVE",
"248 834 CURVE SMOOTH",
"179 810 OFFCURVE",
"161 792 OFFCURVE",
"161 749 CURVE SMOOTH",
"161 722 OFFCURVE",
"174 697 OFFCURVE",
"227 714 CURVE SMOOTH",
"308 740 OFFCURVE",
"356 746 OFFCURVE",
"408 746 CURVE SMOOTH",
"543 746 OFFCURVE",
"648 665 OFFCURVE",
"648 489 CURVE SMOOTH",
"648 272 OFFCURVE",
"544 108 OFFCURVE",
"300 108 CURVE SMOOTH",
"284 108 OFFCURVE",
"259 109 OFFCURVE",
"233 111 CURVE",
"248 279 OFFCURVE",
"287 479 OFFCURVE",
"319 582 CURVE SMOOTH",
"324 597 OFFCURVE",
"325 603 OFFCURVE",
"325 614 CURVE SMOOTH",
"325 642 OFFCURVE",
"298 650 OFFCURVE",
"264 650 CURVE SMOOTH",
"225 650 OFFCURVE",
"193 639 OFFCURVE",
"183 603 CURVE SMOOTH",
"130 411 OFFCURVE",
"97 199 OFFCURVE",
"87 78 CURVE SMOOTH",
"83 29 OFFCURVE",
"102 12 OFFCURVE",
"155 5 CURVE SMOOTH",
"206 -2 OFFCURVE",
"235 -5 OFFCURVE",
"286 -5 CURVE SMOOTH"
);
}
);
width = 809;
}
);
leftKerningGroup = I_ss01;
note = D;
rightKerningGroup = O;
},
{
color = 3;
glyphname = E.ss01;
lastChange = "2016-07-30 20:06:28 +0000";
layers = (
{
anchors = (
{
name = bottom;
position = "{361, 0}";
},
{
name = ogonek;
position = "{495, 10}";
},
{
name = top;
position = "{468, 840}";
},
{
name = topleft;
position = "{53, 840}";
}
);
background = {
paths = (
{
closed = 1;
nodes = (
"270 119 OFFCURVE",
"204 164 OFFCURVE",
"204 240 CURVE SMOOTH",
"204 309 OFFCURVE",
"258 382 OFFCURVE",
"428 386 CURVE SMOOTH",
"476 387 OFFCURVE",
"487 417 OFFCURVE",
"488 449 CURVE SMOOTH",
"489 480 OFFCURVE",
"479 492 OFFCURVE",
"448 493 CURVE SMOOTH",
"328 497 OFFCURVE",
"273 548 OFFCURVE",
"273 604 CURVE SMOOTH",
"273 681 OFFCURVE",
"353 733 OFFCURVE",
"464 733 CURVE SMOOTH",
"560 733 OFFCURVE",
"587 694 OFFCURVE",
"587 656 CURVE SMOOTH",
"587 621 OFFCURVE",
"577 603 OFFCURVE",
"577 574 CURVE SMOOTH",
"577 540 OFFCURVE",
"601 522 OFFCURVE",
"637 522 CURVE SMOOTH",
"695 522 OFFCURVE",
"724 579 OFFCURVE",
"724 656 CURVE SMOOTH",
"724 762 OFFCURVE",
"649 848 OFFCURVE",
"466 848 CURVE SMOOTH",
"283 848 OFFCURVE",
"123 753 OFFCURVE",
"123 612 CURVE SMOOTH",
"123 523 OFFCURVE",
"194 450 OFFCURVE",
"297 441 CURVE",
"318 460 LINE",
"143 433 OFFCURVE",
"53 341 OFFCURVE",
"53 215 CURVE SMOOTH",
"53 94 OFFCURVE",
"161 -5 OFFCURVE",
"361 -5 CURVE SMOOTH",
"503 -5 OFFCURVE",
"610 36 OFFCURVE",
"689 121 CURVE SMOOTH",
"739 176 OFFCURVE",
"715 272 OFFCURVE",
"652 218 CURVE SMOOTH",
"575 152 OFFCURVE",
"491 119 OFFCURVE",
"386 119 CURVE SMOOTH"
);
}
);
};
layerId = "ECEFE970-1BBB-4E0A-A452-CEB55884B4A3";
paths = (
{
closed = 1;
nodes = (
"503 -5 OFFCURVE",
"610 36 OFFCURVE",
"689 121 CURVE SMOOTH",
"739 176 OFFCURVE",
"713 274 OFFCURVE",
"652 218 CURVE SMOOTH",
"575 148 OFFCURVE",
"491 115 OFFCURVE",
"386 115 CURVE SMOOTH",
"268 115 OFFCURVE",
"202 164 OFFCURVE",
"202 240 CURVE SMOOTH",
"202 309 OFFCURVE",
"256 382 OFFCURVE",
"428 386 CURVE SMOOTH",
"476 387 OFFCURVE",
"487 417 OFFCURVE",
"488 449 CURVE SMOOTH",
"489 480 OFFCURVE",
"479 492 OFFCURVE",
"448 493 CURVE SMOOTH",
"326 497 OFFCURVE",
"271 548 OFFCURVE",
"271 604 CURVE SMOOTH",
"271 685 OFFCURVE",
"345 737 OFFCURVE",
"461 737 CURVE SMOOTH",
"560 737 OFFCURVE",
"587 698 OFFCURVE",
"587 656 CURVE SMOOTH",
"587 621 OFFCURVE",
"577 603 OFFCURVE",
"577 574 CURVE SMOOTH",
"577 540 OFFCURVE",
"601 522 OFFCURVE",
"637 522 CURVE SMOOTH",
"695 522 OFFCURVE",
"724 579 OFFCURVE",
"724 656 CURVE SMOOTH",
"724 762 OFFCURVE",
"649 848 OFFCURVE",
"466 848 CURVE SMOOTH",
"283 848 OFFCURVE",
"123 753 OFFCURVE",
"123 612 CURVE SMOOTH",
"123 523 OFFCURVE",
"194 450 OFFCURVE",
"297 441 CURVE",
"318 460 LINE",
"143 433 OFFCURVE",
"53 341 OFFCURVE",
"53 215 CURVE SMOOTH",
"53 94 OFFCURVE",
"161 -5 OFFCURVE",
"361 -5 CURVE SMOOTH"
);
}
);
width = 719;
}
);
note = E;
},
{
color = 3;
glyphname = F.ss01;
lastChange = "2016-07-30 20:56:30 +0000";
layers = (
{
background = {
paths = (
{
closed = 1;
nodes = (
"163 334 OFFCURVE",
"266 338 OFFCURVE",
"311 338 CURVE SMOOTH",
"348 338 OFFCURVE",
"506 340 OFFCURVE",
"551 340 CURVE SMOOTH",
"602 340 OFFCURVE",
"628 369 OFFCURVE",
"628 413 CURVE SMOOTH",
"628 438 OFFCURVE",
"621 461 OFFCURVE",
"566 461 CURVE SMOOTH",
"523 461 OFFCURVE",
"180 454 OFFCURVE",
"146 454 CURVE SMOOTH",
"103 454 OFFCURVE",
"78 425 OFFCURVE",
"78 381 CURVE SMOOTH",
"78 337 OFFCURVE",
"108 334 OFFCURVE",
"129 334 CURVE SMOOTH"
);
},
{
closed = 1;
nodes = (
"263 716 OFFCURVE",
"339 716 OFFCURVE",
"440 716 CURVE SMOOTH",
"518 716 OFFCURVE",
"636 719 OFFCURVE",
"700 731 CURVE SMOOTH",
"744 739 OFFCURVE",
"762 764 OFFCURVE",
"762 796 CURVE SMOOTH",
"762 832 OFFCURVE",
"739 855 OFFCURVE",
"685 851 CURVE SMOOTH",
"581 843 OFFCURVE",
"509 840 OFFCURVE",
"420 840 CURVE SMOOTH",
"339 840 OFFCURVE",
"264 845 OFFCURVE",
"183 845 CURVE SMOOTH",
"130 845 OFFCURVE",
"107 831 OFFCURVE",
"107 793 CURVE SMOOTH",
"107 747 OFFCURVE",
"140 726 OFFCURVE",
"202 721 CURVE SMOOTH"
);
},
{
closed = 1;
nodes = (
"238 620 OFFCURVE",
"216 515 OFFCURVE",
"190 355 CURVE SMOOTH",
"169 228 OFFCURVE",
"146 105 OFFCURVE",
"146 55 CURVE SMOOTH",
"146 19 OFFCURVE",
"170 -5 OFFCURVE",
"219 -5 CURVE SMOOTH",
"261 -5 OFFCURVE",
"295 14 OFFCURVE",
"298 55 CURVE SMOOTH",
"303 128 OFFCURVE",
"322 267 OFFCURVE",
"337 357 CURVE SMOOTH",
"364 521 OFFCURVE",
"385 627 OFFCURVE",
"413 765 CURVE",
"265 754 LINE"
);
}
);
};
layerId = "ECEFE970-1BBB-4E0A-A452-CEB55884B4A3";
paths = (
{
closed = 1;
nodes = (
"261 -5 OFFCURVE",
"287 14 OFFCURVE",
"290 55 CURVE SMOOTH",
"295 128 OFFCURVE",
"316 267 OFFCURVE",
"331 357 CURVE SMOOTH",
"358 521 OFFCURVE",
"379 627 OFFCURVE",
"407 765 CURVE",
"265 754 LINE",
"238 620 OFFCURVE",
"216 515 OFFCURVE",
"190 355 CURVE SMOOTH",
"169 228 OFFCURVE",
"148 105 OFFCURVE",
"148 55 CURVE SMOOTH",
"148 19 OFFCURVE",
"170 -5 OFFCURVE",
"219 -5 CURVE SMOOTH"
);
},
{
closed = 1;
nodes = (
"163 336 OFFCURVE",
"266 340 OFFCURVE",
"311 340 CURVE SMOOTH",
"348 340 OFFCURVE",
"506 342 OFFCURVE",
"551 342 CURVE SMOOTH",
"602 342 OFFCURVE",
"628 369 OFFCURVE",
"628 413 CURVE SMOOTH",
"628 438 OFFCURVE",
"621 461 OFFCURVE",
"566 461 CURVE SMOOTH",
"523 461 OFFCURVE",
"180 454 OFFCURVE",
"146 454 CURVE SMOOTH",
"103 454 OFFCURVE",
"78 425 OFFCURVE",
"78 381 CURVE SMOOTH",
"78 339 OFFCURVE",
"108 336 OFFCURVE",
"129 336 CURVE SMOOTH"
);
},
{
closed = 1;
nodes = (
"518 718 OFFCURVE",
"636 721 OFFCURVE",
"700 733 CURVE SMOOTH",
"744 741 OFFCURVE",
"762 764 OFFCURVE",
"762 796 CURVE SMOOTH",
"762 832 OFFCURVE",
"739 855 OFFCURVE",
"685 851 CURVE SMOOTH",
"581 843 OFFCURVE",
"509 840 OFFCURVE",
"420 840 CURVE SMOOTH",
"339 840 OFFCURVE",
"264 845 OFFCURVE",
"183 845 CURVE SMOOTH",
"130 845 OFFCURVE",
"107 831 OFFCURVE",
"107 793 CURVE SMOOTH",
"107 747 OFFCURVE",
"140 728 OFFCURVE",
"202 723 CURVE SMOOTH",
"263 718 OFFCURVE",
"339 718 OFFCURVE",
"440 718 CURVE SMOOTH"
);
}
);
width = 682;
}
);
leftKerningGroup = H_ss01;
note = F;
rightKerningGroup = F_ss01;
},
{
color = 3;
glyphname = G.ss01;
lastChange = "2016-07-30 20:56:09 +0000";
layers = (
{
anchors = (
{
name = bottom;
position = "{415, 0}";
},
{
name = top;
position = "{500, 840}";
}
);
background = {
paths = (
{
closed = 1;
nodes = (
"539 386 LINE SMOOTH",
"496 386 OFFCURVE",
"469 363 OFFCURVE",
"469 326 CURVE SMOOTH",
"469 283 OFFCURVE",
"496 268 OFFCURVE",
"542 268 CURVE SMOOTH",
"627 268 LINE",
"623 222 OFFCURVE",
"617 163 OFFCURVE",
"605 75 CURVE SMOOTH",
"589 -42 OFFCURVE",
"574 -119 OFFCURVE",
"568 -175 CURVE SMOOTH",
"563 -221 OFFCURVE",
"582 -247 OFFCURVE",
"624 -247 CURVE SMOOTH",
"664 -247 OFFCURVE",
"687 -226 OFFCURVE",
"695 -185 CURVE SMOOTH",
"710 -112 OFFCURVE",
"722 -18 OFFCURVE",
"737 87 CURVE SMOOTH",
"748 167 OFFCURVE",
"761 260 OFFCURVE",
"764 320 CURVE SMOOTH",
"766 368 OFFCURVE",
"740 386 OFFCURVE",
"694 386 CURVE SMOOTH"
);
},
{
closed = 1;
nodes = (
"629 146 LINE",
"578 129 OFFCURVE",
"527 119 OFFCURVE",
"481 119 CURVE SMOOTH",
"308 119 OFFCURVE",
"220 212 OFFCURVE",
"220 366 CURVE SMOOTH",
"220 606 OFFCURVE",
"352 730 OFFCURVE",
"490 730 CURVE SMOOTH",
"570 730 OFFCURVE",
"597 694 OFFCURVE",
"597 646 CURVE SMOOTH",
"597 617 OFFCURVE",
"587 590 OFFCURVE",
"587 568 CURVE SMOOTH",
"587 537 OFFCURVE",
"611 519 OFFCURVE",
"647 519 CURVE SMOOTH",
"705 519 OFFCURVE",
"734 573 OFFCURVE",
"734 649 CURVE SMOOTH",
"734 762 OFFCURVE",
"663 848 OFFCURVE",
"500 848 CURVE SMOOTH",
"254 848 OFFCURVE",
"69 649 OFFCURVE",
"69 348 CURVE SMOOTH",
"69 134 OFFCURVE",
"217 -5 OFFCURVE",
"458 -5 CURVE SMOOTH",
"511 -5 OFFCURVE",
"565 7 OFFCURVE",
"618 27 CURVE"
);
}
);
};
layerId = "ECEFE970-1BBB-4E0A-A452-CEB55884B4A3";
paths = (
{
closed = 1;
nodes = (
"511 -5 OFFCURVE",
"565 9 OFFCURVE",
"618 31 CURVE",
"629 146 LINE",
"578 127 OFFCURVE",
"527 115 OFFCURVE",
"471 115 CURVE SMOOTH",
"304 115 OFFCURVE",
"216 208 OFFCURVE",
"216 366 CURVE SMOOTH",
"216 610 OFFCURVE",
"348 734 OFFCURVE",
"490 734 CURVE SMOOTH",
"574 734 OFFCURVE",
"601 698 OFFCURVE",
"601 646 CURVE SMOOTH",
"601 617 OFFCURVE",
"591 590 OFFCURVE",
"591 568 CURVE SMOOTH",
"591 537 OFFCURVE",
"615 519 OFFCURVE",
"651 519 CURVE SMOOTH",
"705 519 OFFCURVE",
"734 573 OFFCURVE",
"734 649 CURVE SMOOTH",
"734 762 OFFCURVE",
"663 848 OFFCURVE",
"500 848 CURVE SMOOTH",
"254 848 OFFCURVE",
"69 649 OFFCURVE",
"69 348 CURVE SMOOTH",
"69 134 OFFCURVE",
"220 -5 OFFCURVE",
"445 -5 CURVE SMOOTH"
);
},
{
closed = 1;
nodes = (
"664 -247 OFFCURVE",
"687 -226 OFFCURVE",
"695 -185 CURVE SMOOTH",
"710 -112 OFFCURVE",
"722 -18 OFFCURVE",
"737 87 CURVE SMOOTH",
"748 167 OFFCURVE",
"761 260 OFFCURVE",
"764 320 CURVE SMOOTH",
"766 368 OFFCURVE",
"740 386 OFFCURVE",
"694 386 CURVE SMOOTH",
"539 386 LINE SMOOTH",
"496 386 OFFCURVE",
"469 363 OFFCURVE",
"469 326 CURVE SMOOTH",
"469 283 OFFCURVE",
"496 268 OFFCURVE",
"542 268 CURVE SMOOTH",
"629 268 LINE",
"625 222 OFFCURVE",
"619 163 OFFCURVE",
"607 75 CURVE SMOOTH",
"591 -42 OFFCURVE",
"576 -119 OFFCURVE",
"570 -175 CURVE SMOOTH",
"565 -221 OFFCURVE",
"582 -247 OFFCURVE",
"624 -247 CURVE SMOOTH"
);
}
);
width = 790;
}
);
leftKerningGroup = O;
leftMetricsKey = C.ss01;
note = G;
rightKerningGroup = G_ss01;
},
{
color = 3;
glyphname = H.ss01;
lastChange = "2016-07-30 20:56:30 +0000";
layers = (
{
anchors = (
{
name = bottom;
position = "{396, 0}";
},
{
name = center;
position = "{453, 420}";
},
{
name = top;
position = "{511, 840}";
},
{
name = topleft;
position = "{201, 840}";
}
);
background = {
paths = (
{
closed = 1;
nodes = (
"167 366 OFFCURVE",
"349 371 OFFCURVE",
"419 371 CURVE SMOOTH",
"477 371 OFFCURVE",
"680 370 OFFCURVE",
"764 370 CURVE SMOOTH",
"834 370 OFFCURVE",
"849 399 OFFCURVE",
"849 440 CURVE SMOOTH",
"849 468 OFFCURVE",
"833 491 OFFCURVE",
"788 491 CURVE SMOOTH",
"745 491 OFFCURVE",
"578 487 OFFCURVE",
"437 485 CURVE SMOOTH",
"299 484 OFFCURVE",
"167 484 OFFCURVE",
"141 484 CURVE SMOOTH",
"76 484 OFFCURVE",
"57 455 OFFCURVE",
"57 411 CURVE SMOOTH",
"57 374 OFFCURVE",
"81 363 OFFCURVE",
"114 364 CURVE SMOOTH"
);
},
{
closed = 1;
nodes = (
"233 848 OFFCURVE",
"205 829 OFFCURVE",
"201 778 CURVE SMOOTH",
"197 715 OFFCURVE",
"179 576 OFFCURVE",
"163 486 CURVE SMOOTH",
"156 446 OFFCURVE",
"148 403 OFFCURVE",
"140 355 CURVE SMOOTH",
"119 228 OFFCURVE",
"96 105 OFFCURVE",
"96 55 CURVE SMOOTH",
"96 19 OFFCURVE",
"116 -5 OFFCURVE",
"167 -5 CURVE SMOOTH",
"217 -5 OFFCURVE",
"244 14 OFFCURVE",
"248 65 CURVE SMOOTH",
"252 128 OFFCURVE",
"271 267 OFFCURVE",
"286 357 CURVE SMOOTH",
"308 488 LINE SMOOTH",
"329 615 OFFCURVE",
"353 738 OFFCURVE",
"353 788 CURVE SMOOTH",
"353 824 OFFCURVE",
"334 848 OFFCURVE",
"285 848 CURVE SMOOTH"
);
},
{
closed = 1;
nodes = (
"684 848 OFFCURVE",
"656 829 OFFCURVE",
"652 778 CURVE SMOOTH",
"647 715 OFFCURVE",
"630 576 OFFCURVE",
"614 486 CURVE SMOOTH",
"607 446 OFFCURVE",
"599 403 OFFCURVE",
"591 355 CURVE SMOOTH",
"570 228 OFFCURVE",
"547 105 OFFCURVE",
"547 55 CURVE SMOOTH",
"547 19 OFFCURVE",
"567 -5 OFFCURVE",
"618 -5 CURVE SMOOTH",
"668 -5 OFFCURVE",
"695 14 OFFCURVE",
"699 65 CURVE SMOOTH",
"704 128 OFFCURVE",
"722 267 OFFCURVE",
"737 357 CURVE SMOOTH",
"759 488 LINE SMOOTH",
"780 615 OFFCURVE",
"804 738 OFFCURVE",
"804 788 CURVE SMOOTH",
"804 824 OFFCURVE",
"785 848 OFFCURVE",
"736 848 CURVE SMOOTH"
);
}
);
};
layerId = "ECEFE970-1BBB-4E0A-A452-CEB55884B4A3";
paths = (
{
closed = 1;
nodes = (
"668 -5 OFFCURVE",
"695 14 OFFCURVE",
"699 65 CURVE SMOOTH",
"704 128 OFFCURVE",
"722 267 OFFCURVE",
"737 357 CURVE SMOOTH",
"759 488 LINE SMOOTH",
"780 615 OFFCURVE",
"802 738 OFFCURVE",
"802 788 CURVE SMOOTH",
"802 824 OFFCURVE",
"785 848 OFFCURVE",
"739 848 CURVE SMOOTH",
"690 848 OFFCURVE",
"662 829 OFFCURVE",
"658 778 CURVE SMOOTH",
"653 715 OFFCURVE",
"636 576 OFFCURVE",
"620 486 CURVE SMOOTH",
"613 446 OFFCURVE",
"605 403 OFFCURVE",
"597 355 CURVE SMOOTH",
"576 228 OFFCURVE",
"555 105 OFFCURVE",
"555 55 CURVE SMOOTH",
"555 19 OFFCURVE",
"573 -5 OFFCURVE",
"624 -5 CURVE SMOOTH"
);
},
{
closed = 1;
nodes = (
"211 -5 OFFCURVE",
"238 14 OFFCURVE",
"242 65 CURVE SMOOTH",
"247 128 OFFCURVE",
"265 267 OFFCURVE",
"280 357 CURVE SMOOTH",
"302 488 LINE SMOOTH",
"323 615 OFFCURVE",
"345 738 OFFCURVE",
"345 788 CURVE SMOOTH",
"345 824 OFFCURVE",
"328 848 OFFCURVE",
"282 848 CURVE SMOOTH",
"233 848 OFFCURVE",
"205 829 OFFCURVE",
"201 778 CURVE SMOOTH",
"197 715 OFFCURVE",
"179 576 OFFCURVE",
"163 486 CURVE SMOOTH",
"156 446 OFFCURVE",
"148 403 OFFCURVE",
"140 355 CURVE SMOOTH",
"119 228 OFFCURVE",
"98 105 OFFCURVE",
"98 55 CURVE SMOOTH",
"98 19 OFFCURVE",
"116 -5 OFFCURVE",
"167 -5 CURVE SMOOTH"
);
},
{
closed = 1;
nodes = (
"167 366 OFFCURVE",
"349 370 OFFCURVE",
"419 370 CURVE SMOOTH",
"477 370 OFFCURVE",
"680 370 OFFCURVE",
"764 370 CURVE SMOOTH",
"834 370 OFFCURVE",
"849 399 OFFCURVE",
"849 440 CURVE SMOOTH",
"849 468 OFFCURVE",
"833 491 OFFCURVE",
"788 491 CURVE SMOOTH",
"745 491 OFFCURVE",
"578 488 OFFCURVE",
"437 486 CURVE SMOOTH",
"299 485 OFFCURVE",
"167 484 OFFCURVE",
"141 484 CURVE SMOOTH",
"76 484 OFFCURVE",
"57 455 OFFCURVE",
"57 411 CURVE SMOOTH",
"57 374 OFFCURVE",
"81 363 OFFCURVE",
"114 364 CURVE SMOOTH"
);
}
);
width = 845;
}
);
leftKerningGroup = H_ss01;
note = H;
},
{
color = 0;
glyphname = I.ss01;
lastChange = "2016-07-30 22:42:41 +0000";
layers = (
{
anchors = (
{
name = bottom;
position = "{173, 0}";
},
{
name = ogonek;
position = "{226, 10}";
},
{
name = top;
position = "{290, 840}";
},
{
name = topleft;
position = "{222, 840}";
}
);
background = {
paths = (
{
closed = 1;
nodes = (
"238 848 OFFCURVE",
"210 829 OFFCURVE",
"206 778 CURVE SMOOTH",
"201 715 OFFCURVE",
"184 576 OFFCURVE",
"168 486 CURVE SMOOTH",
"161 446 OFFCURVE",
"153 403 OFFCURVE",
"145 355 CURVE SMOOTH",
"124 228 OFFCURVE",
"101 105 OFFCURVE",
"101 55 CURVE SMOOTH",
"101 19 OFFCURVE",
"121 -5 OFFCURVE",
"172 -5 CURVE SMOOTH",
"222 -5 OFFCURVE",
"249 14 OFFCURVE",
"253 65 CURVE SMOOTH",
"258 128 OFFCURVE",
"276 267 OFFCURVE",
"291 357 CURVE SMOOTH",
"313 488 LINE SMOOTH",
"334 615 OFFCURVE",
"358 738 OFFCURVE",
"358 788 CURVE SMOOTH",
"358 824 OFFCURVE",
"339 848 OFFCURVE",
"290 848 CURVE SMOOTH"
);
}
);
};
layerId = "ECEFE970-1BBB-4E0A-A452-CEB55884B4A3";
paths = (
{
closed = 1;
nodes = (
"219 -5 OFFCURVE",
"246 14 OFFCURVE",
"250 65 CURVE SMOOTH",
"255 128 OFFCURVE",
"273 267 OFFCURVE",
"288 357 CURVE SMOOTH",
"310 488 LINE SMOOTH",
"331 615 OFFCURVE",
"353 738 OFFCURVE",
"353 788 CURVE SMOOTH",
"353 824 OFFCURVE",
"336 848 OFFCURVE",
"290 848 CURVE SMOOTH",
"241 848 OFFCURVE",
"213 829 OFFCURVE",
"209 778 CURVE SMOOTH",
"204 715 OFFCURVE",
"187 576 OFFCURVE",
"171 486 CURVE SMOOTH",
"164 446 OFFCURVE",
"156 403 OFFCURVE",
"148 355 CURVE SMOOTH",
"127 228 OFFCURVE",
"106 105 OFFCURVE",
"106 55 CURVE SMOOTH",
"106 19 OFFCURVE",
"124 -5 OFFCURVE",
"175 -5 CURVE SMOOTH"
);
}
);
width = 357;
}
);
leftKerningGroup = I_ss01;
note = I;
rightKerningGroup = I;
},
{
color = 3;
glyphname = J.ss01;
lastChange = "2016-07-30 21:05:12 +0000";
layers = (
{
anchors = (
{
name = bottom;
position = "{307, 0}";
},
{
name = top;
position = "{444, 840}";
}
);
background = {
paths = (
{
closed = 1;
nodes = (
"480 -8 OFFCURVE",
"578 107 OFFCURVE",
"622 391 CURVE SMOOTH",
"642 521 OFFCURVE",
"653 593 OFFCURVE",
"676 765 CURVE",
"525 754 LINE",
"505 601 OFFCURVE",
"494 525 OFFCURVE",
"459 280 CURVE SMOOTH",
"437 127 OFFCURVE",
"374 98 OFFCURVE",
"314 96 CURVE SMOOTH",
"251 94 OFFCURVE",
"212 126 OFFCURVE",
"177 181 CURVE SMOOTH",
"156 215 OFFCURVE",
"141 224 OFFCURVE",
"124 224 CURVE SMOOTH",
"73 224 OFFCURVE",
"57 158 OFFCURVE",
"83 111 CURVE SMOOTH",
"120 43 OFFCURVE",
"210 -8 OFFCURVE",
"307 -8 CURVE SMOOTH"
);
},
{
closed = 1;
nodes = (
"139 438 OFFCURVE",
"245 493 OFFCURVE",
"213 548 CURVE SMOOTH",
"205 562 OFFCURVE",
"193 585 OFFCURVE",
"193 613 CURVE SMOOTH",
"193 696 OFFCURVE",
"281 724 OFFCURVE",
"414 724 CURVE SMOOTH",
"493 724 OFFCURVE",
"545 717 OFFCURVE",
"649 704 CURVE SMOOTH",
"703 697 OFFCURVE",
"721 723 OFFCURVE",
"721 767 CURVE SMOOTH",
"721 791 OFFCURVE",
"708 812 OFFCURVE",
"664 823 CURVE SMOOTH",
"600 839 OFFCURVE",
"522 847 OFFCURVE",
"454 847 CURVE SMOOTH",
"239 847 OFFCURVE",
"74 781 OFFCURVE",
"74 607 CURVE SMOOTH",
"74 566 OFFCURVE",
"85 528 OFFCURVE",
"102 500 CURVE SMOOTH"
);
}
);
};
layerId = "ECEFE970-1BBB-4E0A-A452-CEB55884B4A3";
paths = (
{
closed = 1;
nodes = (
"480 -8 OFFCURVE",
"578 107 OFFCURVE",
"624 411 CURVE SMOOTH",
"641 521 OFFCURVE",
"653 593 OFFCURVE",
"673 765 CURVE",
"529 754 LINE",
"511 601 OFFCURVE",
"501 525 OFFCURVE",
"473 330 CURVE SMOOTH",
"444 127 OFFCURVE",
"376 98 OFFCURVE",
"318 96 CURVE SMOOTH",
"253 94 OFFCURVE",
"212 126 OFFCURVE",
"177 181 CURVE SMOOTH",
"156 215 OFFCURVE",
"141 224 OFFCURVE",
"124 224 CURVE SMOOTH",
"73 224 OFFCURVE",
"57 158 OFFCURVE",
"83 111 CURVE SMOOTH",
"120 43 OFFCURVE",
"210 -8 OFFCURVE",
"307 -8 CURVE SMOOTH"
);
},
{
closed = 1;
nodes = (
"139 438 OFFCURVE",
"245 493 OFFCURVE",
"213 548 CURVE SMOOTH",
"205 562 OFFCURVE",
"193 585 OFFCURVE",
"193 613 CURVE SMOOTH",
"193 696 OFFCURVE",
"281 726 OFFCURVE",
"414 726 CURVE SMOOTH",
"493 726 OFFCURVE",
"545 719 OFFCURVE",
"649 706 CURVE SMOOTH",
"703 699 OFFCURVE",
"721 723 OFFCURVE",
"721 767 CURVE SMOOTH",
"721 791 OFFCURVE",
"708 812 OFFCURVE",
"664 823 CURVE SMOOTH",
"600 839 OFFCURVE",
"522 847 OFFCURVE",
"454 847 CURVE SMOOTH",
"239 847 OFFCURVE",
"74 781 OFFCURVE",
"74 607 CURVE SMOOTH",
"74 566 OFFCURVE",
"85 528 OFFCURVE",
"102 500 CURVE SMOOTH"
);
}
);
width = 683;
}
);
leftKerningGroup = J_ss01;
note = J;
rightKerningGroup = J;
},
{
color = 3;
glyphname = K.ss01;
lastChange = "2016-07-30 20:57:47 +0000";
layers = (
{
anchors = (
{
name = bottom;
position = "{378, 0}";
},
{
name = top;
position = "{502, 840}";
}
);
background = {
paths = (
{
closed = 1;
nodes = (
"1817 51 OFFCURVE",
"1798 135 OFFCURVE",
"1741 122 CURVE SMOOTH",
"1723 118 OFFCURVE",
"1706 114 OFFCURVE",
"1690 114 CURVE SMOOTH",
"1650 114 OFFCURVE",
"1618 147 OFFCURVE",
"1573 235 CURVE SMOOTH",
"1517 344 OFFCURVE",
"1490 390 OFFCURVE",
"1324 390 CURVE",
"1285 336 LINE",
"1354 336 OFFCURVE",
"1371 314 OFFCURVE",
"1439 174 CURVE SMOOTH",
"1494 61 OFFCURVE",
"1549 -5 OFFCURVE",
"1655 -5 CURVE SMOOTH",
"1693 -5 OFFCURVE",
"1731 6 OFFCURVE",
"1754 18 CURVE SMOOTH"
);
},
{
closed = 1;
nodes = (
"1792 814 OFFCURVE",
"1769 842 OFFCURVE",
"1726 842 CURVE SMOOTH",
"1677 842 OFFCURVE",
"1648 821 OFFCURVE",
"1636 784 CURVE SMOOTH",
"1573 591 OFFCURVE",
"1479 441 OFFCURVE",
"1288 441 CURVE SMOOTH",
"1242 441 OFFCURVE",
"1189 441 OFFCURVE",
"1130 441 CURVE SMOOTH",
"1105 441 OFFCURVE",
"1083 420 OFFCURVE",
"1083 384 CURVE SMOOTH",
"1083 354 OFFCURVE",
"1101 335 OFFCURVE",
"1132 335 CURVE SMOOTH",
"1305 336 LINE",
"1359 367 LINE",
"1509 380 OFFCURVE",
"1695 493 OFFCURVE",
"1779 771 CURVE SMOOTH"
);
},
{
closed = 1;
nodes = (
"1234 848 OFFCURVE",
"1206 829 OFFCURVE",
"1202 778 CURVE SMOOTH",
"1197 715 OFFCURVE",
"1180 576 OFFCURVE",
"1164 486 CURVE SMOOTH",
"1157 446 OFFCURVE",
"1149 403 OFFCURVE",
"1141 355 CURVE SMOOTH",
"1120 228 OFFCURVE",
"1097 105 OFFCURVE",
"1097 55 CURVE SMOOTH",
"1097 19 OFFCURVE",
"1117 -5 OFFCURVE",
"1168 -5 CURVE SMOOTH",
"1218 -5 OFFCURVE",
"1245 14 OFFCURVE",
"1249 65 CURVE SMOOTH",
"1254 128 OFFCURVE",
"1272 267 OFFCURVE",
"1287 357 CURVE SMOOTH",
"1309 488 LINE SMOOTH",
"1330 615 OFFCURVE",
"1354 738 OFFCURVE",
"1354 788 CURVE SMOOTH",
"1354 824 OFFCURVE",
"1335 848 OFFCURVE",
"1286 848 CURVE SMOOTH"
);
},
{
closed = 1;
nodes = (
"749 -5 OFFCURVE",
"809 49 OFFCURVE",
"864 116 CURVE",
"828 209 LINE",
"772 142 OFFCURVE",
"738 114 OFFCURVE",
"694 114 CURVE SMOOTH",
"646 114 OFFCURVE",
"614 147 OFFCURVE",
"573 235 CURVE SMOOTH",
"521 346 OFFCURVE",
"490 390 OFFCURVE",
"324 390 CURVE",
"285 336 LINE",
"357 336 OFFCURVE",
"378 315 OFFCURVE",
"442 174 CURVE SMOOTH",
"493 61 OFFCURVE",
"546 -5 OFFCURVE",
"651 -5 CURVE SMOOTH"
);
},
{
closed = 1;
nodes = (
"789 814 OFFCURVE",
"766 842 OFFCURVE",
"721 842 CURVE SMOOTH",
"677 842 OFFCURVE",
"648 821 OFFCURVE",
"636 784 CURVE SMOOTH",
"573 591 OFFCURVE",
"479 441 OFFCURVE",
"288 441 CURVE SMOOTH",
"242 441 OFFCURVE",
"209 441 OFFCURVE",
"150 441 CURVE SMOOTH",
"125 441 OFFCURVE",
"103 420 OFFCURVE",
"103 384 CURVE SMOOTH",
"103 354 OFFCURVE",
"121 335 OFFCURVE",
"152 335 CURVE SMOOTH",
"305 336 LINE",
"359 367 LINE",
"509 380 OFFCURVE",
"692 493 OFFCURVE",
"776 771 CURVE SMOOTH"
);
}
);
};
layerId = "ECEFE970-1BBB-4E0A-A452-CEB55884B4A3";
paths = (
{
closed = 1;
nodes = (
"305 336 LINE",
"359 367 LINE",
"509 380 OFFCURVE",
"692 493 OFFCURVE",
"776 771 CURVE SMOOTH",
"789 814 OFFCURVE",
"764 842 OFFCURVE",
"721 842 CURVE SMOOTH",
"672 842 OFFCURVE",
"648 821 OFFCURVE",
"636 784 CURVE SMOOTH",
"573 591 OFFCURVE",
"479 441 OFFCURVE",
"288 441 CURVE SMOOTH",
"242 441 OFFCURVE",
"189 441 OFFCURVE",
"130 441 CURVE SMOOTH",
"105 441 OFFCURVE",
"83 420 OFFCURVE",
"83 384 CURVE SMOOTH",
"83 354 OFFCURVE",
"101 335 OFFCURVE",
"132 335 CURVE SMOOTH"
);
},
{
closed = 1;
nodes = (
"211 -5 OFFCURVE",
"238 14 OFFCURVE",
"242 65 CURVE SMOOTH",
"247 128 OFFCURVE",
"265 267 OFFCURVE",
"280 357 CURVE SMOOTH",
"302 488 LINE SMOOTH",
"323 615 OFFCURVE",
"345 738 OFFCURVE",
"345 788 CURVE SMOOTH",
"345 824 OFFCURVE",
"328 848 OFFCURVE",
"282 848 CURVE SMOOTH",
"233 848 OFFCURVE",
"205 829 OFFCURVE",
"201 778 CURVE SMOOTH",
"196 715 OFFCURVE",
"179 576 OFFCURVE",
"163 486 CURVE SMOOTH",
"156 446 OFFCURVE",
"148 403 OFFCURVE",
"140 355 CURVE SMOOTH",
"119 228 OFFCURVE",
"98 105 OFFCURVE",
"98 55 CURVE SMOOTH",
"98 19 OFFCURVE",
"116 -5 OFFCURVE",
"167 -5 CURVE SMOOTH"
);
},
{
closed = 1;
nodes = (
"689 -5 OFFCURVE",
"731 6 OFFCURVE",
"754 18 CURVE SMOOTH",
"817 52 OFFCURVE",
"798 136 OFFCURVE",
"741 122 CURVE SMOOTH",
"723 118 OFFCURVE",
"706 114 OFFCURVE",
"690 114 CURVE SMOOTH",
"650 114 OFFCURVE",
"615 145 OFFCURVE",
"573 235 CURVE SMOOTH",
"521 346 OFFCURVE",
"490 390 OFFCURVE",
"324 390 CURVE",
"285 336 LINE",
"357 336 OFFCURVE",
"378 316 OFFCURVE",
"442 174 CURVE SMOOTH",
"493 61 OFFCURVE",
"546 -5 OFFCURVE",
"651 -5 CURVE SMOOTH"
);
}
);
width = 775;
}
);
leftKerningGroup = H_ss01;
note = K;
rightKerningGroup = K_ss01;
},
{
color = 3;
glyphname = L.ss01;
lastChange = "2016-07-30 22:55:29 +0000";
layers = (
{
anchors = (
{
name = bottom;
position = "{358, 0}";
},
{
name = center;
position = "{463, 420}";
},
{
name = top;
position = "{273, 840}";
},
{
name = topright;
position = "{505, 840}";
}
);
background = {
paths = (
{
closed = 1;
nodes = (
"402 124 OFFCURVE",
"318 122 OFFCURVE",
"245 118 CURVE",
"254 187 OFFCURVE",
"268 285 OFFCURVE",
"280 357 CURVE SMOOTH",
"301 488 LINE SMOOTH",
"321 615 OFFCURVE",
"345 738 OFFCURVE",
"345 788 CURVE SMOOTH",
"345 824 OFFCURVE",
"326 848 OFFCURVE",
"276 848 CURVE SMOOTH",
"224 848 OFFCURVE",
"197 829 OFFCURVE",
"192 778 CURVE SMOOTH",
"181 657 OFFCURVE",
"154 511 OFFCURVE",
"131 355 CURVE SMOOTH",
"115 248 OFFCURVE",
"92 91 OFFCURVE",
"90 41 CURVE SMOOTH",
"89 9 OFFCURVE",
"112 -13 OFFCURVE",
"156 -11 CURVE SMOOTH",
"291 -5 OFFCURVE",
"377 -2 OFFCURVE",
"557 -2 CURVE SMOOTH",
"602 -2 OFFCURVE",
"625 28 OFFCURVE",
"625 68 CURVE SMOOTH",
"625 112 OFFCURVE",
"602 124 OFFCURVE",
"570 124 CURVE SMOOTH"
);
}
);
};
layerId = "ECEFE970-1BBB-4E0A-A452-CEB55884B4A3";
paths = (
{
closed = 1;
nodes = (
"291 -5 OFFCURVE",
"377 -2 OFFCURVE",
"557 -2 CURVE SMOOTH",
"602 -2 OFFCURVE",
"625 28 OFFCURVE",
"625 68 CURVE SMOOTH",
"625 110 OFFCURVE",
"602 122 OFFCURVE",
"570 122 CURVE SMOOTH",
"402 122 OFFCURVE",
"318 120 OFFCURVE",
"238 116 CURVE",
"247 185 OFFCURVE",
"262 285 OFFCURVE",
"273 357 CURVE SMOOTH",
"293 488 LINE SMOOTH",
"312 615 OFFCURVE",
"336 738 OFFCURVE",
"336 788 CURVE SMOOTH",
"336 824 OFFCURVE",
"319 848 OFFCURVE",
"273 848 CURVE SMOOTH",
"224 848 OFFCURVE",
"197 829 OFFCURVE",
"192 778 CURVE SMOOTH",
"181 657 OFFCURVE",
"154 511 OFFCURVE",
"131 355 CURVE SMOOTH",
"115 248 OFFCURVE",
"92 91 OFFCURVE",
"90 41 CURVE SMOOTH",
"89 9 OFFCURVE",
"112 -13 OFFCURVE",
"156 -11 CURVE SMOOTH"
);
}
);
width = 625;
}
);
leftKerningGroup = I_ss01;
note = L;
},
{
color = 3;
glyphname = Lslash.ss01;
lastChange = "2016-07-30 21:00:02 +0000";
layers = (
{
background = {
paths = (
{
closed = 1;
nodes = (
"291 -5 OFFCURVE",
"377 -2 OFFCURVE",
"557 -2 CURVE SMOOTH",
"602 -2 OFFCURVE",
"625 28 OFFCURVE",
"625 68 CURVE SMOOTH",
"625 110 OFFCURVE",
"602 122 OFFCURVE",
"570 122 CURVE SMOOTH",
"402 122 OFFCURVE",
"318 120 OFFCURVE",
"238 116 CURVE",
"247 185 OFFCURVE",
"262 285 OFFCURVE",
"273 357 CURVE SMOOTH",
"293 488 LINE SMOOTH",
"312 615 OFFCURVE",
"336 738 OFFCURVE",
"336 788 CURVE SMOOTH",
"336 824 OFFCURVE",
"319 848 OFFCURVE",
"273 848 CURVE SMOOTH",
"224 848 OFFCURVE",
"197 829 OFFCURVE",
"192 778 CURVE SMOOTH",
"181 657 OFFCURVE",
"154 511 OFFCURVE",
"131 355 CURVE SMOOTH",
"115 248 OFFCURVE",
"92 91 OFFCURVE",
"90 41 CURVE SMOOTH",
"89 9 OFFCURVE",
"112 -13 OFFCURVE",
"156 -11 CURVE SMOOTH"
);
},
{
closed = 1;
nodes = (
"245 422 OFFCURVE",
"294 453 OFFCURVE",
"422 529 CURVE SMOOTH",
"469 557 OFFCURVE",
"493 595 OFFCURVE",
"468 640 CURVE SMOOTH",
"458 658 OFFCURVE",
"436 661 OFFCURVE",
"410 647 CURVE SMOOTH",
"397 640 OFFCURVE",
"102 461 OFFCURVE",
"75 444 CURVE SMOOTH",
"33 418 OFFCURVE",
"80 327 OFFCURVE",
"134 358 CURVE SMOOTH"
);
}
);
};
layerId = "ECEFE970-1BBB-4E0A-A452-CEB55884B4A3";
paths = (
{
closed = 1;
nodes = (
"291 -5 OFFCURVE",
"377 -2 OFFCURVE",
"557 -2 CURVE SMOOTH",
"602 -2 OFFCURVE",
"625 28 OFFCURVE",
"625 68 CURVE SMOOTH",
"625 110 OFFCURVE",
"602 122 OFFCURVE",
"570 122 CURVE SMOOTH",
"402 122 OFFCURVE",
"318 120 OFFCURVE",
"238 116 CURVE",
"247 185 OFFCURVE",
"262 285 OFFCURVE",
"273 357 CURVE SMOOTH",
"293 488 LINE SMOOTH",
"312 615 OFFCURVE",
"336 738 OFFCURVE",
"336 788 CURVE SMOOTH",
"336 824 OFFCURVE",
"319 848 OFFCURVE",
"273 848 CURVE SMOOTH",
"224 848 OFFCURVE",
"197 829 OFFCURVE",
"192 778 CURVE SMOOTH",
"181 657 OFFCURVE",
"154 511 OFFCURVE",
"131 355 CURVE SMOOTH",
"115 248 OFFCURVE",
"92 91 OFFCURVE",
"90 41 CURVE SMOOTH",
"89 9 OFFCURVE",
"112 -13 OFFCURVE",
"156 -11 CURVE SMOOTH"
);
},
{
closed = 1;
nodes = (
"222 402 OFFCURVE",
"337 470 OFFCURVE",
"465 546 CURVE SMOOTH",
"512 574 OFFCURVE",
"536 612 OFFCURVE",
"511 657 CURVE SMOOTH",
"501 675 OFFCURVE",
"479 678 OFFCURVE",
"453 664 CURVE SMOOTH",
"440 657 OFFCURVE",
"79 441 OFFCURVE",
"52 424 CURVE SMOOTH",
"10 398 OFFCURVE",
"57 307 OFFCURVE",
"111 338 CURVE SMOOTH"
);
}
);
width = 625;
}
);
leftKerningGroup = I_ss01;
rightKerningGroup = L_ss01;
},
{
color = 3;
glyphname = M.ss01;
lastChange = "2016-07-30 20:55:25 +0000";
layers = (
{
anchors = (
{
name = bottom;
position = "{564, 0}";
},
{
name = top;
position = "{668, 840}";
}
);
background = {
paths = (
{
closed = 1;
nodes = (
"1956 848 OFFCURVE",
"1864 782 OFFCURVE",
"1794 590 CURVE",
"1801 628 OFFCURVE",
"1803 653 OFFCURVE",
"1803 672 CURVE SMOOTH",
"1803 785 OFFCURVE",
"1750 848 OFFCURVE",
"1663 848 CURVE SMOOTH",
"1560 848 OFFCURVE",
"1469 790 OFFCURVE",
"1391 590 CURVE",
"1404 666 OFFCURVE",
"1418 744 OFFCURVE",
"1422 782 CURVE SMOOTH",
"1427 829 OFFCURVE",
"1416 852 OFFCURVE",
"1363 852 CURVE SMOOTH",
"1328 852 OFFCURVE",
"1292 839 OFFCURVE",
"1285 794 CURVE SMOOTH",
"1254 592 OFFCURVE",
"1196 210 OFFCURVE",
"1186 84 CURVE SMOOTH",
"1181 20 OFFCURVE",
"1211 -5 OFFCURVE",
"1259 -5 CURVE SMOOTH",
"1310 -5 OFFCURVE",
"1329 25 OFFCURVE",
"1337 86 CURVE SMOOTH",
"1404 594 OFFCURVE",
"1537 721 OFFCURVE",
"1621 721 CURVE SMOOTH",
"1657 721 OFFCURVE",
"1676 698 OFFCURVE",
"1676 647 CURVE SMOOTH",
"1676 587 OFFCURVE",
"1650 456 OFFCURVE",
"1627 335 CURVE SMOOTH",
"1615 272 OFFCURVE",
"1588 135 OFFCURVE",
"1588 81 CURVE SMOOTH",
"1588 20 OFFCURVE",
"1610 -5 OFFCURVE",
"1657 -5 CURVE SMOOTH",
"1711 -5 OFFCURVE",
"1731 25 OFFCURVE",
"1740 96 CURVE SMOOTH",
"1799 565 OFFCURVE",
"1938 721 OFFCURVE",
"2022 721 CURVE SMOOTH",
"2053 721 OFFCURVE",
"2075 698 OFFCURVE",
"2075 651 CURVE SMOOTH",
"2075 619 OFFCURVE",
"2065 549 OFFCURVE",
"2054 486 CURVE SMOOTH",
"2030 353 LINE SMOOTH",
"2007 226 OFFCURVE",
"1986 105 OFFCURVE",
"1986 55 CURVE SMOOTH",
"1986 19 OFFCURVE",
"2006 -5 OFFCURVE",
"2057 -5 CURVE SMOOTH",
"2107 -5 OFFCURVE",
"2134 14 OFFCURVE",
"2138 65 CURVE SMOOTH",
"2143 128 OFFCURVE",
"2161 267 OFFCURVE",
"2177 357 CURVE SMOOTH",
"2199 480 LINE SMOOTH",
"2212 551 OFFCURVE",
"2225 625 OFFCURVE",
"2225 677 CURVE SMOOTH",
"2225 783 OFFCURVE",
"2164 848 OFFCURVE",
"2075 848 CURVE SMOOTH"
);
},
{
closed = 1;
nodes = (
"1238 209 LINE",
"1182 142 OFFCURVE",
"1144 114 OFFCURVE",
"1099 114 CURVE SMOOTH",
"1053 114 OFFCURVE",
"1025 141 OFFCURVE",
"1025 198 CURVE SMOOTH",
"1025 229 OFFCURVE",
"1029 254 OFFCURVE",
"1035 284 CURVE SMOOTH",
"1096 570 LINE SMOOTH",
"1104 609 OFFCURVE",
"1109 645 OFFCURVE",
"1109 677 CURVE SMOOTH",
"1109 783 OFFCURVE",
"1059 848 OFFCURVE",
"964 848 CURVE SMOOTH",
"854 848 OFFCURVE",
"763 782 OFFCURVE",
"693 590 CURVE",
"700 628 OFFCURVE",
"702 653 OFFCURVE",
"702 672 CURVE SMOOTH",
"702 785 OFFCURVE",
"648 848 OFFCURVE",
"562 848 CURVE SMOOTH",
"461 848 OFFCURVE",
"360 790 OFFCURVE",
"278 556 CURVE",
"288 614 OFFCURVE",
"298 666 OFFCURVE",
"298 711 CURVE SMOOTH",
"298 801 OFFCURVE",
"256 848 OFFCURVE",
"184 848 CURVE SMOOTH",
"105 848 OFFCURVE",
"23 797 OFFCURVE",
"-41 708 CURVE SMOOTH",
"-62 679 OFFCURVE",
"-69 659 OFFCURVE",
"-69 638 CURVE SMOOTH",
"-69 603 OFFCURVE",
"-33 573 OFFCURVE",
"-3 613 CURVE SMOOTH",
"60 697 OFFCURVE",
"110 724 OFFCURVE",
"140 724 CURVE SMOOTH",
"160 724 OFFCURVE",
"173 713 OFFCURVE",
"173 679 CURVE SMOOTH",
"173 653 OFFCURVE",
"171 615 OFFCURVE",
"164 559 CURVE SMOOTH",
"136 333 OFFCURVE",
"95 159 OFFCURVE",
"95 84 CURVE SMOOTH",
"95 20 OFFCURVE",
"118 -5 OFFCURVE",
"164 -5 CURVE SMOOTH",
"219 -5 OFFCURVE",
"229 25 OFFCURVE",
"237 86 CURVE SMOOTH",
"305 604 OFFCURVE",
"438 721 OFFCURVE",
"522 721 CURVE SMOOTH",
"561 721 OFFCURVE",
"580 698 OFFCURVE",
"580 647 CURVE SMOOTH",
"580 587 OFFCURVE",
"557 456 OFFCURVE",
"534 335 CURVE SMOOTH",
"522 272 OFFCURVE",
"495 135 OFFCURVE",
"495 81 CURVE SMOOTH",
"495 20 OFFCURVE",
"517 -5 OFFCURVE",
"560 -5 CURVE SMOOTH",
"611 -5 OFFCURVE",
"632 25 OFFCURVE",
"641 96 CURVE SMOOTH",
"702 575 OFFCURVE",
"828 721 OFFCURVE",
"913 721 CURVE SMOOTH",
"946 721 OFFCURVE",
"965 698 OFFCURVE",
"965 651 CURVE SMOOTH",
"965 607 OFFCURVE",
"955 572 OFFCURVE",
"947 535 CURVE SMOOTH",
"907 352 LINE SMOOTH",
"890 273 OFFCURVE",
"883 221 OFFCURVE",
"883 181 CURVE SMOOTH",
"883 69 OFFCURVE",
"949 -5 OFFCURVE",
"1064 -5 CURVE SMOOTH",
"1138 -5 OFFCURVE",
"1204 31 OFFCURVE",
"1274 116 CURVE"
);
}
);
};
layerId = "ECEFE970-1BBB-4E0A-A452-CEB55884B4A3";
paths = (
{
closed = 1;
nodes = (
"211 -5 OFFCURVE",
"230 25 OFFCURVE",
"235 66 CURVE SMOOTH",
"306 604 OFFCURVE",
"439 721 OFFCURVE",
"522 721 CURVE SMOOTH",
"562 721 OFFCURVE",
"581 698 OFFCURVE",
"581 647 CURVE SMOOTH",
"581 587 OFFCURVE",
"558 456 OFFCURVE",
"535 335 CURVE SMOOTH",
"523 272 OFFCURVE",
"496 135 OFFCURVE",
"496 61 CURVE SMOOTH",
"496 10 OFFCURVE",
"518 -5 OFFCURVE",
"561 -5 CURVE SMOOTH",
"615 -5 OFFCURVE",
"632 15 OFFCURVE",
"640 76 CURVE SMOOTH",
"703 575 OFFCURVE",
"829 721 OFFCURVE",
"914 721 CURVE SMOOTH",
"945 721 OFFCURVE",
"966 699 OFFCURVE",
"966 652 CURVE SMOOTH",
"966 620 OFFCURVE",
"956 549 OFFCURVE",
"945 486 CURVE SMOOTH",
"921 353 LINE SMOOTH",
"898 226 OFFCURVE",
"877 105 OFFCURVE",
"877 55 CURVE SMOOTH",
"877 19 OFFCURVE",
"897 -5 OFFCURVE",
"948 -5 CURVE SMOOTH",
"998 -5 OFFCURVE",
"1018 14 OFFCURVE",
"1022 65 CURVE SMOOTH",
"1027 128 OFFCURVE",
"1046 267 OFFCURVE",
"1062 357 CURVE SMOOTH",
"1084 480 LINE SMOOTH",
"1097 551 OFFCURVE",
"1110 625 OFFCURVE",
"1110 677 CURVE SMOOTH",
"1110 783 OFFCURVE",
"1060 848 OFFCURVE",
"965 848 CURVE SMOOTH",
"855 848 OFFCURVE",
"764 782 OFFCURVE",
"694 590 CURVE",
"701 628 OFFCURVE",
"703 653 OFFCURVE",
"703 672 CURVE SMOOTH",
"703 785 OFFCURVE",
"649 848 OFFCURVE",
"563 848 CURVE SMOOTH",
"462 848 OFFCURVE",
"370 790 OFFCURVE",
"292 590 CURVE",
"309 666 OFFCURVE",
"323 744 OFFCURVE",
"327 782 CURVE SMOOTH",
"332 829 OFFCURVE",
"331 852 OFFCURVE",
"274 852 CURVE SMOOTH",
"233 852 OFFCURVE",
"203 839 OFFCURVE",
"196 794 CURVE SMOOTH",
"165 592 OFFCURVE",
"107 210 OFFCURVE",
"95 64 CURVE SMOOTH",
"91 10 OFFCURVE",
"122 -5 OFFCURVE",
"160 -5 CURVE SMOOTH"
);
}
);
width = 1148;
}
);
leftKerningGroup = I_ss01;
leftMetricsKey = N.ss01;
note = M;
rightMetricsKey = N.ss01;
},
{
color = 3;
glyphname = N.ss01;
lastChange = "2016-07-30 20:55:25 +0000";
layers = (
{
anchors = (
{
name = bottom;
position = "{382, 0}";
},
{
name = top;
position = "{496, 840}";
}
);
background = {
paths = (
{
closed = 1;
nodes = (
"1449 848 OFFCURVE",
"1350 746 OFFCURVE",
"1283 590 CURVE",
"1296 666 OFFCURVE",
"1310 744 OFFCURVE",
"1314 782 CURVE SMOOTH",
"1319 829 OFFCURVE",
"1308 852 OFFCURVE",
"1255 852 CURVE SMOOTH",
"1220 852 OFFCURVE",
"1184 840 OFFCURVE",
"1177 794 CURVE SMOOTH",
"1146 592 OFFCURVE",
"1091 210 OFFCURVE",
"1081 84 CURVE SMOOTH",
"1076 20 OFFCURVE",
"1103 -5 OFFCURVE",
"1151 -5 CURVE SMOOTH",
"1199 -5 OFFCURVE",
"1221 25 OFFCURVE",
"1228 86 CURVE SMOOTH",
"1277 513 OFFCURVE",
"1425 721 OFFCURVE",
"1551 721 CURVE SMOOTH",
"1587 721 OFFCURVE",
"1610 700 OFFCURVE",
"1610 649 CURVE SMOOTH",
"1610 619 OFFCURVE",
"1600 549 OFFCURVE",
"1589 486 CURVE SMOOTH",
"1565 353 LINE SMOOTH",
"1542 226 OFFCURVE",
"1521 105 OFFCURVE",
"1521 55 CURVE SMOOTH",
"1521 19 OFFCURVE",
"1541 -5 OFFCURVE",
"1592 -5 CURVE SMOOTH",
"1642 -5 OFFCURVE",
"1669 14 OFFCURVE",
"1673 65 CURVE SMOOTH",
"1678 128 OFFCURVE",
"1696 267 OFFCURVE",
"1712 357 CURVE SMOOTH",
"1734 480 LINE SMOOTH",
"1747 551 OFFCURVE",
"1760 625 OFFCURVE",
"1760 677 CURVE SMOOTH",
"1760 776 OFFCURVE",
"1708 848 OFFCURVE",
"1589 848 CURVE SMOOTH"
);
},
{
closed = 1;
nodes = (
"515 848 OFFCURVE",
"424 782 OFFCURVE",
"354 590 CURVE",
"361 628 OFFCURVE",
"363 653 OFFCURVE",
"363 672 CURVE SMOOTH",
"363 785 OFFCURVE",
"309 848 OFFCURVE",
"223 848 CURVE SMOOTH",
"122 848 OFFCURVE",
"30 790 OFFCURVE",
"-48 590 CURVE",
"-31 666 OFFCURVE",
"-17 744 OFFCURVE",
"-13 782 CURVE SMOOTH",
"-8 829 OFFCURVE",
"-9 852 OFFCURVE",
"-66 852 CURVE SMOOTH",
"-107 852 OFFCURVE",
"-137 839 OFFCURVE",
"-144 794 CURVE SMOOTH",
"-175 592 OFFCURVE",
"-233 210 OFFCURVE",
"-243 84 CURVE SMOOTH",
"-248 20 OFFCURVE",
"-218 -5 OFFCURVE",
"-180 -5 CURVE SMOOTH",
"-129 -5 OFFCURVE",
"-110 25 OFFCURVE",
"-102 86 CURVE SMOOTH",
"-34 604 OFFCURVE",
"99 721 OFFCURVE",
"182 721 CURVE SMOOTH",
"222 721 OFFCURVE",
"241 698 OFFCURVE",
"241 647 CURVE SMOOTH",
"241 587 OFFCURVE",
"218 456 OFFCURVE",
"195 335 CURVE SMOOTH",
"183 272 OFFCURVE",
"156 135 OFFCURVE",
"156 81 CURVE SMOOTH",
"156 20 OFFCURVE",
"178 -5 OFFCURVE",
"221 -5 CURVE SMOOTH",
"275 -5 OFFCURVE",
"293 25 OFFCURVE",
"302 96 CURVE SMOOTH",
"363 575 OFFCURVE",
"489 721 OFFCURVE",
"574 721 CURVE SMOOTH",
"605 721 OFFCURVE",
"626 699 OFFCURVE",
"626 652 CURVE SMOOTH",
"626 620 OFFCURVE",
"616 549 OFFCURVE",
"605 486 CURVE SMOOTH",
"581 353 LINE SMOOTH",
"558 226 OFFCURVE",
"537 105 OFFCURVE",
"537 55 CURVE SMOOTH",
"537 19 OFFCURVE",
"557 -5 OFFCURVE",
"608 -5 CURVE SMOOTH",
"658 -5 OFFCURVE",
"678 14 OFFCURVE",
"682 65 CURVE SMOOTH",
"687 128 OFFCURVE",
"706 267 OFFCURVE",
"722 357 CURVE SMOOTH",
"744 480 LINE SMOOTH",
"757 551 OFFCURVE",
"770 625 OFFCURVE",
"770 677 CURVE SMOOTH",
"770 783 OFFCURVE",
"720 848 OFFCURVE",
"625 848 CURVE SMOOTH"
);
}
);
};
layerId = "ECEFE970-1BBB-4E0A-A452-CEB55884B4A3";
paths = (
{
closed = 1;
nodes = (
"209 -5 OFFCURVE",
"231 25 OFFCURVE",
"236 66 CURVE SMOOTH",
"287 513 OFFCURVE",
"435 721 OFFCURVE",
"564 721 CURVE SMOOTH",
"603 721 OFFCURVE",
"626 700 OFFCURVE",
"626 649 CURVE SMOOTH",
"626 619 OFFCURVE",
"616 549 OFFCURVE",
"605 486 CURVE SMOOTH",
"581 353 LINE SMOOTH",
"558 226 OFFCURVE",
"537 105 OFFCURVE",
"537 55 CURVE SMOOTH",
"537 19 OFFCURVE",
"557 -5 OFFCURVE",
"602 -5 CURVE SMOOTH",
"652 -5 OFFCURVE",
"679 14 OFFCURVE",
"683 65 CURVE SMOOTH",
"688 128 OFFCURVE",
"706 267 OFFCURVE",
"722 357 CURVE SMOOTH",
"744 480 LINE SMOOTH",
"757 551 OFFCURVE",
"770 625 OFFCURVE",
"770 677 CURVE SMOOTH",
"770 776 OFFCURVE",
"718 848 OFFCURVE",
"601 848 CURVE SMOOTH",
"459 848 OFFCURVE",
"360 746 OFFCURVE",
"293 590 CURVE",
"309 666 OFFCURVE",
"323 744 OFFCURVE",
"327 782 CURVE SMOOTH",
"332 829 OFFCURVE",
"331 852 OFFCURVE",
"271 852 CURVE SMOOTH",
"238 852 OFFCURVE",
"202 840 OFFCURVE",
"195 794 CURVE SMOOTH",
"164 592 OFFCURVE",
"107 210 OFFCURVE",
"95 64 CURVE SMOOTH",
"91 10 OFFCURVE",
"119 -5 OFFCURVE",
"161 -5 CURVE SMOOTH"
);
}
);
width = 808;
}
);
leftKerningGroup = I_ss01;
note = N;
},
{
color = 3;
glyphname = OE.ss01;
lastChange = "2016-07-30 21:00:37 +0000";
layers = (
{
anchors = (
{
name = bottom;
position = "{659, 0}";
},
{
name = top;
position = "{727, 840}";
}
);
background = {
paths = (
{
closed = 1;
nodes = (
"617 -5 OFFCURVE",
"787 217 OFFCURVE",
"787 505 CURVE SMOOTH",
"787 724 OFFCURVE",
"661 848 OFFCURVE",
"487 848 CURVE SMOOTH",
"255 848 OFFCURVE",
"69 649 OFFCURVE",
"69 338 CURVE SMOOTH",
"69 114 OFFCURVE",
"211 -5 OFFCURVE",
"385 -5 CURVE SMOOTH"
);
},
{
closed = 1;
nodes = (
"298 117 OFFCURVE",
"220 192 OFFCURVE",
"220 356 CURVE SMOOTH",
"220 570 OFFCURVE",
"322 726 OFFCURVE",
"476 726 CURVE SMOOTH",
"576 726 OFFCURVE",
"652 651 OFFCURVE",
"652 487 CURVE SMOOTH",
"652 273 OFFCURVE",
"548 117 OFFCURVE",
"396 117 CURVE SMOOTH"
);
},
{
closed = 1;
nodes = (
"1158 38 OFFCURVE",
"1170 61 OFFCURVE",
"1170 98 CURVE SMOOTH",
"1170 126 OFFCURVE",
"1157 155 OFFCURVE",
"1111 144 CURVE SMOOTH",
"1057 131 OFFCURVE",
"1028 121 OFFCURVE",
"966 121 CURVE SMOOTH",
"809 121 OFFCURVE",
"769 212 OFFCURVE",
"803 361 CURVE",
"912 363 OFFCURVE",
"980 366 OFFCURVE",
"1058 368 CURVE SMOOTH",
"1101 369 OFFCURVE",
"1124 401 OFFCURVE",
"1124 441 CURVE SMOOTH",
"1124 471 OFFCURVE",
"1113 490 OFFCURVE",
"1071 490 CURVE SMOOTH",
"1000 490 OFFCURVE",
"916 486 OFFCURVE",
"827 483 CURVE",
"843 556 OFFCURVE",
"865 648 OFFCURVE",
"885 710 CURVE",
"926 713 OFFCURVE",
"1070 720 OFFCURVE",
"1122 720 CURVE SMOOTH",
"1174 720 OFFCURVE",
"1194 759 OFFCURVE",
"1194 795 CURVE SMOOTH",
"1194 832 OFFCURVE",
"1179 849 OFFCURVE",
"1130 849 CURVE SMOOTH",
"1054 849 OFFCURVE",
"934 842 OFFCURVE",
"880 840 CURVE SMOOTH",
"813 838 OFFCURVE",
"762 801 OFFCURVE",
"742 727 CURVE SMOOTH",
"661 431 LINE",
"652 264 LINE",
"646 121 OFFCURVE",
"728 -5 OFFCURVE",
"953 -5 CURVE SMOOTH",
"1010 -5 OFFCURVE",
"1064 4 OFFCURVE",
"1111 21 CURVE SMOOTH"
);
}
);
};
layerId = "ECEFE970-1BBB-4E0A-A452-CEB55884B4A3";
paths = (
{
closed = 1;
nodes = (
"617 -5 OFFCURVE",
"787 217 OFFCURVE",
"787 505 CURVE SMOOTH",
"787 724 OFFCURVE",
"661 848 OFFCURVE",
"487 848 CURVE SMOOTH",
"255 848 OFFCURVE",
"69 649 OFFCURVE",
"69 338 CURVE SMOOTH",
"69 114 OFFCURVE",
"211 -5 OFFCURVE",
"385 -5 CURVE SMOOTH"
);
},
{
closed = 1;
nodes = (
"295 113 OFFCURVE",
"216 189 OFFCURVE",
"216 355 CURVE SMOOTH",
"216 576 OFFCURVE",
"322 730 OFFCURVE",
"477 730 CURVE SMOOTH",
"577 730 OFFCURVE",
"656 654 OFFCURVE",
"656 488 CURVE SMOOTH",
"656 271 OFFCURVE",
"554 113 OFFCURVE",
"395 113 CURVE SMOOTH"
);
},
{
closed = 1;
nodes = (
"1005 -5 OFFCURVE",
"1063 4 OFFCURVE",
"1114 22 CURVE SMOOTH",
"1158 38 OFFCURVE",
"1170 61 OFFCURVE",
"1170 97 CURVE SMOOTH",
"1170 126 OFFCURVE",
"1157 155 OFFCURVE",
"1104 139 CURVE SMOOTH",
"1059 125 OFFCURVE",
"1018 115 OFFCURVE",
"976 115 CURVE SMOOTH",
"807 115 OFFCURVE",
"766 212 OFFCURVE",
"800 361 CURVE",
"909 363 OFFCURVE",
"963 366 OFFCURVE",
"1058 368 CURVE SMOOTH",
"1101 369 OFFCURVE",
"1124 401 OFFCURVE",
"1124 441 CURVE SMOOTH",
"1124 471 OFFCURVE",
"1113 490 OFFCURVE",
"1071 490 CURVE SMOOTH",
"993 490 OFFCURVE",
"913 486 OFFCURVE",
"824 483 CURVE",
"840 556 OFFCURVE",
"862 650 OFFCURVE",
"882 710 CURVE",
"923 715 OFFCURVE",
"1030 720 OFFCURVE",
"1122 720 CURVE SMOOTH",
"1174 720 OFFCURVE",
"1194 759 OFFCURVE",
"1194 795 CURVE SMOOTH",
"1194 832 OFFCURVE",
"1179 849 OFFCURVE",
"1130 849 CURVE SMOOTH",
"1034 849 OFFCURVE",
"964 844 OFFCURVE",
"880 840 CURVE SMOOTH",
"813 837 OFFCURVE",
"765 801 OFFCURVE",
"745 727 CURVE SMOOTH",
"664 431 LINE",
"655 264 LINE",
"649 121 OFFCURVE",
"731 -5 OFFCURVE",
"953 -5 CURVE SMOOTH"
);
}
);
width = 1153;
}
);
leftMetricsKey = O;
note = OE;
rightKerningGroup = AE_ss01;
},
{
color = 3;
glyphname = P.ss01;
lastChange = "2016-07-30 21:00:59 +0000";
layers = (
{
background = {
paths = (
{
closed = 1;
nodes = (
"60 748 OFFCURVE",
"103 668 OFFCURVE",
"155 696 CURVE SMOOTH",
"200 720 OFFCURVE",
"264 737 OFFCURVE",
"323 737 CURVE SMOOTH",
"459 737 OFFCURVE",
"515 683 OFFCURVE",
"515 587 CURVE SMOOTH",
"515 459 OFFCURVE",
"435 372 OFFCURVE",
"230 372 CURVE SMOOTH",
"185 372 OFFCURVE",
"146 375 OFFCURVE",
"113 381 CURVE SMOOTH",
"75 388 OFFCURVE",
"50 369 OFFCURVE",
"50 332 CURVE SMOOTH",
"50 310 OFFCURVE",
"55 287 OFFCURVE",
"99 279 CURVE SMOOTH",
"132 273 OFFCURVE",
"182 268 OFFCURVE",
"238 268 CURVE SMOOTH",
"522 268 OFFCURVE",
"663 417 OFFCURVE",
"663 593 CURVE SMOOTH",
"663 735 OFFCURVE",
"563 846 OFFCURVE",
"351 846 CURVE SMOOTH",
"268 846 OFFCURVE",
"187 826 OFFCURVE",
"138 796 CURVE SMOOTH"
);
},
{
closed = 1;
nodes = (
"212 778 LINE",
"205 715 OFFCURVE",
"185 576 OFFCURVE",
"169 486 CURVE SMOOTH",
"162 446 OFFCURVE",
"154 403 OFFCURVE",
"146 355 CURVE SMOOTH",
"125 228 OFFCURVE",
"103 105 OFFCURVE",
"103 55 CURVE SMOOTH",
"103 19 OFFCURVE",
"123 -5 OFFCURVE",
"172 -5 CURVE SMOOTH",
"224 -5 OFFCURVE",
"239 14 OFFCURVE",
"245 65 CURVE SMOOTH",
"252 128 OFFCURVE",
"273 267 OFFCURVE",
"288 357 CURVE SMOOTH",
"310 488 LINE SMOOTH",
"331 615 OFFCURVE",
"351 738 OFFCURVE",
"355 788 CURVE"
);
}
);
};
layerId = "ECEFE970-1BBB-4E0A-A452-CEB55884B4A3";
paths = (
{
closed = 1;
nodes = (
"530 268 OFFCURVE",
"671 417 OFFCURVE",
"671 593 CURVE SMOOTH",
"671 735 OFFCURVE",
"571 846 OFFCURVE",
"351 846 CURVE SMOOTH",
"268 846 OFFCURVE",
"187 826 OFFCURVE",
"138 796 CURVE SMOOTH",
"60 748 OFFCURVE",
"103 672 OFFCURVE",
"155 700 CURVE SMOOTH",
"200 724 OFFCURVE",
"264 741 OFFCURVE",
"323 741 CURVE SMOOTH",
"469 741 OFFCURVE",
"525 687 OFFCURVE",
"525 587 CURVE SMOOTH",
"525 455 OFFCURVE",
"445 368 OFFCURVE",
"230 368 CURVE SMOOTH",
"185 368 OFFCURVE",
"146 371 OFFCURVE",
"113 377 CURVE SMOOTH",
"75 384 OFFCURVE",
"50 369 OFFCURVE",
"50 332 CURVE SMOOTH",
"50 310 OFFCURVE",
"55 287 OFFCURVE",
"99 279 CURVE SMOOTH",
"132 273 OFFCURVE",
"182 268 OFFCURVE",
"238 268 CURVE SMOOTH"
);
},
{
closed = 1;
nodes = (
"224 -5 OFFCURVE",
"239 14 OFFCURVE",
"245 65 CURVE SMOOTH",
"252 128 OFFCURVE",
"273 267 OFFCURVE",
"288 357 CURVE SMOOTH",
"310 488 LINE SMOOTH",
"331 615 OFFCURVE",
"351 738 OFFCURVE",
"355 788 CURVE",
"212 778 LINE",
"205 715 OFFCURVE",
"185 576 OFFCURVE",
"169 486 CURVE SMOOTH",
"162 446 OFFCURVE",
"154 403 OFFCURVE",
"146 355 CURVE SMOOTH",
"125 228 OFFCURVE",
"103 105 OFFCURVE",
"103 55 CURVE SMOOTH",
"103 19 OFFCURVE",
"123 -5 OFFCURVE",
"172 -5 CURVE SMOOTH"
);
}
);
width = 654;
}
);
leftKerningGroup = H_ss01;
note = P;
rightKerningGroup = P_ss01;
},
{
color = 3;
glyphname = Thorn.ss01;
lastChange = "2016-07-30 20:06:28 +0000";
layers = (
{
background = {
paths = (
{
closed = 1;
nodes = (
"53 615 OFFCURVE",
"96 535 OFFCURVE",
"148 563 CURVE SMOOTH",
"193 587 OFFCURVE",
"263 605 OFFCURVE",
"322 605 CURVE SMOOTH",
"460 605 OFFCURVE",
"504 534 OFFCURVE",
"504 466 CURVE SMOOTH",
"504 374 OFFCURVE",
"456 282 OFFCURVE",
"239 282 CURVE SMOOTH",
"184 282 OFFCURVE",
"145 285 OFFCURVE",
"112 291 CURVE SMOOTH",
"74 298 OFFCURVE",
"47 279 OFFCURVE",
"47 242 CURVE SMOOTH",
"47 220 OFFCURVE",
"54 197 OFFCURVE",
"98 189 CURVE SMOOTH",
"131 183 OFFCURVE",
"181 179 OFFCURVE",
"247 179 CURVE SMOOTH",
"521 179 OFFCURVE",
"652 317 OFFCURVE",
"652 483 CURVE SMOOTH",
"652 605 OFFCURVE",
"562 713 OFFCURVE",
"350 713 CURVE SMOOTH",
"267 713 OFFCURVE",
"180 693 OFFCURVE",
"131 663 CURVE SMOOTH"
);
},
{
closed = 1;
nodes = (
"239 848 OFFCURVE",
"211 829 OFFCURVE",
"207 778 CURVE SMOOTH",
"203 715 OFFCURVE",
"185 576 OFFCURVE",
"169 486 CURVE SMOOTH",
"162 446 OFFCURVE",
"154 403 OFFCURVE",
"146 355 CURVE SMOOTH",
"125 228 OFFCURVE",
"102 105 OFFCURVE",
"102 55 CURVE SMOOTH",
"102 19 OFFCURVE",
"122 -5 OFFCURVE",
"173 -5 CURVE SMOOTH",
"223 -5 OFFCURVE",
"250 14 OFFCURVE",
"254 65 CURVE SMOOTH",
"258 128 OFFCURVE",
"277 267 OFFCURVE",
"292 357 CURVE SMOOTH",
"314 488 LINE SMOOTH",
"335 615 OFFCURVE",
"359 738 OFFCURVE",
"359 788 CURVE SMOOTH",
"359 824 OFFCURVE",
"340 848 OFFCURVE",
"291 848 CURVE SMOOTH"
);
}
);
};
layerId = "ECEFE970-1BBB-4E0A-A452-CEB55884B4A3";
paths = (
{
closed = 1;
nodes = (
"521 179 OFFCURVE",
"652 317 OFFCURVE",
"652 483 CURVE SMOOTH",
"652 605 OFFCURVE",
"562 713 OFFCURVE",
"350 713 CURVE SMOOTH",
"267 713 OFFCURVE",
"180 693 OFFCURVE",
"131 663 CURVE SMOOTH",
"53 615 OFFCURVE",
"96 539 OFFCURVE",
"148 567 CURVE SMOOTH",
"193 591 OFFCURVE",
"263 609 OFFCURVE",
"322 609 CURVE SMOOTH",
"460 609 OFFCURVE",
"504 538 OFFCURVE",
"504 466 CURVE SMOOTH",
"504 370 OFFCURVE",
"456 278 OFFCURVE",
"239 278 CURVE SMOOTH",
"184 278 OFFCURVE",
"145 281 OFFCURVE",
"112 287 CURVE SMOOTH",
"74 294 OFFCURVE",
"47 279 OFFCURVE",
"47 242 CURVE SMOOTH",
"47 220 OFFCURVE",
"54 197 OFFCURVE",
"98 189 CURVE SMOOTH",
"131 183 OFFCURVE",
"181 179 OFFCURVE",
"247 179 CURVE SMOOTH"
);
},
{
closed = 1;
nodes = (
"217 -5 OFFCURVE",
"244 14 OFFCURVE",
"248 65 CURVE SMOOTH",
"253 128 OFFCURVE",
"271 267 OFFCURVE",
"286 357 CURVE SMOOTH",
"308 488 LINE SMOOTH",
"329 615 OFFCURVE",
"351 738 OFFCURVE",
"351 788 CURVE SMOOTH",
"351 824 OFFCURVE",
"334 848 OFFCURVE",
"288 848 CURVE SMOOTH",
"239 848 OFFCURVE",
"211 829 OFFCURVE",
"207 778 CURVE SMOOTH",
"202 715 OFFCURVE",
"185 576 OFFCURVE",
"169 486 CURVE SMOOTH",
"162 446 OFFCURVE",
"154 403 OFFCURVE",
"146 355 CURVE SMOOTH",
"125 228 OFFCURVE",
"104 105 OFFCURVE",
"104 55 CURVE SMOOTH",
"104 19 OFFCURVE",
"122 -5 OFFCURVE",
"173 -5 CURVE SMOOTH"
);
}
);
width = 654;
}
);
note = Thorn;
},
